<svg width="88" height="53" viewBox="0 0 88 53" fill="none" xmlns="http://www.w3.org/2000/svg">
<path d="M5.40867 43.9771C5.86039 44.0557 6.24357 44.2873 6.55817 44.672C6.87277 45.0568 7.03007 45.4926 7.03007 45.9794C7.03007 46.3955 6.91716 46.7724 6.69127 47.11C6.47347 47.4398 6.15486 47.7028 5.73537 47.8991C5.3159 48.0876 4.82787 48.1818 4.27127 48.1818H0.907471V39.9962H4.11397C4.6867 39.9962 5.17877 40.0905 5.59017 40.2789C6.00157 40.4674 6.31216 40.7226 6.52187 41.0445C6.73159 41.3586 6.83647 41.7119 6.83647 42.1045C6.83647 42.5756 6.70739 42.9682 6.44927 43.2822C6.19116 43.5963 5.84427 43.8279 5.40867 43.9771ZM2.28687 43.4354H3.99297C4.4447 43.4354 4.7956 43.3372 5.04567 43.1409C5.3038 42.9368 5.43287 42.6462 5.43287 42.2694C5.43287 41.9003 5.3038 41.6137 5.04567 41.4096C4.7956 41.1976 4.4447 41.0916 3.99297 41.0916H2.28687V43.4354ZM4.15027 47.0865C4.61814 47.0865 4.98517 46.9766 5.25137 46.7567C5.51757 46.5368 5.65067 46.2306 5.65067 45.838C5.65067 45.4376 5.50949 45.1196 5.22717 44.884C4.94484 44.6485 4.56974 44.5307 4.10187 44.5307H2.28687V47.0865H4.15027ZM14.5669 41.6922V48.1818H13.1875V47.4162C12.9697 47.6832 12.6834 47.8952 12.3284 48.0522C11.9816 48.2015 11.6105 48.276 11.2152 48.276C10.6909 48.276 10.219 48.17 9.79954 47.958C9.38814 47.746 9.06144 47.4319 8.81944 47.0158C8.58553 46.5997 8.46854 46.0971 8.46854 45.5082V41.6922H9.83584V45.308C9.83584 45.889 9.98511 46.3366 10.2835 46.6507C10.582 46.9569 10.9894 47.11 11.5056 47.11C12.0219 47.11 12.4293 46.9569 12.7277 46.6507C13.0343 46.3366 13.1875 45.889 13.1875 45.308V41.6922H14.5669ZM17.0887 40.8325C16.8387 40.8325 16.6289 40.75 16.4595 40.5851C16.2901 40.4202 16.2054 40.2161 16.2054 39.9727C16.2054 39.7293 16.2901 39.5251 16.4595 39.3603C16.6289 39.1954 16.8387 39.1129 17.0887 39.1129C17.3307 39.1129 17.5364 39.1954 17.7058 39.3603C17.8752 39.5251 17.9599 39.7293 17.9599 39.9727C17.9599 40.2161 17.8752 40.4202 17.7058 40.5851C17.5364 40.75 17.3307 40.8325 17.0887 40.8325ZM17.7663 41.6922V48.1818H16.3869V41.6922H17.7663ZM20.9568 39.4663V48.1818H19.5774V39.4663H20.9568ZM22.308 44.9076C22.308 44.2559 22.4451 43.6788 22.7194 43.1762C23.0017 42.6737 23.3809 42.285 23.8568 42.0102C24.3408 41.7276 24.8772 41.5862 25.4661 41.5862C25.9017 41.5862 26.3292 41.6805 26.7487 41.8689C27.1762 42.0495 27.515 42.2929 27.7651 42.5991V39.4663H29.1566V48.1818H27.7651V47.2042C27.5392 47.5183 27.2246 47.7774 26.8213 47.9816C26.426 48.1857 25.9703 48.2878 25.454 48.2878C24.8732 48.2878 24.3408 48.1465 23.8568 47.8638C23.3809 47.5733 23.0017 47.1728 22.7194 46.6625C22.4451 46.1442 22.308 45.5593 22.308 44.9076ZM27.7651 44.9311C27.7651 44.4836 27.6683 44.0949 27.4747 43.7651C27.2892 43.4354 27.0431 43.1841 26.7366 43.0114C26.4301 42.8386 26.0993 42.7522 25.7444 42.7522C25.3895 42.7522 25.0587 42.8386 24.7522 43.0114C24.4457 43.1762 24.1956 43.4236 24.002 43.7534C23.8165 44.0753 23.7237 44.46 23.7237 44.9076C23.7237 45.3551 23.8165 45.7477 24.002 46.0854C24.1956 46.423 24.4457 46.6821 24.7522 46.8627C25.0668 47.0355 25.3975 47.1218 25.7444 47.1218C26.0993 47.1218 26.4301 47.0355 26.7366 46.8627C27.0431 46.6899 27.2892 46.4387 27.4747 46.1089C27.6683 45.7713 27.7651 45.3787 27.7651 44.9311ZM39.5445 39.9962V41.0916H37.306V48.1818H35.9266V41.0916H33.676V39.9962H39.5445ZM43.8334 48.2878C43.2042 48.2878 42.6355 48.1504 42.1273 47.8756C41.6191 47.5929 41.2198 47.2003 40.9294 46.6978C40.639 46.1874 40.4938 45.5986 40.4938 44.9311C40.4938 44.2716 40.643 43.6866 40.9415 43.1762C41.2399 42.6659 41.6473 42.2733 42.1636 41.9985C42.6798 41.7237 43.2566 41.5862 43.8939 41.5862C44.5311 41.5862 45.1079 41.7237 45.6242 41.9985C46.1404 42.2733 46.5478 42.6659 46.8463 43.1762C47.1447 43.6866 47.294 44.2716 47.294 44.9311C47.294 45.5907 47.1407 46.1757 46.8342 46.686C46.5276 47.1964 46.1082 47.5929 45.5758 47.8756C45.0514 48.1504 44.4706 48.2878 43.8334 48.2878ZM43.8334 47.1218C44.1883 47.1218 44.519 47.0394 44.8256 46.8745C45.1402 46.7096 45.3943 46.4622 45.5879 46.1325C45.7815 45.8027 45.8783 45.4022 45.8783 44.9311C45.8783 44.46 45.7855 44.0635 45.6 43.7416C45.4144 43.4118 45.1684 43.1645 44.8619 42.9996C44.5553 42.8347 44.2246 42.7522 43.8697 42.7522C43.5147 42.7522 43.184 42.8347 42.8775 42.9996C42.579 43.1645 42.341 43.4118 42.1636 43.7416C41.9861 44.0635 41.8974 44.46 41.8974 44.9311C41.8974 45.6299 42.0789 46.1717 42.4419 46.5565C42.8129 46.9334 43.2768 47.1218 43.8334 47.1218ZM51.3438 41.5862C51.86 41.5862 52.3158 41.6883 52.7111 41.8925C53.1144 42.0888 53.429 42.3361 53.6549 42.6345V41.6922H55.0462V48.2878C55.0462 48.8846 54.9173 49.4146 54.6592 49.8778C54.401 50.3489 54.0259 50.7179 53.5339 50.9849C53.0499 51.2519 52.4691 51.3854 51.7915 51.3854C50.888 51.3854 50.1378 51.1773 49.5409 50.7611C48.9439 50.3528 48.6051 49.7954 48.5245 49.0887H49.8918C49.9966 49.4263 50.2185 49.6972 50.5573 49.9014C50.9041 50.1134 51.3155 50.2194 51.7915 50.2194C52.3481 50.2194 52.7958 50.0545 53.1346 49.7247C53.4814 49.3949 53.6549 48.9159 53.6549 48.2878V47.2042C53.4209 47.5105 53.1023 47.7696 52.699 47.9816C52.3037 48.1857 51.852 48.2878 51.3438 48.2878C50.763 48.2878 50.2306 48.1465 49.7466 47.8638C49.2706 47.5733 48.8915 47.1728 48.6092 46.6625C48.3349 46.1442 48.1978 45.5593 48.1978 44.9076C48.1978 44.2559 48.3349 43.6788 48.6092 43.1762C48.8915 42.6737 49.2706 42.285 49.7466 42.0102C50.2306 41.7276 50.763 41.5862 51.3438 41.5862ZM53.6549 44.9311C53.6549 44.4836 53.5581 44.0949 53.3645 43.7651C53.1789 43.4354 52.9329 43.1841 52.6264 43.0114C52.3198 42.8386 51.9891 42.7522 51.6342 42.7522C51.2792 42.7522 50.9485 42.8386 50.642 43.0114C50.3354 43.1762 50.0854 43.4236 49.8918 43.7534C49.7062 44.0753 49.6135 44.46 49.6135 44.9076C49.6135 45.3551 49.7062 45.7477 49.8918 46.0854C50.0854 46.423 50.3354 46.6821 50.642 46.8627C50.9566 47.0355 51.2873 47.1218 51.6342 47.1218C51.9891 47.1218 52.3198 47.0355 52.6264 46.8627C52.9329 46.6899 53.1789 46.4387 53.3645 46.1089C53.5581 45.7713 53.6549 45.3787 53.6549 44.9311ZM62.9689 44.778C62.9689 45.0215 62.9524 45.2413 62.9205 45.4376H57.8264C57.8666 45.9558 58.064 46.3719 58.4193 46.686C58.7741 47.0001 59.2097 47.1571 59.7261 47.1571C60.4681 47.1571 60.9922 46.8548 61.2991 46.2502H62.7874C62.5856 46.847 62.2187 47.3377 61.6863 47.7225C61.1616 48.0994 60.5082 48.2878 59.7261 48.2878C59.0887 48.2878 58.5161 48.1504 58.0079 47.8756C57.5074 47.5929 57.1125 47.2003 56.8221 46.6978C56.5394 46.1874 56.3986 45.5986 56.3986 44.9311C56.3986 44.2637 56.5356 43.6788 56.81 43.1762C57.0922 42.6659 57.4832 42.2733 57.9837 41.9985C58.4919 41.7237 59.0727 41.5862 59.7261 41.5862C60.3553 41.5862 60.9158 41.7197 61.408 41.9867C61.8997 42.2537 62.2831 42.6306 62.5575 43.1174C62.8314 43.5963 62.9689 44.1499 62.9689 44.778ZM61.529 44.354C61.5208 43.8594 61.3393 43.4628 60.9845 43.1645C60.6292 42.8661 60.1898 42.7169 59.6656 42.7169C59.1893 42.7169 58.7823 42.8661 58.4435 43.1645C58.1047 43.455 57.9029 43.8515 57.8385 44.354H61.529ZM65.9356 42.7876V46.3798C65.9356 46.6232 65.9917 46.7999 66.105 46.9098C66.226 47.0119 66.4273 47.0629 66.71 47.0629H67.557V48.1818H66.468C65.8465 48.1818 65.3708 48.0405 65.0402 47.7578C64.7091 47.4751 64.5441 47.0158 64.5441 46.3798V42.7876H63.7576V41.6922H64.5441V40.0787H65.9356V41.6922H67.557V42.7876H65.9356ZM72.2766 41.5862C72.7848 41.5862 73.2369 41.6923 73.6318 41.9042C74.0355 42.1162 74.3501 42.4303 74.5756 42.8465C74.8099 43.2626 74.9265 43.7651 74.9265 44.354V48.1818H73.5592V44.5542C73.5592 43.9732 73.4101 43.5296 73.1115 43.2234C72.8134 42.9093 72.4058 42.7522 71.8894 42.7522C71.3735 42.7522 70.9621 42.9093 70.6552 43.2234C70.3571 43.5296 70.2075 43.9732 70.2075 44.5542V48.1818H68.8281V39.4663H70.2075V42.446C70.4418 42.1712 70.736 41.9592 71.0908 41.81C71.4538 41.6608 71.8492 41.5862 72.2766 41.5862ZM82.7964 44.778C82.7964 45.0215 82.7805 45.2413 82.748 45.4376H77.6539C77.6946 45.9558 77.8921 46.3719 78.2468 46.686C78.6021 47.0001 79.0377 47.1571 79.5536 47.1571C80.2961 47.1571 80.8203 46.8548 81.1266 46.2502H82.6149C82.4136 46.847 82.0462 47.3377 81.5138 47.7225C80.9897 48.0994 80.3363 48.2878 79.5536 48.2878C78.9167 48.2878 78.3436 48.1504 77.8354 47.8756C77.3355 47.5929 76.94 47.2003 76.6496 46.6978C76.3675 46.1874 76.2261 45.5986 76.2261 44.9311C76.2261 44.2637 76.3636 43.6788 76.6375 43.1762C76.9202 42.6659 77.3113 42.2733 77.8112 41.9985C78.3194 41.7237 78.9002 41.5862 79.5536 41.5862C80.1828 41.5862 80.7438 41.7197 81.2355 41.9867C81.7278 42.2537 82.1111 42.6306 82.385 43.1174C82.6595 43.5963 82.7964 44.1499 82.7964 44.778ZM81.3565 44.354C81.3488 43.8594 81.1673 43.4628 80.812 43.1645C80.4573 42.8661 80.0178 42.7169 79.4931 42.7169C79.0174 42.7169 78.6098 42.8661 78.271 43.1645C77.9322 43.455 77.7309 43.8515 77.666 44.354H81.3565ZM85.5332 42.6345C85.7351 42.3047 86.0013 42.0495 86.3318 41.8689C86.6706 41.6805 87.0699 41.5862 87.5297 41.5862V42.976H87.1788C86.6387 42.976 86.2273 43.1095 85.9446 43.3765C85.6707 43.6435 85.5332 44.1067 85.5332 44.7662V48.1818H84.1538V41.6922H85.5332V42.6345Z" fill="#A4A4A4"/>
<path d="M8.72963 34.6052C7.34511 34.6052 6.20694 34.5139 5.31523 34.3311C4.4235 34.1712 3.70776 33.9314 3.16803 33.6116C2.65176 33.269 2.28803 32.8464 2.07683 32.3439C1.8891 31.8414 1.79523 31.2475 1.79523 30.5623C1.79523 30.3567 1.80696 30.0712 1.83043 29.7057C1.8539 29.3174 1.8891 28.7806 1.93603 28.0953C1.98296 27.4101 2.04163 26.5307 2.11203 25.4571C2.2059 24.3607 2.32323 22.9902 2.46403 21.3456C2.6283 19.3127 2.75736 17.7024 2.85123 16.5146C2.9451 15.3268 3.0155 14.4132 3.06243 13.7736C3.10936 13.1112 3.13283 12.6543 3.13283 12.4031C3.1563 12.129 3.16803 11.9005 3.16803 11.7178C3.16803 11.3523 3.16803 11.0554 3.16803 10.827C3.1915 10.5985 3.21496 10.4272 3.23843 10.313C3.28536 10.176 3.34403 10.0846 3.41443 10.0389C3.5083 9.97041 3.63736 9.93615 3.80163 9.93615C5.18616 9.84476 6.35951 9.77624 7.32163 9.73057C8.30723 9.68491 9.16374 9.66205 9.89123 9.66205C11.6747 9.66205 13.2 9.8105 14.4672 10.1075C15.7579 10.3816 16.8021 10.7813 17.6 11.3067C18.3979 11.832 18.9845 12.483 19.36 13.2596C19.7355 14.0363 19.9232 14.9156 19.9232 15.8978C19.9232 16.446 19.8645 17.0171 19.7472 17.611C19.6299 18.182 19.4304 18.7302 19.1488 19.2556C18.8672 19.7809 18.48 20.2492 17.9872 20.6604C17.5179 21.0486 16.9195 21.3342 16.192 21.5169C17.5531 21.9281 18.5152 22.6133 19.0784 23.5727C19.6416 24.5092 19.9232 25.6284 19.9232 26.9304C19.9232 27.9812 19.7472 28.9748 19.3952 29.9113C19.0432 30.825 18.4331 31.6358 17.5648 32.3439C16.6965 33.0292 15.5467 33.5774 14.1152 33.9885C12.6837 34.3997 10.8885 34.6052 8.72963 34.6052ZM10.736 23.9838C10.4779 23.9838 10.1611 24.0067 9.78563 24.0524C9.41014 24.0752 9.02294 24.1209 8.62403 24.1894L8.23683 29.7742C9.08163 30.0255 9.84431 30.1511 10.5248 30.1511C11.2523 30.1511 11.8389 30.0483 12.2848 29.8427C12.7307 29.6372 13.0709 29.3859 13.3056 29.089C13.5637 28.7692 13.728 28.4266 13.7984 28.0611C13.8923 27.6728 13.9392 27.3187 13.9392 26.9989C13.9392 26.1538 13.6928 25.4457 13.2 24.8747C12.7307 24.2808 11.9093 23.9838 10.736 23.9838ZM9.25763 14.5616C9.21071 15.1555 9.16374 15.8522 9.11683 16.6516C9.09334 17.4511 9.04643 18.3191 8.97603 19.2556C9.72694 19.4383 10.3957 19.5297 10.9824 19.5297C11.6864 19.5297 12.2496 19.4498 12.672 19.2898C13.0944 19.1299 13.4229 18.9244 13.6576 18.6731C13.9157 18.4219 14.08 18.1478 14.1504 17.8508C14.2443 17.5539 14.2912 17.2684 14.2912 16.9943C14.2912 16.2861 14.0448 15.6809 13.552 15.1783C13.0827 14.653 12.2613 14.3903 11.088 14.3903C10.8299 14.3903 10.5365 14.4132 10.208 14.4588C9.90294 14.4817 9.58614 14.5159 9.25763 14.5616ZM29.4789 18.3305C29.4789 18.8102 29.432 19.484 29.3381 20.352C29.2677 21.22 29.1856 22.1222 29.0917 23.0587C29.0213 23.9952 28.9392 24.8747 28.8453 25.697C28.7749 26.5193 28.7397 27.1131 28.7397 27.4786C28.7397 28.2781 28.9392 28.9062 29.3381 29.3631C29.7605 29.7971 30.3354 30.014 31.0629 30.014C31.6965 30.014 32.2245 29.7742 32.6469 29.2945C33.0928 28.792 33.4448 28.1525 33.7029 27.3758C33.9845 26.5764 34.2074 25.6741 34.3717 24.6691C34.536 23.6641 34.6533 22.6476 34.7237 21.6197C34.8176 20.5918 34.888 19.5982 34.9349 18.6389C35.0053 17.6566 35.0757 16.8115 35.1461 16.1034C35.1696 15.9207 35.24 15.7608 35.3573 15.6237C35.4746 15.4867 35.6624 15.4182 35.9205 15.4182H37.1877C37.9152 15.4182 38.5018 15.4981 38.9477 15.658C39.417 15.7951 39.7808 16.0006 40.0389 16.2747C40.3205 16.5488 40.5082 16.8915 40.6021 17.3026C40.7194 17.6909 40.7781 18.1478 40.7781 18.6731C40.7781 19.0157 40.7546 19.5068 40.7077 20.1464C40.6842 20.7631 40.6256 21.6311 40.5317 22.7504C40.4378 23.8468 40.3205 25.2515 40.1797 26.9647C40.0624 28.6549 39.9098 30.7564 39.7221 33.269C39.6752 33.7487 39.6165 34.0342 39.5461 34.1256C39.4992 34.217 39.3114 34.2626 38.9829 34.2626H37.6101C36.9061 34.2626 36.3194 34.1827 35.8501 34.0228C35.4042 33.8629 35.0405 33.6573 34.7589 33.4061C34.4773 33.1548 34.2778 32.8578 34.1605 32.5152C34.0432 32.1726 33.9728 31.8186 33.9493 31.4531C33.5973 32.0469 33.1984 32.5495 32.7525 32.9606C32.3301 33.3718 31.8842 33.703 31.4149 33.9543C30.9456 34.1827 30.4645 34.3425 29.9717 34.4339C29.4789 34.5481 28.9978 34.6052 28.5285 34.6052C27.6368 34.6052 26.8389 34.4682 26.1349 34.1941C25.4309 33.8971 24.8325 33.5088 24.3397 33.0292C23.8704 32.5495 23.5066 31.9784 23.2485 31.316C22.9904 30.6536 22.8613 29.9455 22.8613 29.1917C22.8613 28.8948 22.873 28.4151 22.8965 27.7527C22.9434 27.0675 22.9904 26.3023 23.0373 25.4571C23.1077 24.612 23.1781 23.7211 23.2485 22.7846C23.3189 21.8253 23.3776 20.9231 23.4245 20.0779C23.4949 19.2327 23.5536 18.4904 23.6005 17.8508C23.6709 17.2112 23.7178 16.7544 23.7413 16.4803C23.7882 16.0692 23.8821 15.7951 24.0229 15.658C24.1637 15.4981 24.3984 15.4182 24.7269 15.4182H25.8533C26.5808 15.4182 27.1792 15.4867 27.6485 15.6237C28.1178 15.7608 28.4816 15.955 28.7397 16.2062C29.0213 16.4575 29.209 16.7658 29.3029 17.1313C29.4202 17.4739 29.4789 17.8737 29.4789 18.3305Z" fill="#93B7FF"/>
<path d="M55.6187 14.7329L54.2811 33.7487C54.2576 34.0913 54.1286 34.2626 53.8939 34.2626H51.9579C50.6438 34.2626 49.7051 34.0114 49.1419 33.5088C48.5787 33.0063 48.2971 32.2868 48.2971 31.3503C48.2971 31.0077 48.3088 30.4937 48.3323 29.8085C48.3792 29.1232 48.4379 28.3238 48.5083 27.4101C48.5787 26.4736 48.6491 25.4685 48.7195 24.395C48.8134 23.2986 48.9072 22.2022 49.0011 21.1058C49.095 19.9865 49.1771 18.8787 49.2475 17.7823C49.3414 16.6859 49.4235 15.6694 49.4939 14.7329H43.8619C43.6038 14.7329 43.4747 14.573 43.4747 14.2532L43.5803 12.3345C43.6038 12.0376 43.6507 11.7521 43.7211 11.478C43.815 11.181 43.9558 10.9184 44.1435 10.6899C44.3312 10.4615 44.5659 10.2788 44.8475 10.1417C45.1526 10.0047 45.5163 9.93616 45.9387 9.93616H61.6731C61.8139 9.93616 61.9432 9.97042 62.0603 10.0389C62.1775 10.1075 62.2363 10.2331 62.2363 10.4158L62.0955 12.4373C62.0488 13.1226 61.8491 13.6822 61.4971 14.1162C61.1688 14.5273 60.4763 14.7329 59.4203 14.7329H55.6187ZM68.9001 34.6053C67.2809 34.6053 65.9312 34.3883 64.8521 33.9543C63.7961 33.4974 62.9513 32.8807 62.3177 32.1041C61.6841 31.3274 61.2381 30.4252 60.9801 29.3973C60.7216 28.3466 60.5929 27.2274 60.5929 26.0396C60.5929 24.6691 60.7568 23.3328 61.0857 22.0309C61.4377 20.706 62.024 19.5297 62.8457 18.5018C63.6669 17.4739 64.7465 16.6516 66.0841 16.0349C67.4448 15.3953 69.1344 15.0756 71.1529 15.0756C74.1097 15.0756 76.2217 15.7837 77.4889 17.1998C78.7792 18.5932 79.4249 20.5576 79.4249 23.093C79.4249 23.8011 79.3661 24.5892 79.2489 25.4571C79.1549 26.3023 78.9552 27.1474 78.6505 27.9926C78.3689 28.8377 77.9696 29.66 77.4537 30.4595C76.9609 31.2589 76.3273 31.967 75.5529 32.5838C74.7785 33.2005 73.8397 33.6916 72.7369 34.057C71.6573 34.4225 70.3785 34.6053 68.9001 34.6053ZM70.5545 19.6325C69.6624 19.6325 68.9469 19.8609 68.4073 20.3177C67.8909 20.7517 67.4921 21.2885 67.2105 21.9281C66.952 22.5448 66.776 23.2072 66.6825 23.9153C66.6121 24.6006 66.5769 25.183 66.5769 25.6627C66.5769 27.1703 66.8233 28.2781 67.3161 28.9862C67.8089 29.6943 68.5129 30.0483 69.4281 30.0483C70.2493 30.0483 70.9181 29.7971 71.4345 29.2945C71.9741 28.792 72.3849 28.1867 72.6665 27.4786C72.9712 26.7705 73.1709 26.0282 73.2649 25.2516C73.3821 24.4749 73.4409 23.8239 73.4409 23.2986C73.4409 22.1565 73.2176 21.2657 72.7721 20.6261C72.3497 19.9637 71.6105 19.6325 70.5545 19.6325Z" fill="#0016CC"/>
</svg>
