<svg width="387" height="177" viewBox="0 0 387 177" fill="none" xmlns="http://www.w3.org/2000/svg">
<path opacity="0.28" d="M381.923 176.114H5.0209C2.23151 176.114 0 173.882 0 171.093C0 168.303 2.23151 166.072 5.0209 166.072H381.979C384.768 166.072 387 168.303 387 171.093C386.944 173.882 384.713 176.114 381.923 176.114Z" fill="#848484"/>
<path d="M365.578 124.566C365.578 103.813 349.846 86.7415 329.484 84.789V80.1028H317.266V169.754H329.484V164.342C349.79 162.39 365.578 145.319 365.578 124.566ZM329.428 151.455V97.7317C342.482 99.6285 352.747 110.953 352.747 124.621C352.747 138.234 342.482 149.559 329.428 151.455Z" fill="#F09F54"/>
<path opacity="0.29" d="M329.427 84.789V80.1028H317.209V169.754H329.427V164.342C349.79 162.39 365.522 145.375 365.522 124.566C365.577 103.813 349.79 86.7415 329.427 84.789ZM329.427 160.214V164.844H317.99V84.1753H329.427V88.9173C347.335 90.6467 361.784 105.933 361.784 124.566C361.84 143.199 347.391 158.485 329.427 160.214Z" fill="#F09F54"/>
<path d="M365.578 124.566C365.578 103.813 349.846 86.7415 329.484 84.789V80.1028H317.266V169.754H329.484V164.342C349.79 162.39 365.578 145.319 365.578 124.566ZM329.428 151.455V97.7317C342.482 99.6285 352.747 110.953 352.747 124.621C352.747 138.234 342.482 149.559 329.428 151.455Z" stroke="#444E59" stroke-width="4" stroke-miterlimit="10" stroke-linecap="round" stroke-linejoin="round"/>
<path d="M322.119 160.772H317.209" stroke="#444E59" stroke-width="3" stroke-miterlimit="10" stroke-linecap="round" stroke-linejoin="round"/>
<path d="M322.119 151.846H317.209" stroke="#444E59" stroke-width="3" stroke-miterlimit="10" stroke-linecap="round" stroke-linejoin="round"/>
<path d="M322.119 142.865H317.209" stroke="#444E59" stroke-width="3" stroke-miterlimit="10" stroke-linecap="round" stroke-linejoin="round"/>
<path d="M322.119 133.883H317.209" stroke="#444E59" stroke-width="3" stroke-miterlimit="10" stroke-linecap="round" stroke-linejoin="round"/>
<path d="M322.119 124.957H317.209" stroke="#444E59" stroke-width="3" stroke-miterlimit="10" stroke-linecap="round" stroke-linejoin="round"/>
<path d="M322.119 115.974H317.209" stroke="#444E59" stroke-width="3" stroke-miterlimit="10" stroke-linecap="round" stroke-linejoin="round"/>
<path d="M322.119 106.993H317.209" stroke="#444E59" stroke-width="3" stroke-miterlimit="10" stroke-linecap="round" stroke-linejoin="round"/>
<path d="M322.119 98.011H317.209" stroke="#444E59" stroke-width="3" stroke-miterlimit="10" stroke-linecap="round" stroke-linejoin="round"/>
<path d="M322.119 89.085H317.209" stroke="#444E59" stroke-width="3" stroke-miterlimit="10" stroke-linecap="round" stroke-linejoin="round"/>
<path d="M308.618 34.7478H290.152V169.531H308.618V34.7478Z" fill="#F09F54"/>
<path d="M308.618 34.7478H290.152V169.531H308.618V34.7478Z" fill="#F09F54"/>
<path opacity="0.29" d="M308.618 34.7473H300.585V169.531H308.618V34.7473Z" fill="#F09F54"/>
<path d="M308.618 34.7478H290.152V169.531H308.618V34.7478Z" stroke="#444E59" stroke-width="4" stroke-miterlimit="10" stroke-linecap="round" stroke-linejoin="round"/>
<path d="M296.568 155.918H290.152" stroke="#444E59" stroke-width="3" stroke-miterlimit="10" stroke-linecap="round" stroke-linejoin="round"/>
<path d="M294.113 162.334H290.152" stroke="#444E59" stroke-width="3" stroke-miterlimit="10" stroke-linecap="round" stroke-linejoin="round"/>
<path d="M296.568 143.087H290.152" stroke="#444E59" stroke-width="3" stroke-miterlimit="10" stroke-linecap="round" stroke-linejoin="round"/>
<path d="M294.113 149.503H290.152" stroke="#444E59" stroke-width="3" stroke-miterlimit="10" stroke-linecap="round" stroke-linejoin="round"/>
<path d="M296.568 130.256H290.152" stroke="#444E59" stroke-width="3" stroke-miterlimit="10" stroke-linecap="round" stroke-linejoin="round"/>
<path d="M294.113 136.672H290.152" stroke="#444E59" stroke-width="3" stroke-miterlimit="10" stroke-linecap="round" stroke-linejoin="round"/>
<path d="M296.568 117.369H290.152" stroke="#444E59" stroke-width="3" stroke-miterlimit="10" stroke-linecap="round" stroke-linejoin="round"/>
<path d="M294.113 123.785H290.152" stroke="#444E59" stroke-width="3" stroke-miterlimit="10" stroke-linecap="round" stroke-linejoin="round"/>
<path d="M296.568 104.538H290.152" stroke="#444E59" stroke-width="3" stroke-miterlimit="10" stroke-linecap="round" stroke-linejoin="round"/>
<path d="M294.113 110.953H290.152" stroke="#444E59" stroke-width="3" stroke-miterlimit="10" stroke-linecap="round" stroke-linejoin="round"/>
<path d="M296.568 91.7065H290.152" stroke="#444E59" stroke-width="3" stroke-miterlimit="10" stroke-linecap="round" stroke-linejoin="round"/>
<path d="M294.113 98.1221H290.152" stroke="#444E59" stroke-width="3" stroke-miterlimit="10" stroke-linecap="round" stroke-linejoin="round"/>
<path d="M296.568 78.8752H290.152" stroke="#444E59" stroke-width="3" stroke-miterlimit="10" stroke-linecap="round" stroke-linejoin="round"/>
<path d="M294.113 85.2913H290.152" stroke="#444E59" stroke-width="3" stroke-miterlimit="10" stroke-linecap="round" stroke-linejoin="round"/>
<path d="M296.568 66.0442H290.152" stroke="#444E59" stroke-width="3" stroke-miterlimit="10" stroke-linecap="round" stroke-linejoin="round"/>
<path d="M294.113 72.46H290.152" stroke="#444E59" stroke-width="3" stroke-miterlimit="10" stroke-linecap="round" stroke-linejoin="round"/>
<path d="M296.568 53.2131H290.152" stroke="#444E59" stroke-width="3" stroke-miterlimit="10" stroke-linecap="round" stroke-linejoin="round"/>
<path d="M294.113 59.6284H290.152" stroke="#444E59" stroke-width="3" stroke-miterlimit="10" stroke-linecap="round" stroke-linejoin="round"/>
<path d="M296.568 40.3818H290.152" stroke="#444E59" stroke-width="3" stroke-miterlimit="10" stroke-linecap="round" stroke-linejoin="round"/>
<path d="M294.113 46.7974H290.152" stroke="#444E59" stroke-width="3" stroke-miterlimit="10" stroke-linecap="round" stroke-linejoin="round"/>
<path d="M263.207 67.3276H256.01V86.3513H263.207V67.3276Z" fill="#848484"/>
<path opacity="0.25" d="M258.688 67.3276H256.01V86.3513H258.688V67.3276Z" fill="#848484"/>
<path d="M263.207 67.3276H256.01V86.3513H263.207V67.3276Z" stroke="#444E59" stroke-width="4" stroke-miterlimit="10" stroke-linecap="round" stroke-linejoin="round"/>
<path d="M261.254 86.4072H257.963V95.6122H261.254V86.4072Z" fill="white"/>
<path d="M261.254 86.4072H257.963V95.6122H261.254V86.4072Z" stroke="#444E59" stroke-width="4" stroke-miterlimit="10" stroke-linecap="round" stroke-linejoin="round"/>
<path d="M254.058 103.813L237.321 169.475L262.761 104.705L254.058 103.813Z" fill="white"/>
<path d="M254.058 103.813L237.321 169.475L262.761 104.705L254.058 103.813Z" stroke="#444E59" stroke-width="4" stroke-miterlimit="10" stroke-linecap="round" stroke-linejoin="round"/>
<path d="M265.215 103.813L281.952 169.475L256.568 104.706L265.215 103.813Z" fill="white"/>
<path d="M265.215 103.813L281.952 169.475L256.568 104.706L265.215 103.813Z" stroke="#444E59" stroke-width="4" stroke-miterlimit="10" stroke-linecap="round" stroke-linejoin="round"/>
<path d="M259.636 116.7C265.799 116.7 270.794 111.705 270.794 105.543C270.794 99.3804 265.799 94.385 259.636 94.385C253.474 94.385 248.479 99.3804 248.479 105.543C248.479 111.705 253.474 116.7 259.636 116.7Z" fill="#71A850"/>
<path opacity="0.4" d="M251.603 105.543C251.603 99.908 255.787 95.2776 261.198 94.4966C260.696 94.4408 260.194 94.385 259.636 94.385C253.5 94.385 248.479 99.4059 248.479 105.543C248.479 111.679 253.5 116.7 259.636 116.7C260.139 116.7 260.696 116.644 261.198 116.589C255.787 115.808 251.603 111.177 251.603 105.543Z" fill="#71A850"/>
<path d="M259.636 116.7C265.799 116.7 270.794 111.705 270.794 105.543C270.794 99.3804 265.799 94.385 259.636 94.385C253.474 94.385 248.479 99.3804 248.479 105.543C248.479 111.705 253.474 116.7 259.636 116.7Z" stroke="#444E59" stroke-width="4" stroke-miterlimit="10" stroke-linecap="round" stroke-linejoin="round"/>
<path d="M259.636 109.336C261.732 109.336 263.43 107.637 263.43 105.542C263.43 103.447 261.732 101.749 259.636 101.749C257.541 101.749 255.843 103.447 255.843 105.542C255.843 107.637 257.541 109.336 259.636 109.336Z" fill="#444E59"/>
<path d="M259.636 109.336C261.732 109.336 263.43 107.637 263.43 105.542C263.43 103.447 261.732 101.749 259.636 101.749C257.541 101.749 255.843 103.447 255.843 105.542C255.843 107.637 257.541 109.336 259.636 109.336Z" stroke="#444E59" stroke-width="4" stroke-miterlimit="10" stroke-linecap="round" stroke-linejoin="round"/>
<path d="M219.358 169.363H145.718C141.422 169.363 137.907 165.849 137.907 161.553V9.81029C137.907 5.51463 141.422 2 145.718 2H219.358C223.653 2 227.168 5.51463 227.168 9.81029V161.553C227.168 165.849 223.653 169.363 219.358 169.363Z" fill="#848484"/>
<path opacity="0.28" d="M219.358 2H214.671C218.967 2 222.482 5.51463 222.482 9.81029V161.553C222.482 165.849 218.967 169.363 214.671 169.363H219.413C223.709 169.363 227.224 165.849 227.224 161.553V9.81029C227.168 5.45884 223.653 2 219.358 2Z" fill="#848484"/>
<path opacity="0.48" d="M142.538 161.553V9.81029C142.538 5.51463 146.053 2 150.348 2H145.718C141.422 2 137.907 5.51463 137.907 9.81029V161.553C137.907 165.849 141.422 169.363 145.718 169.363H150.348C146.053 169.363 142.538 165.849 142.538 161.553Z" fill="#848484"/>
<path d="M219.358 169.363H145.718C141.422 169.363 137.907 165.849 137.907 161.553V9.81029C137.907 5.51463 141.422 2 145.718 2H219.358C223.653 2 227.168 5.51463 227.168 9.81029V161.553C227.168 165.849 223.653 169.363 219.358 169.363Z" stroke="#444E59" stroke-width="4" stroke-miterlimit="10" stroke-linecap="round" stroke-linejoin="round"/>
<path d="M227.179 147.878L227.179 22.9136L137.918 22.9136L137.918 147.878H227.179Z" fill="#E9FBFF"/>
<path d="M226.722 63.1995H219.748C215.955 63.1995 212.886 60.1312 212.886 56.3376V39.3224C212.886 35.5288 215.955 32.4604 219.748 32.4604H226.722V63.1995Z" fill="#C9C9C9"/>
<path d="M143.04 132.153H137.907V77.8713H143.04C146.889 77.8713 150.013 80.9955 150.013 84.8448V125.179C149.958 129.029 146.889 132.153 143.04 132.153Z" fill="#C9C9C9"/>
<path d="M227.179 147.878L227.179 22.9136L137.918 22.9136L137.918 147.878H227.179Z" stroke="#444E59" stroke-width="4" stroke-miterlimit="10" stroke-linecap="round" stroke-linejoin="round"/>
<path d="M194.811 13.1577H198.716" stroke="#444E59" stroke-width="5" stroke-miterlimit="10" stroke-linecap="round" stroke-linejoin="round"/>
<path d="M166.359 13.158H188.674" stroke="#444E59" stroke-width="5" stroke-miterlimit="10" stroke-linecap="round" stroke-linejoin="round"/>
<path opacity="0.29" d="M182.538 163.45C185.927 163.45 188.674 160.703 188.674 157.313C188.674 153.924 185.927 151.177 182.538 151.177C179.149 151.177 176.401 153.924 176.401 157.313C176.401 160.703 179.149 163.45 182.538 163.45Z" fill="#848484"/>
<path d="M182.538 162C185.126 162 187.224 159.901 187.224 157.313C187.224 154.725 185.126 152.627 182.538 152.627C179.95 152.627 177.852 154.725 177.852 157.313C177.852 159.901 179.95 162 182.538 162Z" fill="#444E59"/>
<g opacity="0.3">
<g opacity="0.3">
<g opacity="0.3">
<path opacity="0.3" d="M162.175 132.934H153.249C150.794 132.934 148.786 130.926 148.786 128.471V119.545C148.786 117.09 150.794 115.082 153.249 115.082H162.175C164.63 115.082 166.638 117.09 166.638 119.545V128.471C166.638 130.926 164.63 132.934 162.175 132.934Z" stroke="#444E59" stroke-width="2" stroke-linecap="round" stroke-linejoin="round" stroke-dasharray="4.08 4.08"/>
</g>
<g opacity="0.3">
<path opacity="0.3" d="M211.547 132.934H202.621C200.167 132.934 198.158 130.925 198.158 128.471V119.545C198.158 117.09 200.167 115.082 202.621 115.082H211.547C214.002 115.082 216.01 117.09 216.01 119.545V128.471C216.01 130.925 214.002 132.934 211.547 132.934Z" stroke="#444E59" stroke-width="2" stroke-linecap="round" stroke-linejoin="round" stroke-dasharray="4.08 4.08"/>
</g>
<g opacity="0.3">
<path opacity="0.3" d="M187.001 132.934H178.075C175.62 132.934 173.612 130.925 173.612 128.471V119.545C173.612 117.09 175.62 115.082 178.075 115.082H187.001C189.455 115.082 191.464 117.09 191.464 119.545V128.471C191.464 130.925 189.455 132.934 187.001 132.934Z" stroke="#444E59" stroke-width="2" stroke-linecap="round" stroke-linejoin="round" stroke-dasharray="4.08 4.08"/>
</g>
</g>
<g opacity="0.3">
<g opacity="0.3">
<path opacity="0.3" d="M162.175 106.156H153.249C150.794 106.156 148.786 104.148 148.786 101.693V92.767C148.786 90.3123 150.794 88.304 153.249 88.304H162.175C164.63 88.304 166.638 90.3123 166.638 92.767V101.693C166.638 104.148 164.63 106.156 162.175 106.156Z" stroke="#444E59" stroke-width="2" stroke-linecap="round" stroke-linejoin="round" stroke-dasharray="4.08 4.08"/>
</g>
<g opacity="0.3">
<path opacity="0.3" d="M211.547 106.156H202.621C200.167 106.156 198.158 104.147 198.158 101.693V92.7668C198.158 90.3121 200.167 88.3037 202.621 88.3037H211.547C214.002 88.3037 216.01 90.3121 216.01 92.7668V101.693C216.01 104.147 214.002 106.156 211.547 106.156Z" stroke="#444E59" stroke-width="2" stroke-linecap="round" stroke-linejoin="round" stroke-dasharray="4.08 4.08"/>
</g>
<g opacity="0.3">
<path opacity="0.3" d="M187.001 106.156H178.075C175.62 106.156 173.612 104.147 173.612 101.693V92.7668C173.612 90.3121 175.62 88.3037 178.075 88.3037H187.001C189.455 88.3037 191.464 90.3121 191.464 92.7668V101.693C191.464 104.147 189.455 106.156 187.001 106.156Z" stroke="#444E59" stroke-width="2" stroke-linecap="round" stroke-linejoin="round" stroke-dasharray="4.08 4.08"/>
</g>
</g>
<g opacity="0.3">
<g opacity="0.3">
<path opacity="0.3" d="M162.175 79.3777H153.249C150.794 79.3777 148.786 77.3694 148.786 74.9147V65.9887C148.786 63.534 150.794 61.5256 153.249 61.5256H162.175C164.63 61.5256 166.638 63.534 166.638 65.9887V74.9147C166.638 77.3694 164.63 79.3777 162.175 79.3777Z" stroke="#444E59" stroke-width="2" stroke-linecap="round" stroke-linejoin="round" stroke-dasharray="4.08 4.08"/>
</g>
<g opacity="0.3">
<path opacity="0.3" d="M211.547 79.3775H202.621C200.167 79.3775 198.158 77.3691 198.158 74.9145V65.9884C198.158 63.5338 200.167 61.5254 202.621 61.5254H211.547C214.002 61.5254 216.01 63.5338 216.01 65.9884V74.9145C216.01 77.3691 214.002 79.3775 211.547 79.3775Z" stroke="#444E59" stroke-width="2" stroke-linecap="round" stroke-linejoin="round" stroke-dasharray="4.08 4.08"/>
</g>
<g opacity="0.3">
<path opacity="0.3" d="M187.001 79.3775H178.075C175.62 79.3775 173.612 77.3691 173.612 74.9145V65.9884C173.612 63.5338 175.62 61.5254 178.075 61.5254H187.001C189.455 61.5254 191.464 63.5338 191.464 65.9884V74.9145C191.464 77.3691 189.455 79.3775 187.001 79.3775Z" stroke="#444E59" stroke-width="2" stroke-linecap="round" stroke-linejoin="round" stroke-dasharray="4.08 4.08"/>
</g>
</g>
<g opacity="0.3">
<g opacity="0.3">
<path opacity="0.3" d="M162.175 52.5999H153.249C150.794 52.5999 148.786 50.5915 148.786 48.1369V39.2108C148.786 36.7562 150.794 34.7478 153.249 34.7478H162.175C164.63 34.7478 166.638 36.7562 166.638 39.2108V48.1369C166.638 50.5915 164.63 52.5999 162.175 52.5999Z" stroke="#444E59" stroke-width="2" stroke-linecap="round" stroke-linejoin="round" stroke-dasharray="4.08 4.08"/>
</g>
<g opacity="0.3">
<path opacity="0.3" d="M211.547 52.5994H202.621C200.167 52.5994 198.158 50.591 198.158 48.1364V39.2103C198.158 36.7557 200.167 34.7473 202.621 34.7473H211.547C214.002 34.7473 216.01 36.7557 216.01 39.2103V48.1364C216.01 50.591 214.002 52.5994 211.547 52.5994Z" stroke="#444E59" stroke-width="2" stroke-linecap="round" stroke-linejoin="round" stroke-dasharray="4.08 4.08"/>
</g>
<g opacity="0.3">
<path opacity="0.3" d="M187.001 52.5994H178.075C175.62 52.5994 173.612 50.591 173.612 48.1364V39.2103C173.612 36.7557 175.62 34.7473 178.075 34.7473H187.001C189.455 34.7473 191.464 36.7557 191.464 39.2103V48.1364C191.464 50.591 189.455 52.5994 187.001 52.5994Z" stroke="#444E59" stroke-width="2" stroke-linecap="round" stroke-linejoin="round" stroke-dasharray="4.08 4.08"/>
</g>
</g>
</g>
<path d="M162.175 132.934H153.249C150.794 132.934 148.786 130.926 148.786 128.471V119.545C148.786 117.09 150.794 115.082 153.249 115.082H162.175C164.63 115.082 166.638 117.09 166.638 119.545V128.471C166.638 130.926 164.63 132.934 162.175 132.934Z" fill="#71A850"/>
<path opacity="0.52" d="M162.175 115.082H153.249C151.464 115.082 149.902 116.142 149.232 117.648L166.638 120.772V119.545C166.638 117.09 164.63 115.082 162.175 115.082Z" fill="#5F8C42"/>
<path d="M162.175 132.934H153.249C150.794 132.934 148.786 130.926 148.786 128.471V119.545C148.786 117.09 150.794 115.082 153.249 115.082H162.175C164.63 115.082 166.638 117.09 166.638 119.545V128.471C166.638 130.926 164.63 132.934 162.175 132.934Z" stroke="#444E59" stroke-width="4" stroke-miterlimit="10" stroke-linecap="round" stroke-linejoin="round"/>
<path d="M187.001 132.934H178.075C175.62 132.934 173.612 130.926 173.612 128.471V119.545C173.612 117.09 175.62 115.082 178.075 115.082H187.001C189.455 115.082 191.464 117.09 191.464 119.545V128.471C191.464 130.926 189.455 132.934 187.001 132.934Z" fill="#F09F54"/>
<path opacity="0.52" d="M187.001 115.082H178.075C176.289 115.082 174.727 116.142 174.058 117.648L191.464 120.772V119.545C191.464 117.09 189.455 115.082 187.001 115.082Z" fill="#D38444"/>
<path d="M187.001 132.934H178.075C175.62 132.934 173.612 130.926 173.612 128.471V119.545C173.612 117.09 175.62 115.082 178.075 115.082H187.001C189.455 115.082 191.464 117.09 191.464 119.545V128.471C191.464 130.926 189.455 132.934 187.001 132.934Z" stroke="#444E59" stroke-width="4" stroke-miterlimit="10" stroke-linecap="round" stroke-linejoin="round"/>
<path d="M211.547 106.156H202.621C200.167 106.156 198.158 104.147 198.158 101.693V92.7665C198.158 90.3118 200.167 88.3035 202.621 88.3035H211.547C214.002 88.3035 216.01 90.3118 216.01 92.7665V101.693C216.01 104.147 214.002 106.156 211.547 106.156Z" fill="#2FA9ED"/>
<path opacity="0.52" d="M211.547 88.3035H202.621C200.836 88.3035 199.274 89.3634 198.605 90.8697L216.01 93.9938V92.7665C216.01 90.3118 214.002 88.3035 211.547 88.3035Z" fill="#288FBC"/>
<path d="M211.547 106.156H202.621C200.167 106.156 198.158 104.147 198.158 101.693V92.7665C198.158 90.3118 200.167 88.3035 202.621 88.3035H211.547C214.002 88.3035 216.01 90.3118 216.01 92.7665V101.693C216.01 104.147 214.002 106.156 211.547 106.156Z" stroke="#444E59" stroke-width="4" stroke-miterlimit="10" stroke-linecap="round" stroke-linejoin="round"/>
<path d="M187.001 79.3775H178.075C175.62 79.3775 173.612 77.3691 173.612 74.9145V65.9884C173.612 63.5338 175.62 61.5254 178.075 61.5254H187.001C189.455 61.5254 191.464 63.5338 191.464 65.9884V74.9145C191.464 77.3691 189.455 79.3775 187.001 79.3775Z" fill="#E7534E"/>
<path opacity="0.52" d="M187.001 61.5254H178.075C176.289 61.5254 174.727 62.5854 174.058 64.0916L191.464 67.2158V65.9884C191.464 63.5338 189.455 61.5254 187.001 61.5254Z" fill="#BF4040"/>
<path d="M187.001 79.3775H178.075C175.62 79.3775 173.612 77.3691 173.612 74.9145V65.9884C173.612 63.5338 175.62 61.5254 178.075 61.5254H187.001C189.455 61.5254 191.464 63.5338 191.464 65.9884V74.9145C191.464 77.3691 189.455 79.3775 187.001 79.3775Z" stroke="#444E59" stroke-width="4" stroke-miterlimit="10" stroke-linecap="round" stroke-linejoin="round"/>
<path d="M205.634 93.3249L210.766 96.2816C211.492 96.7279 211.492 97.7879 210.766 98.1784L205.634 101.135C204.909 101.581 203.96 101.024 203.96 100.187V94.2732C203.96 93.4364 204.909 92.8786 205.634 93.3249Z" fill="white"/>
<path d="M184.881 120.549H180.195C179.19 120.549 178.409 121.386 178.409 122.335V125.793C178.409 126.798 179.246 127.579 180.195 127.579H180.362L179.971 129.141C179.916 129.252 180.083 129.364 180.195 129.252L182.594 127.579H184.992C185.997 127.579 186.778 126.742 186.778 125.793V122.335C186.722 121.33 185.885 120.549 184.881 120.549Z" fill="white"/>
<path d="M154.253 124.008L156.317 126.073C156.596 126.351 157.043 126.351 157.322 126.073L161.952 121.442" stroke="white" stroke-width="4" stroke-miterlimit="10" stroke-linecap="round" stroke-linejoin="round"/>
<path d="M182.538 74.6355C184.848 74.6355 186.722 72.7622 186.722 70.4514C186.722 68.1406 184.848 66.2673 182.538 66.2673C180.227 66.2673 178.354 68.1406 178.354 70.4514C178.354 72.7622 180.227 74.6355 182.538 74.6355Z" stroke="white" stroke-width="4" stroke-miterlimit="10" stroke-linecap="round" stroke-linejoin="round"/>
<path d="M148.842 48.6943L148.73 40.3261L143.151 40.3819C142.817 39.322 142.426 38.3736 141.868 37.4252L145.774 33.4085L139.804 27.5507L135.899 31.5675C134.951 31.0654 133.947 30.6749 132.887 30.3959L132.831 24.8171L124.463 24.9287L124.518 30.5075C123.458 30.8422 122.51 31.2327 121.562 31.7906L117.545 27.8855L111.687 33.8548L115.704 37.7599C115.202 38.7083 114.811 39.7125 114.532 40.7725L108.954 40.8282L109.065 49.1964L114.644 49.1406C114.979 50.2006 115.369 51.149 115.927 52.0974L112.022 56.1141L117.991 61.9718L121.896 57.9551C122.845 58.4572 123.849 58.8477 124.909 59.1266L124.965 64.7054L133.333 64.5938L133.277 59.0151C134.337 58.6803 135.285 58.2898 136.234 57.7319L140.251 61.6371L146.108 55.6678L142.092 51.7626C142.594 50.8142 142.984 49.8101 143.263 48.7501L148.842 48.6943ZM129.037 51.2606C125.411 51.3163 122.51 48.4154 122.454 44.7892C122.398 41.163 125.299 38.262 128.926 38.2062C132.552 38.1504 135.453 41.0514 135.509 44.6776C135.509 48.3038 132.608 51.2048 129.037 51.2606Z" fill="white"/>
<path d="M148.842 48.6943L148.73 40.3261L143.151 40.3819C142.817 39.322 142.426 38.3736 141.868 37.4252L145.774 33.4085L139.804 27.5507L135.899 31.5675C134.951 31.0654 133.947 30.6749 132.887 30.3959L132.831 24.8171L124.463 24.9287L124.518 30.5075C123.458 30.8422 122.51 31.2327 121.562 31.7906L117.545 27.8855L111.687 33.8548L115.704 37.7599C115.202 38.7083 114.811 39.7125 114.532 40.7725L108.954 40.8282L109.065 49.1964L114.644 49.1406C114.979 50.2006 115.369 51.149 115.927 52.0974L112.022 56.1141L117.991 61.9718L121.896 57.9551C122.845 58.4572 123.849 58.8477 124.909 59.1266L124.965 64.7054L133.333 64.5938L133.277 59.0151C134.337 58.6803 135.285 58.2898 136.234 57.7319L140.251 61.6371L146.108 55.6678L142.092 51.7626C142.594 50.8142 142.984 49.8101 143.263 48.7501L148.842 48.6943ZM129.037 51.2606C125.411 51.3163 122.51 48.4154 122.454 44.7892C122.398 41.163 125.299 38.262 128.926 38.2062C132.552 38.1504 135.453 41.0514 135.509 44.6776C135.509 48.3038 132.608 51.2048 129.037 51.2606Z" fill="#F09F54"/>
<path d="M148.842 48.6943L148.73 40.3261L143.151 40.3819C142.817 39.322 142.426 38.3736 141.868 37.4252L145.774 33.4085L139.804 27.5507L135.899 31.5675C134.951 31.0654 133.947 30.6749 132.887 30.3959L132.831 24.8171L124.463 24.9287L124.518 30.5075C123.458 30.8422 122.51 31.2327 121.562 31.7906L117.545 27.8855L111.687 33.8548L115.704 37.7599C115.202 38.7083 114.811 39.7125 114.532 40.7725L108.954 40.8282L109.065 49.1964L114.644 49.1406C114.979 50.2006 115.369 51.149 115.927 52.0974L112.022 56.1141L117.991 61.9718L121.896 57.9551C122.845 58.4572 123.849 58.8477 124.909 59.1266L124.965 64.7054L133.333 64.5938L133.277 59.0151C134.337 58.6803 135.285 58.2898 136.234 57.7319L140.251 61.6371L146.108 55.6678L142.092 51.7626C142.594 50.8142 142.984 49.8101 143.263 48.7501L148.842 48.6943ZM129.037 51.2606C125.411 51.3163 122.51 48.4154 122.454 44.7892C122.398 41.163 125.299 38.262 128.926 38.2062C132.552 38.1504 135.453 41.0514 135.509 44.6776C135.509 48.3038 132.608 51.2048 129.037 51.2606Z" fill="#F09F54"/>
<g opacity="0.29">
<path opacity="0.29" d="M146.722 40.3822C146.722 40.3822 146.722 40.438 146.722 40.3822H148.786V40.3264L146.722 40.3822Z" fill="#F09F54"/>
<path opacity="0.29" d="M139.47 31.6232L141.645 29.3916L139.86 27.6064L136.959 30.5632C137.852 30.8421 138.688 31.1769 139.47 31.6232Z" fill="#F09F54"/>
<path opacity="0.29" d="M132.384 38.2061C131.771 38.2061 131.213 38.3176 130.711 38.4292C133.444 39.2102 135.453 41.6649 135.453 44.6217C135.509 47.6342 133.444 50.2004 130.711 50.9815C131.269 51.1488 131.938 51.2604 132.552 51.2046C136.178 51.1488 139.023 48.1921 139.023 44.6217C139.023 41.0512 136.011 38.2061 132.384 38.2061Z" fill="#F09F54"/>
<path opacity="0.29" d="M124.072 30.675L125.188 31.7349C126.136 31.2329 127.085 30.7866 128.145 30.4518L128.089 24.8731L132.887 24.8173V24.7615L124.518 24.8731L124.574 30.4518C124.463 30.5634 124.239 30.6192 124.072 30.675Z" fill="#F09F54"/>
<path opacity="0.29" d="M128.424 59.071C127.364 58.792 126.359 58.4015 125.411 57.8994L124.407 58.9594C124.574 59.0152 124.742 59.071 124.909 59.1268L124.965 64.7055L128.479 64.6497L128.424 59.071Z" fill="#F09F54"/>
<path opacity="0.29" d="M112.58 40.7726L118.159 40.7168C118.437 39.6569 118.828 38.6527 119.33 37.7043L115.313 33.7991L119.442 29.6151L117.656 27.8298L111.799 33.7991L115.815 37.7043C115.313 38.6527 114.923 39.6569 114.644 40.7168L109.065 40.7726L109.177 49.1408L112.691 49.085L112.58 40.7726Z" fill="#F09F54"/>
<path opacity="0.29" d="M139.748 57.7322C138.967 58.1785 138.186 58.5132 137.35 58.7921L140.251 61.6373L141.98 59.8521L139.748 57.7322Z" fill="#F09F54"/>
<path opacity="0.29" d="M115.592 56.0025L119.497 51.9858C118.995 51.0374 118.549 50.089 118.214 49.0291L114.7 49.0848C115.034 50.089 115.425 51.0932 115.927 51.9858L112.022 56.0025L117.991 61.8602L119.721 60.075L115.592 56.0025Z" fill="#F09F54"/>
</g>
<path d="M148.842 48.6943L148.73 40.3261L143.151 40.3819C142.817 39.322 142.426 38.3736 141.868 37.4252L145.774 33.4085L139.804 27.5507L135.899 31.5675C134.951 31.0654 133.947 30.6749 132.887 30.3959L132.831 24.8171L124.463 24.9287L124.518 30.5075C123.458 30.8422 122.51 31.2327 121.562 31.7906L117.545 27.8855L111.687 33.8548L115.704 37.7599C115.202 38.7083 114.811 39.7125 114.532 40.7725L108.954 40.8282L109.065 49.1964L114.644 49.1406C114.979 50.2006 115.369 51.149 115.927 52.0974L112.022 56.1141L117.991 61.9718L121.896 57.9551C122.845 58.4572 123.849 58.8477 124.909 59.1266L124.965 64.7054L133.333 64.5938L133.277 59.0151C134.337 58.6803 135.285 58.2898 136.234 57.7319L140.251 61.6371L146.108 55.6678L142.092 51.7626C142.594 50.8142 142.984 49.8101 143.263 48.7501L148.842 48.6943ZM129.037 51.2606C125.411 51.3163 122.51 48.4154 122.454 44.7892C122.398 41.163 125.299 38.262 128.926 38.2062C132.552 38.1504 135.453 41.0514 135.509 44.6776C135.509 48.3038 132.608 51.2048 129.037 51.2606Z" stroke="#444E59" stroke-width="4" stroke-miterlimit="10" stroke-linecap="round" stroke-linejoin="round"/>
<path d="M98.1038 169.364H29.0943C26.807 169.364 24.966 167.523 24.966 165.235V118.039C24.966 115.752 26.807 113.911 29.0943 113.911H98.1596C100.447 113.911 102.288 115.752 102.288 118.039V165.235C102.232 167.523 100.391 169.364 98.1038 169.364Z" fill="#444E59"/>
<path d="M102.232 122.893H24.966V118.039C24.966 115.752 26.807 113.911 29.0943 113.911H98.1596C100.447 113.911 102.288 115.752 102.288 118.039V122.893H102.232Z" fill="#BCBCBC"/>
<path d="M98.1038 169.364H29.0943C26.807 169.364 24.966 167.523 24.966 165.235V118.039C24.966 115.752 26.807 113.911 29.0943 113.911H98.1596C100.447 113.911 102.288 115.752 102.288 118.039V165.235C102.232 167.523 100.391 169.364 98.1038 169.364Z" stroke="#444E59" stroke-width="4" stroke-miterlimit="10" stroke-linecap="round" stroke-linejoin="round"/>
<path d="M98.1038 169.364H29.0943C26.807 169.364 24.966 167.523 24.966 165.235V118.039C24.966 115.752 26.807 113.911 29.0943 113.911H98.1596C100.447 113.911 102.288 115.752 102.288 118.039V165.235C102.232 167.523 100.391 169.364 98.1038 169.364Z" stroke="#444E59" stroke-width="4" stroke-miterlimit="10" stroke-linecap="round" stroke-linejoin="round"/>
<path d="M102.232 122.893H24.966V118.039C24.966 115.752 26.807 113.911 29.0943 113.911H98.1596C100.447 113.911 102.288 115.752 102.288 118.039V122.893H102.232Z" stroke="#444E59" stroke-width="4" stroke-miterlimit="10" stroke-linecap="round" stroke-linejoin="round"/>
<path d="M35.6215 162.278H44.3244" stroke="white" stroke-width="4" stroke-miterlimit="10" stroke-linecap="round" stroke-linejoin="round"/>
<path d="M29.4848 162.279H30.0985" stroke="white" stroke-width="4" stroke-miterlimit="10" stroke-linecap="round" stroke-linejoin="round"/>
<path d="M35.6215 157.481H57.6577" stroke="white" stroke-width="4" stroke-miterlimit="10" stroke-linecap="round" stroke-linejoin="round"/>
<path d="M29.4848 157.481H30.0985" stroke="white" stroke-width="4" stroke-miterlimit="10" stroke-linecap="round" stroke-linejoin="round"/>
<path d="M68.1458 152.627H74.1709" stroke="#64BDFF" stroke-width="4" stroke-miterlimit="10" stroke-linecap="round" stroke-linejoin="round"/>
<path d="M51.7442 152.627H62.9017" stroke="white" stroke-width="4" stroke-miterlimit="10" stroke-linecap="round" stroke-linejoin="round"/>
<path d="M35.6215 152.627H46.6675" stroke="#FF5F5F" stroke-width="4" stroke-miterlimit="10" stroke-linecap="round" stroke-linejoin="round"/>
<path d="M29.4848 152.627H30.0985" stroke="white" stroke-width="4" stroke-miterlimit="10" stroke-linecap="round" stroke-linejoin="round"/>
<path d="M54.1988 147.829H81.0885" stroke="white" stroke-width="4" stroke-miterlimit="10" stroke-linecap="round" stroke-linejoin="round"/>
<path d="M35.6215 147.829H49.68" stroke="#64BDFF" stroke-width="4" stroke-miterlimit="10" stroke-linecap="round" stroke-linejoin="round"/>
<path d="M29.4848 147.829H30.0985" stroke="white" stroke-width="4" stroke-miterlimit="10" stroke-linecap="round" stroke-linejoin="round"/>
<path d="M54.1988 143.031H64.2406" stroke="#FF5F5F" stroke-width="4" stroke-miterlimit="10" stroke-linecap="round" stroke-linejoin="round"/>
<path d="M35.6215 143.031H49.68" stroke="#FFBE78" stroke-width="4" stroke-miterlimit="10" stroke-linecap="round" stroke-linejoin="round"/>
<path d="M29.4848 143.031H30.0985" stroke="white" stroke-width="4" stroke-miterlimit="10" stroke-linecap="round" stroke-linejoin="round"/>
<path d="M56.1514 138.234H58.885" stroke="#64BDFF" stroke-width="4" stroke-miterlimit="10" stroke-linecap="round" stroke-linejoin="round"/>
<path d="M45.5517 138.234H51.7441" stroke="#FF5F5F" stroke-width="4" stroke-miterlimit="10" stroke-linecap="round" stroke-linejoin="round"/>
<path d="M35.6215 138.234H40.754" stroke="#C383F2" stroke-width="4" stroke-miterlimit="10" stroke-linecap="round" stroke-linejoin="round"/>
<path d="M29.4848 138.234H30.0985" stroke="white" stroke-width="4" stroke-miterlimit="10" stroke-linecap="round" stroke-linejoin="round"/>
<path d="M76.235 133.38H81.0885" stroke="#64BDFF" stroke-width="4" stroke-miterlimit="10" stroke-linecap="round" stroke-linejoin="round"/>
<path d="M51.0747 133.38H70.0983" stroke="#FF5F5F" stroke-width="4" stroke-miterlimit="10" stroke-linecap="round" stroke-linejoin="round"/>
<path d="M35.6215 133.38H46.9464" stroke="#FFBE78" stroke-width="4" stroke-miterlimit="10" stroke-linecap="round" stroke-linejoin="round"/>
<path d="M29.4848 133.38H30.0985" stroke="white" stroke-width="4" stroke-miterlimit="10" stroke-linecap="round" stroke-linejoin="round"/>
<path d="M64.2407 128.583H74.1709" stroke="#FFBE78" stroke-width="4" stroke-miterlimit="10" stroke-linecap="round" stroke-linejoin="round"/>
<path d="M51.7442 128.583H59.4429" stroke="#6DBF7B" stroke-width="4" stroke-miterlimit="10" stroke-linecap="round" stroke-linejoin="round"/>
<path d="M43.376 128.583H47.7274" stroke="#FFBE78" stroke-width="4" stroke-miterlimit="10" stroke-linecap="round" stroke-linejoin="round"/>
<path d="M35.6215 128.583H39.1919" stroke="#6DBF7B" stroke-width="4" stroke-miterlimit="10" stroke-linecap="round" stroke-linejoin="round"/>
<path d="M29.4848 128.583H30.0985" stroke="white" stroke-width="4" stroke-miterlimit="10" stroke-linecap="round" stroke-linejoin="round"/>
<path d="M32.6089 119.824C33.3792 119.824 34.0036 119.2 34.0036 118.429C34.0036 117.659 33.3792 117.035 32.6089 117.035C31.8387 117.035 31.2142 117.659 31.2142 118.429C31.2142 119.2 31.8387 119.824 32.6089 119.824Z" fill="#E7534E"/>
<path d="M37.6299 119.824C38.4001 119.824 39.0246 119.199 39.0246 118.429C39.0246 117.659 38.4001 117.034 37.6299 117.034C36.8596 117.034 36.2352 117.659 36.2352 118.429C36.2352 119.199 36.8596 119.824 37.6299 119.824Z" fill="#444E59"/>
<path d="M42.7065 119.824C43.4768 119.824 44.1012 119.199 44.1012 118.429C44.1012 117.659 43.4768 117.034 42.7065 117.034C41.9363 117.034 41.3118 117.659 41.3118 118.429C41.3118 119.199 41.9363 119.824 42.7065 119.824Z" fill="#444E59"/>
<path d="M141.478 127.802H91.492C89.0373 127.802 87.029 125.793 87.029 123.339V78.2062C87.029 75.7515 89.0373 73.7432 91.492 73.7432H141.478C143.933 73.7432 145.941 75.7515 145.941 78.2062V123.339C145.941 125.793 143.933 127.802 141.478 127.802Z" fill="white"/>
<path d="M141.478 127.802H91.492C89.0373 127.802 87.029 125.793 87.029 123.339V78.2062C87.029 75.7515 89.0373 73.7432 91.492 73.7432H141.478C143.933 73.7432 145.941 75.7515 145.941 78.2062V123.339C145.941 125.793 143.933 127.802 141.478 127.802Z" fill="white"/>
<path d="M141.478 127.802H91.492C89.0373 127.802 87.029 125.793 87.029 123.339V78.2062C87.029 75.7515 89.0373 73.7432 91.492 73.7432H141.478C143.933 73.7432 145.941 75.7515 145.941 78.2062V123.339C145.941 125.793 143.933 127.802 141.478 127.802Z" stroke="#444E59" stroke-width="4" stroke-miterlimit="10" stroke-linecap="round" stroke-linejoin="round"/>
<path d="M140.529 78.3179H92.1057V110.507H140.529V78.3179Z" fill="#9483C4"/>
<path d="M140.529 78.3179H92.1057V110.507H140.529V78.3179Z" stroke="#444E59" stroke-width="4" stroke-miterlimit="10" stroke-linecap="round" stroke-linejoin="round"/>
<path d="M92.1057 115.64H122.677" stroke="#444E59" stroke-width="4" stroke-miterlimit="10" stroke-linecap="round" stroke-linejoin="round"/>
<path d="M92.1057 120.772H110.181" stroke="#444E59" stroke-width="4" stroke-miterlimit="10" stroke-linecap="round" stroke-linejoin="round"/>
<path d="M96.9592 104.761L107.392 94.4404L117.099 104.147" stroke="#444E59" stroke-width="4" stroke-miterlimit="10" stroke-linecap="round" stroke-linejoin="round"/>
<path d="M135.285 104.761L122.677 88.3035L112.58 99.5726" stroke="#444E59" stroke-width="4" stroke-miterlimit="10" stroke-linecap="round" stroke-linejoin="round"/>
<path d="M135.174 120.716C136.684 120.716 137.907 119.492 137.907 117.983C137.907 116.473 136.684 115.249 135.174 115.249C133.664 115.249 132.44 116.473 132.44 117.983C132.44 119.492 133.664 120.716 135.174 120.716Z" stroke="#444E59" stroke-width="4" stroke-miterlimit="10" stroke-linecap="round" stroke-linejoin="round"/>
<path d="M110.46 91.7624C112.37 91.7624 113.919 90.2138 113.919 88.3036C113.919 86.3933 112.37 84.8447 110.46 84.8447C108.55 84.8447 107.001 86.3933 107.001 88.3036C107.001 90.2138 108.55 91.7624 110.46 91.7624Z" fill="#F09F54"/>
<path d="M110.46 91.7624C112.37 91.7624 113.919 90.2138 113.919 88.3036C113.919 86.3933 112.37 84.8447 110.46 84.8447C108.55 84.8447 107.001 86.3933 107.001 88.3036C107.001 90.2138 108.55 91.7624 110.46 91.7624Z" stroke="#444E59" stroke-width="4" stroke-miterlimit="10" stroke-linecap="round" stroke-linejoin="round"/>
<path d="M86.0806 57.8435H101.032" stroke="#444E59" stroke-width="4" stroke-miterlimit="10" stroke-linecap="round" stroke-linejoin="round"/>
<path d="M78.1029 57.8435H82.0639" stroke="#444E59" stroke-width="4" stroke-miterlimit="10" stroke-linecap="round" stroke-linejoin="round"/>
<path d="M93.5561 50.9255H101.032" stroke="#444E59" stroke-width="4" stroke-miterlimit="10" stroke-linecap="round" stroke-linejoin="round"/>
<path d="M87.5311 50.9255H89.7626" stroke="#444E59" stroke-width="4" stroke-miterlimit="10" stroke-linecap="round" stroke-linejoin="round"/>
<path d="M69.9021 101.581H81.5618" stroke="#444E59" stroke-width="4" stroke-miterlimit="10" stroke-linecap="round" stroke-linejoin="round"/>
<path d="M63.7097 101.581H66.778" stroke="#444E59" stroke-width="4" stroke-miterlimit="10" stroke-linecap="round" stroke-linejoin="round"/>
<path d="M76.8198 94.6638H81.5618" stroke="#444E59" stroke-width="4" stroke-miterlimit="10" stroke-linecap="round" stroke-linejoin="round"/>
<path d="M71.0179 94.6638H72.8031" stroke="#444E59" stroke-width="4" stroke-miterlimit="10" stroke-linecap="round" stroke-linejoin="round"/>
<path d="M255.843 20.6331H266.889" stroke="#444E59" stroke-width="4" stroke-miterlimit="10" stroke-linecap="round" stroke-linejoin="round"/>
<path d="M249.037 20.6331H252.161" stroke="#444E59" stroke-width="4" stroke-miterlimit="10" stroke-linecap="round" stroke-linejoin="round"/>
<path d="M262.147 13.7156H266.889" stroke="#444E59" stroke-width="4" stroke-miterlimit="10" stroke-linecap="round" stroke-linejoin="round"/>
<path d="M256.401 13.7156H258.13" stroke="#444E59" stroke-width="4" stroke-miterlimit="10" stroke-linecap="round" stroke-linejoin="round"/>
<path d="M264.434 59.6287H220.808C218.13 59.6287 216.01 57.453 216.01 54.831V33.6874C216.01 31.0096 218.186 28.8896 220.808 28.8896H264.434C267.112 28.8896 269.232 31.0654 269.232 33.6874V54.7752C269.232 57.453 267.112 59.6287 264.434 59.6287Z" fill="#2FA9ED"/>
<path d="M264.434 59.6287H220.808C218.13 59.6287 216.01 57.453 216.01 54.831V33.6874C216.01 31.0096 218.186 28.8896 220.808 28.8896H264.434C267.112 28.8896 269.232 31.0654 269.232 33.6874V54.7752C269.232 57.453 267.112 59.6287 264.434 59.6287Z" stroke="#444E59" stroke-width="3" stroke-miterlimit="10" stroke-linecap="round" stroke-linejoin="round"/>
<path opacity="0.56" d="M242.621 37.1462H261.477" stroke="white" stroke-width="3" stroke-miterlimit="10" stroke-linecap="round" stroke-linejoin="round"/>
<path opacity="0.56" d="M242.621 43.2271H255.118" stroke="white" stroke-width="3" stroke-miterlimit="10" stroke-linecap="round" stroke-linejoin="round"/>
<g opacity="0.56">
<path opacity="0.56" d="M252.105 52.3204H244.518C243.514 52.3204 242.677 51.4836 242.677 50.4794C242.677 49.4753 243.514 48.6384 244.518 48.6384H252.105C253.109 48.6384 253.946 49.4753 253.946 50.4794C253.946 51.4836 253.165 52.3204 252.105 52.3204Z" fill="white"/>
<path opacity="0.56" d="M252.105 52.3204H244.518C243.514 52.3204 242.677 51.4836 242.677 50.4794C242.677 49.4753 243.514 48.6384 244.518 48.6384H252.105C253.109 48.6384 253.946 49.4753 253.946 50.4794C253.946 51.4836 253.165 52.3204 252.105 52.3204Z" stroke="white" stroke-width="3" stroke-miterlimit="10" stroke-linecap="round" stroke-linejoin="round"/>
</g>
<path d="M234.755 52.5995H224.769C223.319 52.5995 222.203 51.428 222.203 50.0333V38.3736C222.203 36.9231 223.374 35.8074 224.769 35.8074H234.755C236.206 35.8074 237.321 36.9789 237.321 38.3736V50.0333C237.321 51.428 236.206 52.5995 234.755 52.5995Z" stroke="white" stroke-width="3" stroke-miterlimit="10" stroke-linecap="round" stroke-linejoin="round"/>
<path d="M229.79 44.9567C231.269 44.9567 232.468 43.7578 232.468 42.2789C232.468 40.8 231.269 39.6011 229.79 39.6011C228.311 39.6011 227.112 40.8 227.112 42.2789C227.112 43.7578 228.311 44.9567 229.79 44.9567Z" stroke="white" stroke-width="3" stroke-miterlimit="10" stroke-linecap="round" stroke-linejoin="round"/>
<path d="M224.713 52.3208C224.713 49.5314 227.001 47.2441 229.79 47.2441C232.579 47.2441 234.867 49.5314 234.867 52.3208" stroke="white" stroke-width="3" stroke-miterlimit="10" stroke-linecap="round" stroke-linejoin="round"/>
</svg>
