<svg width="59" height="48" viewBox="0 0 59 48" fill="none" xmlns="http://www.w3.org/2000/svg">
<path d="M71.9545 24.4409C72.0094 25.1461 71.9957 25.8549 71.9136 26.5574C71.5826 29.207 70.307 31.6484 68.3211 33.4335C66.2774 35.2298 64.8399 34.6848 62.3283 35.1321C61.3132 35.3101 60.268 35.1788 59.3285 34.7552C59.4602 38.6338 57.9365 41.7948 54.8731 44.177C48.5942 49.048 41.2252 47.0246 36.3224 41.486C34.0697 45.5849 30.6248 48.5915 25.6221 47.7377C21.3211 47.0042 17.7286 43.2164 17.22 38.8813C15.4033 39.5626 13.2982 39.2447 11.5428 38.3931C9.78744 37.5415 8.30456 36.2176 6.9148 34.846C5.2389 33.1951 3.61751 31.4102 2.68646 29.2506C2.05516 27.7859 2.05289 26.2871 2.03472 24.7248C2.03472 24.4659 2.54339 20.5419 2.99756 20.9234C-3.88541 15.144 2.80227 4.47099 9.97365 2.88138C13.1529 2.17514 16.7022 2.9427 19.1184 5.13408C22.064 3.14646 25.3645 1.74407 28.84 1.00338C33.6428 -0.0207787 38.7931 -0.413635 43.5279 1.14418C44.7314 1.53931 45.7851 2.14563 46.9342 2.66565C48.3239 3.29695 48.5465 2.74286 49.993 2.27733C52.4228 1.49616 55.1138 1.74823 57.5232 2.48171C60.0983 3.26516 62.8211 5.03189 63.0096 7.71832C65.7573 7.52983 68.6436 8.73566 70.1514 11.0383C71.6593 13.341 71.514 16.7018 69.5633 18.6434C69.9198 18.2892 71.5798 21.968 71.6548 22.3109C71.8066 23.0126 71.9068 23.7245 71.9545 24.4409Z" fill="white"/>
<path d="M36.5791 0.00182343C33.9664 0.0327415 31.3642 0.337185 28.815 0.910168C25.356 1.65266 22.069 3.04346 19.1275 5.00907C16.7636 2.90625 13.2551 2.05695 9.94871 2.78817C5.63407 3.7442 1.39892 8.04975 0.286197 12.5915C-0.510875 15.8252 0.370219 18.7773 2.76371 20.871C2.27547 21.4228 1.91895 24.5907 1.92122 24.7315V24.8405C1.93938 26.3892 1.95755 27.8494 2.58204 29.3027C3.53126 31.4941 5.18671 33.3108 6.83536 34.9277C8.20241 36.2629 9.708 37.6413 11.4906 38.502C13.4095 39.4308 15.4533 39.6374 17.1269 39.0447C17.6992 43.3594 21.3189 47.1222 25.604 47.8557C29.955 48.5982 33.6678 46.4659 36.3452 41.6857C38.8295 44.438 41.9201 46.2774 45.0607 46.8474C48.5397 47.4787 51.946 46.5862 54.9413 44.2677C58.0115 41.8856 59.5261 38.745 59.4466 34.9299C60.3652 35.3058 61.3712 35.4144 62.3488 35.2433C62.9809 35.1338 63.6184 35.058 64.2586 35.0162C65.7415 34.9049 66.911 34.8186 68.3961 33.5061C70.4014 31.7015 71.691 29.236 72.0295 26.5595C72.1124 25.8495 72.1261 25.1331 72.0704 24.4204H71.9568H72.0704C72.0179 23.7017 71.9147 22.9876 71.7615 22.2835C71.7025 22.0155 70.4126 19.0475 69.7836 18.5706C71.5776 16.6291 71.791 13.3477 70.2378 10.9746C68.7844 8.75372 65.9958 7.43661 63.105 7.59558C62.9233 5.81068 61.3769 3.53528 57.5459 2.3726C55.618 1.78672 52.734 1.2735 49.9499 2.16822C49.6224 2.27555 49.301 2.40063 48.9871 2.54291C48.2922 2.84948 47.9425 2.99709 46.9728 2.56108C46.6163 2.39985 46.262 2.22499 45.9214 2.05695C45.1595 1.6622 44.3711 1.32075 43.562 1.03506C41.3043 0.320652 38.9469 -0.0281601 36.5791 0.00182343ZM19.1184 5.25659C19.1408 5.25585 19.1626 5.24961 19.182 5.23843C22.1169 3.26179 25.4028 1.86507 28.8627 1.12362C34.667 -0.113995 39.454 -0.0685768 43.4939 1.25988C44.29 1.54241 45.0655 1.88007 45.8147 2.27041C46.1576 2.43845 46.5118 2.61331 46.8729 2.77681C47.9334 3.2605 48.3626 3.07203 49.0734 2.76092C49.379 2.6218 49.6921 2.49975 50.0112 2.39531C52.7363 1.51648 55.5748 2.02061 57.4733 2.59968C61.2747 3.75555 62.7598 6.00597 62.8825 7.7341C62.8833 7.74902 62.8871 7.76362 62.8937 7.77707C62.9002 7.79052 62.9093 7.80254 62.9205 7.81245C62.9317 7.82237 62.9447 7.82998 62.9588 7.83485C62.9729 7.83972 62.9879 7.84175 63.0028 7.84083C65.8505 7.64553 68.6141 8.92857 70.0425 11.1109C71.5753 13.4476 71.3232 16.7267 69.4702 18.5729C69.4596 18.5835 69.4511 18.596 69.4454 18.6099C69.4396 18.6237 69.4366 18.6385 69.4366 18.6535C69.4366 18.6685 69.4396 18.6834 69.4454 18.6972C69.4511 18.711 69.4596 18.7236 69.4702 18.7341C69.4893 18.7528 69.5143 18.7642 69.5408 18.7662C69.5674 18.7683 69.5938 18.761 69.6155 18.7455C69.988 18.8681 71.4322 21.8838 71.5299 22.3425C71.6826 23.0359 71.7844 23.7394 71.8342 24.4476C71.8899 25.1459 71.8762 25.848 71.7933 26.5436C71.4665 29.1685 70.2038 31.5874 68.2371 33.3562C66.811 34.6165 65.6756 34.7028 64.2359 34.8096C63.5874 34.8509 62.9416 34.9267 62.3011 35.0367C61.3089 35.21 60.2874 35.081 59.3694 34.6665C59.3517 34.6582 59.3321 34.6547 59.3125 34.6563C59.293 34.6578 59.2742 34.6644 59.258 34.6754C59.2418 34.6864 59.2286 34.7014 59.2199 34.7189C59.2112 34.7364 59.2072 34.7559 59.2082 34.7755C59.3376 38.5928 57.8457 41.7311 54.7959 44.1042C51.8597 46.3751 48.5034 47.2607 45.0948 46.6407C41.9656 46.0549 38.8772 44.2109 36.4088 41.4155C36.3963 41.4024 36.3811 41.3921 36.3642 41.3854C36.3473 41.3788 36.3292 41.3759 36.3111 41.3769C36.2928 41.3791 36.2752 41.3856 36.2598 41.3959C36.2444 41.4061 36.2317 41.4198 36.2226 41.4359C32.898 47.481 28.6333 48.1418 25.6426 47.6308C21.4052 46.9087 17.8331 43.1436 17.3335 38.8744C17.3316 38.8574 17.3258 38.841 17.3165 38.8266C17.3072 38.8121 17.2947 38.8 17.28 38.7912C17.2653 38.7825 17.2487 38.7772 17.2316 38.7758C17.2145 38.7745 17.1973 38.7772 17.1814 38.7836C15.5418 39.4012 13.5049 39.215 11.5905 38.3067C9.84198 37.4506 8.34548 36.0994 6.99432 34.7641C5.36157 33.1564 3.72428 31.3579 2.79096 29.2051C2.18464 27.7949 2.16647 26.3552 2.1483 24.8314V24.7224C2.1483 24.3182 2.62064 21.2298 2.93175 21.0164C2.9548 21.0329 2.98319 21.0402 3.01135 21.0368C3.03951 21.0334 3.06539 21.0197 3.0839 20.9982C3.10312 20.9749 3.11246 20.9449 3.10991 20.9148C3.10736 20.8847 3.09314 20.8567 3.07027 20.837C0.624555 18.7773 -0.283789 15.8706 0.506471 12.646C1.60103 8.18146 5.77032 3.94858 9.99866 3.01071C13.2642 2.28631 16.7295 3.14015 19.0412 5.23615C19.0636 5.25209 19.0911 5.25935 19.1184 5.25659Z" fill="#D1D3D4"/>
<path d="M25.5858 13.3272C23.2673 13.3272 23.2537 13.6656 22.8222 14.9168C22.0456 17.174 20.5786 18.9067 19.048 20.6848C13.3709 27.2703 15.3102 37.5732 24.9704 39.3058C31.5196 40.489 36.9946 37.0236 38.1164 30.6493C38.6728 27.486 37.9688 24.4839 36.1976 21.8248C34.9917 20.0081 33.9971 18.1755 33.6497 15.9977C33.4226 14.5943 33.5293 13.7655 31.0654 13.7655C30.173 13.7655 29.2828 13.627 28.3926 13.552C27.457 13.4998 26.5237 13.3272 25.5858 13.3272Z" fill="white"/>
<path d="M25.5858 13.2251C23.3672 13.2251 23.1833 13.5135 22.7654 14.742L22.7155 14.8941C21.9298 17.1786 20.4196 18.9295 18.9617 20.6235C15.9801 24.0843 14.9923 28.6783 16.3866 32.6137C17.6764 36.247 20.7171 38.6791 24.95 39.4444C28.295 40.0462 31.4765 39.4444 33.9063 37.7526C36.2021 36.163 37.6986 33.7105 38.2209 30.6948C38.7673 27.5865 38.0726 24.3878 36.2861 21.7862C35.2393 20.217 34.122 18.305 33.7541 16.0046C33.736 15.8888 33.7201 15.7775 33.7042 15.6662C33.5293 14.4695 33.4158 13.677 31.0586 13.677C30.4512 13.6659 29.8448 13.6227 29.2419 13.5475C28.9581 13.518 28.6765 13.4885 28.3926 13.4635C28.0747 13.4362 27.7591 13.4022 27.4411 13.3658C26.8259 13.2836 26.2065 13.2366 25.5858 13.2251ZM27.4548 39.4421C26.6283 39.4406 25.8037 39.3646 24.9909 39.215C20.842 38.4657 17.8626 36.0926 16.5887 32.5319C15.2262 28.6714 16.1936 24.1661 19.123 20.7666C20.5945 19.0566 22.1182 17.2899 22.9176 14.9623L22.9698 14.8101C23.3445 13.7087 23.4353 13.4476 25.5745 13.4476C26.1897 13.4595 26.8038 13.5058 27.4139 13.5861C27.7318 13.6225 28.052 13.6588 28.3722 13.686C28.6538 13.7087 28.9354 13.7383 29.2169 13.7701C29.8266 13.8454 30.4399 13.8886 31.0541 13.8995C33.2137 13.8995 33.3 14.499 33.4748 15.6957C33.4907 15.8047 33.5066 15.9228 33.527 16.0364C33.8995 18.3776 35.0326 20.3192 36.0931 21.9088C37.8984 24.618 38.5366 27.5587 37.9938 30.6516C37.4738 33.6037 36.0114 35.995 33.7655 37.5619C31.9045 38.8208 29.7014 39.4773 27.4548 39.4421Z" fill="#231F20"/>
<path d="M24.4949 10.5177L32.7803 11.2018C33.1253 11.2303 33.3818 11.5331 33.3533 11.8781L33.2328 13.3378C33.2043 13.6828 32.9016 13.9393 32.5566 13.9108L24.2712 13.2267C23.9262 13.1983 23.6696 12.8955 23.6981 12.5505L23.8186 11.0908C23.8471 10.7458 24.1499 10.4893 24.4949 10.5177Z" fill="white"/>
<path d="M24.4414 10.4C24.2552 10.4 24.0759 10.4701 23.9392 10.5964C23.8024 10.7226 23.7182 10.8957 23.7033 11.0813L23.583 12.5392C23.5752 12.6364 23.5867 12.7342 23.6167 12.827C23.6468 12.9198 23.6948 13.0057 23.758 13.08C23.8213 13.1542 23.8986 13.2152 23.9854 13.2596C24.0723 13.304 24.167 13.3308 24.2642 13.3385L32.5483 14.0198C32.7445 14.0349 32.9387 13.9717 33.0885 13.844C33.2383 13.7164 33.3315 13.5346 33.3477 13.3385L33.468 11.8806C33.4758 11.7834 33.4643 11.6856 33.4343 11.5928C33.4043 11.5 33.3562 11.4141 33.293 11.3398C33.2297 11.2656 33.1525 11.2046 33.0656 11.1602C32.9787 11.1159 32.884 11.089 32.7868 11.0813L24.5027 10.4H24.4414ZM32.6051 13.7972H32.5642L24.2801 13.116C24.2129 13.1105 24.1473 13.0919 24.0873 13.0611C24.0272 13.0303 23.9738 12.9879 23.9302 12.9364C23.8865 12.885 23.8534 12.8254 23.8328 12.7611C23.8122 12.6969 23.8045 12.6292 23.8101 12.5619L23.9304 11.104C23.942 10.9684 24.0068 10.8428 24.1106 10.7547C24.2144 10.6667 24.3488 10.6232 24.4845 10.6339L32.7686 11.3152C32.8359 11.3206 32.9014 11.3393 32.9615 11.3701C33.0215 11.4009 33.0749 11.4433 33.1186 11.4947C33.1623 11.5462 33.1953 11.6058 33.2159 11.67C33.2365 11.7343 33.2443 11.802 33.2387 11.8693L33.1161 13.3272C33.1052 13.4553 33.0467 13.5747 32.9521 13.6617C32.8575 13.7488 32.7337 13.7971 32.6051 13.7972Z" fill="#231F20"/>
<path d="M24.72 7.81072L33.0054 8.49481C33.3504 8.5233 33.607 8.82604 33.5785 9.17102L33.458 10.6308C33.4295 10.9757 33.1267 11.2323 32.7818 11.2038L24.4963 10.5197C24.1514 10.4912 23.8948 10.1885 23.9233 9.84351L24.0438 8.38377C24.0723 8.0388 24.375 7.78223 24.72 7.81072Z" fill="white"/>
<path d="M24.6661 7.69088C24.48 7.69086 24.3006 7.76096 24.1639 7.88721C24.0271 8.01346 23.9429 8.1866 23.9281 8.37214L23.8077 9.8323C23.8 9.9294 23.8114 10.0271 23.8415 10.1197C23.8716 10.2124 23.9196 10.2982 23.9829 10.3722C24.0462 10.4463 24.1235 10.5071 24.2103 10.5512C24.2972 10.5954 24.3918 10.6219 24.489 10.6294L32.7731 11.3106C32.8703 11.3184 32.9681 11.3069 33.0609 11.2769C33.1537 11.2469 33.2396 11.1988 33.3139 11.1356C33.3881 11.0723 33.4491 10.9951 33.4935 10.9082C33.5378 10.8213 33.5647 10.7266 33.5724 10.6294L33.6928 9.16921C33.7005 9.07199 33.6891 8.97419 33.659 8.8814C33.629 8.78862 33.581 8.70265 33.5177 8.62842C33.4544 8.5542 33.3772 8.49316 33.2903 8.4488C33.2035 8.40443 33.1087 8.37761 33.0115 8.36987L24.7274 7.68861H24.6661V7.69088ZM32.8298 11.0881H32.7867L24.5026 10.4068C24.3671 10.3953 24.2418 10.3304 24.1541 10.2266C24.0664 10.1227 24.0235 9.98822 24.0348 9.85274L24.1552 8.39258C24.1667 8.25711 24.2316 8.13177 24.3354 8.04407C24.4393 7.95636 24.5738 7.91346 24.7092 7.92478L32.9933 8.60604C33.0605 8.61147 33.126 8.63014 33.1859 8.66098C33.2458 8.69181 33.2991 8.73421 33.3426 8.78571C33.3861 8.83721 33.4189 8.89681 33.4393 8.96107C33.4596 9.02533 33.467 9.09298 33.4611 9.16013L33.3408 10.6203C33.3289 10.7478 33.2701 10.8663 33.1756 10.9528C33.0812 11.0393 32.9579 11.0875 32.8298 11.0881Z" fill="#231F20"/>
<path d="M25.1635 7.84324C25.2475 6.82136 26.9801 6.13101 29.0126 6.30133C31.045 6.47164 32.6459 7.43676 32.5574 8.4541L25.1635 7.84324Z" fill="#231F20"/>
<path d="M28.3881 6.16033C26.5487 6.16033 25.1317 6.84159 25.0499 7.83396C25.048 7.86396 25.0578 7.89352 25.0773 7.91641C25.0968 7.93929 25.1245 7.9537 25.1544 7.95658L32.5483 8.55836C32.5783 8.56027 32.6079 8.55043 32.6307 8.53094C32.6536 8.51145 32.668 8.48382 32.6709 8.4539C32.7618 7.3548 31.1585 6.35335 29.0217 6.18304C28.8067 6.1679 28.5955 6.16033 28.3881 6.16033ZM25.2929 7.74993C25.3815 7.34572 25.7675 6.99147 26.3965 6.7394C27.2306 6.43906 28.1217 6.33039 29.0035 6.42148C30.8997 6.57817 32.3984 7.4252 32.4461 8.34036L25.2929 7.74993Z" fill="#231F20"/>
<path d="M26.0173 14.7079C26.0022 14.7088 25.9874 14.7127 25.9738 14.7193C25.9602 14.726 25.948 14.7353 25.9381 14.7467C25.9281 14.7582 25.9206 14.7715 25.9159 14.7859C25.9111 14.8003 25.9093 14.8155 25.9106 14.8306C26.0929 17.1879 25.9808 19.5588 25.5768 21.8884C24.9672 22.0243 24.3763 22.2332 23.8168 22.5106C22.8364 22.9588 22.0067 23.6813 21.4279 24.5907C20.8397 25.5853 20.7466 26.7821 21.1645 27.7131C21.2235 27.8731 21.3215 28.0158 21.4496 28.1284C21.5777 28.241 21.7318 28.32 21.898 28.3581C22.5997 28.4989 23.3559 27.8585 23.5693 27.6586C24.9046 26.4188 25.3315 24.2864 25.6744 22.5742L25.7176 22.3471L25.7721 22.0678C26.8867 21.8385 28.0364 21.8385 29.1511 22.0678C29.1767 22.6342 29.2373 23.1984 29.3328 23.7573C29.6439 25.574 30.1162 26.9252 30.7407 27.7586C30.9404 27.9877 31.185 28.1735 31.4594 28.3043C31.7337 28.4351 32.0321 28.5082 32.3358 28.5191C32.6396 28.5299 32.9424 28.4783 33.2254 28.3674C33.5084 28.2565 33.7657 28.0887 33.9812 27.8744C34.2287 27.5574 34.392 27.183 34.4559 26.7859C34.5199 26.3889 34.4823 25.9821 34.3468 25.6035C34.074 24.8652 33.6073 24.2141 32.9957 23.7187C31.958 22.8114 30.7084 22.1804 29.3623 21.8838C29.2805 19.697 29.6507 17.4943 30.0117 15.3483L30.0572 15.0803C30.0618 15.0506 30.0547 15.0202 30.0373 14.9956C30.0199 14.971 29.9937 14.9542 29.9641 14.9486C29.9346 14.944 29.9045 14.9512 29.8802 14.9686C29.856 14.9861 29.8396 15.0123 29.8346 15.0417L29.7892 15.3097C29.4281 17.4489 29.0603 19.6471 29.1329 21.8339C28.0353 21.6132 26.9052 21.6094 25.8061 21.8225C26.2013 19.5034 26.3096 17.1444 26.1286 14.7988C26.123 14.7733 26.1089 14.7505 26.0887 14.734C26.0685 14.7175 26.0434 14.7083 26.0173 14.7079ZM22.0933 28.1514C22.0399 28.1507 21.9867 28.1454 21.9343 28.1355C21.8041 28.1033 21.684 28.0393 21.5845 27.9494C21.4851 27.8594 21.4094 27.7463 21.3643 27.62C21.1732 27.149 21.0964 26.6394 21.1402 26.133C21.1841 25.6266 21.3472 25.1377 21.6164 24.7065C22.1744 23.8353 22.9714 23.1431 23.9122 22.7127C24.4264 22.4597 24.9672 22.2647 25.5245 22.1314C25.5132 22.1904 25.4995 22.2517 25.4882 22.3108L25.445 22.5379C25.1067 24.2183 24.6889 26.3075 23.4013 27.4997C23.0516 27.8244 22.5383 28.1514 22.0933 28.1514ZM32.4166 28.3149H32.3326C32.0617 28.3142 31.7942 28.2538 31.5493 28.138C31.3044 28.0222 31.088 27.8539 30.9155 27.645C30.3138 26.8389 29.8551 25.5263 29.553 23.7414C29.4644 23.2108 29.406 22.6755 29.3782 22.1382C30.6612 22.434 31.8514 23.0416 32.8435 23.9072C33.4242 24.3772 33.868 24.9943 34.1288 25.6944C34.2505 26.0346 34.285 26.4 34.229 26.757C34.1731 27.1141 34.0286 27.4514 33.8086 27.7381C33.6306 27.9273 33.4145 28.0766 33.1745 28.176C32.9346 28.2754 32.6762 28.3228 32.4166 28.3149Z" fill="#D1D3D4"/>
<path d="M35.5186 14.1765C35.6117 14.5376 35.7002 14.8964 35.7956 15.2552C35.8456 15.4414 35.9046 15.6253 35.9636 15.8093C35.9935 15.9248 36.0626 16.0263 36.1592 16.0963C36.2558 16.1663 36.3737 16.2005 36.4928 16.1931C36.7789 16.1931 37.0627 16.1476 37.3489 16.1249C37.4992 16.1031 37.6513 16.0955 37.803 16.1022C37.9165 16.1076 38.0247 16.1517 38.1096 16.2271C38.4094 16.5632 38.6955 16.9084 38.9771 17.2626C39.0237 17.3276 39.0535 17.403 39.0638 17.4823C39.0741 17.5615 39.0646 17.6421 39.0361 17.7168C38.9385 18.0552 38.8272 18.3981 38.7296 18.7251C38.688 18.8552 38.6651 18.9905 38.6614 19.127C38.6613 19.1772 38.6711 19.2268 38.6902 19.2732C38.7093 19.3196 38.7373 19.3617 38.7727 19.3972C39.2684 19.78 39.8188 20.0862 40.4054 20.3056C40.4917 20.341 40.5873 20.3468 40.6773 20.3222C40.7673 20.2975 40.8465 20.2438 40.9028 20.1693C41.1435 19.89 41.3933 19.6175 41.6249 19.3314C41.7002 19.2212 41.8062 19.1356 41.9297 19.0851C42.0533 19.0347 42.1889 19.0216 42.3198 19.0475C42.6899 19.1043 43.0669 19.1406 43.4393 19.1883C43.5078 19.1971 43.5731 19.2224 43.6296 19.2619C43.6862 19.3015 43.7323 19.3541 43.764 19.4154C43.8821 19.6243 43.9911 19.8378 44.1069 20.0467C44.2228 20.2556 44.3022 20.4078 44.409 20.5849C44.4531 20.6758 44.5278 20.7483 44.6199 20.7898C44.712 20.8313 44.8158 20.8392 44.9131 20.812C45.4468 20.6735 45.9804 20.5304 46.5027 20.3737C46.6033 20.3432 46.6901 20.2788 46.7485 20.1914C46.8069 20.1041 46.8332 19.9991 46.8229 19.8946C46.8229 19.6039 46.7752 19.3155 46.7525 19.0248C46.7411 18.8886 46.7321 18.7523 46.7321 18.6138C46.7297 18.5269 46.7475 18.4406 46.7841 18.3618C46.8208 18.283 46.8753 18.2138 46.9433 18.1596C47.2385 17.9325 47.5359 17.6896 47.8198 17.442C47.9024 17.3666 48.004 17.3153 48.1138 17.2936C48.2235 17.272 48.337 17.2809 48.442 17.3194C48.8076 17.4284 49.1687 17.5465 49.5343 17.6578C49.6526 17.7083 49.786 17.7109 49.9062 17.6652C50.0265 17.6194 50.1243 17.5289 50.1792 17.4125C50.4268 16.9856 50.6652 16.5564 50.8968 16.1204C50.9397 16.0628 50.9703 15.997 50.9869 15.9271C51.0035 15.8573 51.0057 15.7847 50.9934 15.714C50.9811 15.6433 50.9545 15.5758 50.9152 15.5156C50.876 15.4555 50.8249 15.404 50.7651 15.3642C50.5857 15.1984 50.3904 15.0508 50.2065 14.8896C50.0748 14.776 49.9453 14.6625 49.8227 14.5308C49.77 14.4794 49.7298 14.4167 49.705 14.3475C49.6802 14.2782 49.6715 14.2042 49.6796 14.1311C49.7205 13.7451 49.7568 13.3568 49.8068 12.9684C49.8173 12.863 49.8553 12.7622 49.9171 12.6761C49.9789 12.59 50.0623 12.5216 50.1588 12.4779C50.3859 12.3667 50.613 12.2622 50.8264 12.1487C50.9655 12.081 51.1005 12.0052 51.2306 11.9216C51.3272 11.8727 51.4032 11.7909 51.4448 11.691C51.4865 11.5911 51.491 11.4796 51.4577 11.3766C51.329 10.8906 51.189 10.4054 51.0376 9.92095C51.0125 9.84805 50.9798 9.77802 50.94 9.71203C50.9038 9.63325 50.8438 9.56783 50.7684 9.52504C50.693 9.48225 50.606 9.46425 50.5199 9.47359L49.4957 9.55988C49.4707 9.55988 49.4435 9.55988 49.4185 9.55988C49.2747 9.58641 49.1263 9.56896 48.9926 9.50981C48.8589 9.45066 48.7462 9.35256 48.6691 9.22833C48.4965 8.98762 48.2967 8.77416 48.1082 8.54708C48.0206 8.44615 47.9623 8.32321 47.9395 8.19154C47.9166 8.05987 47.9302 7.92447 47.9788 7.79996C48.0878 7.47977 48.1945 7.15958 48.2876 6.83485C48.3807 6.51012 48.3307 6.33526 48.0242 6.15359C47.5836 5.89698 47.1363 5.654 46.6844 5.41783C46.5862 5.35053 46.4655 5.32448 46.3482 5.34529C46.231 5.3661 46.1267 5.43211 46.0576 5.5291C45.8578 5.74256 45.6738 5.96965 45.4876 6.19219C45.0857 6.67362 44.9903 6.70995 44.3681 6.63047L43.6414 6.53055C43.5258 6.51908 43.415 6.4782 43.3196 6.41182C43.2242 6.34545 43.1474 6.25577 43.0964 6.15132C42.967 5.89471 42.8466 5.63356 42.7104 5.3815C42.638 5.25057 42.5536 5.12666 42.4583 5.01135C42.4166 4.95273 42.3576 4.90869 42.2896 4.88547C42.2215 4.86224 42.1479 4.86099 42.0791 4.88191C41.5749 5.02497 41.0685 5.16804 40.5621 5.31564C40.4934 5.33827 40.4277 5.36956 40.3668 5.40875C40.2887 5.4463 40.2245 5.5076 40.1833 5.58387C40.1421 5.66013 40.1261 5.74747 40.1375 5.8334C40.1647 6.17176 40.1943 6.51466 40.2215 6.84393C40.2215 6.94839 40.2215 7.05058 40.2215 7.15277C40.2242 7.23673 40.2071 7.32014 40.1716 7.39627C40.1361 7.4724 40.0832 7.53912 40.0171 7.59105C39.731 7.81813 39.4471 8.04522 39.161 8.2723C39.0802 8.33976 38.9828 8.38422 38.8789 8.401C38.775 8.41778 38.6685 8.40627 38.5706 8.36768C38.2504 8.26095 37.9257 8.1633 37.6032 8.06111L37.5669 8.04976C37.1422 7.93848 36.9992 7.98163 36.7812 8.36314C36.5404 8.78552 36.3156 9.21925 36.0999 9.65526C36.0337 9.75584 36.0101 9.87861 36.0344 9.99657C36.0586 10.1145 36.1288 10.218 36.2293 10.2843C36.4746 10.5114 36.7267 10.7203 36.9901 10.9201C37.1181 11.0074 37.2177 11.1303 37.2766 11.2735C37.3356 11.4168 37.3512 11.5742 37.3216 11.7263C37.2694 12.0737 37.2331 12.4234 37.1876 12.7709C37.1818 12.8434 37.158 12.9134 37.1183 12.9745C37.0787 13.0355 37.0245 13.0857 36.9605 13.1206C36.654 13.2841 36.3451 13.4431 36.0522 13.6088C35.8374 13.6958 35.6609 13.8569 35.5549 14.063L35.5186 14.1765ZM46.807 13.1001C46.7733 13.5391 46.6528 13.967 46.4526 14.3591C46.2523 14.7511 45.9763 15.0996 45.6405 15.3843C45.3047 15.669 44.9158 15.8842 44.4963 16.0176C44.0767 16.151 43.6349 16.1998 43.1963 16.1613C42.3287 16.0666 41.5313 15.64 40.9709 14.9709C40.4106 14.3017 40.1306 13.4418 40.1897 12.571C40.2633 11.698 40.6777 10.889 41.3433 10.3191C42.0088 9.7492 42.8719 9.46422 43.7459 9.52582C45.8805 9.69386 47.0159 11.6468 46.807 13.1001Z" fill="#105EB7"/>
<path d="M38.507 39.4991C38.5615 39.7262 38.616 39.9305 38.6728 40.1463C38.7023 40.2575 38.7387 40.3734 38.775 40.4778C38.7936 40.5461 38.8351 40.6059 38.8926 40.6473C38.9501 40.6886 39.02 40.709 39.0906 40.7049C39.2632 40.7049 39.4335 40.6776 39.6061 40.664C39.6978 40.6505 39.7906 40.6459 39.8832 40.6504C39.9513 40.6532 40.0164 40.6797 40.0671 40.7253C40.2488 40.9274 40.4191 41.1364 40.5871 41.3476C40.6156 41.3863 40.634 41.4314 40.6407 41.4789C40.6475 41.5265 40.6423 41.575 40.6257 41.6201C40.5644 41.8244 40.4986 42.0243 40.4395 42.2264C40.4147 42.3051 40.401 42.3869 40.3987 42.4694C40.3988 42.4994 40.4049 42.5291 40.4166 42.5568C40.4283 42.5845 40.4453 42.6096 40.4668 42.6306C40.7645 42.8606 41.0952 43.0443 41.4478 43.1756C41.4994 43.1968 41.5567 43.2003 41.6105 43.1855C41.6643 43.1708 41.7118 43.1385 41.7453 43.0938C41.8906 42.9258 42.0405 42.7623 42.179 42.5897C42.2251 42.5243 42.2889 42.4735 42.363 42.4433C42.437 42.4131 42.5182 42.4048 42.5969 42.4194C42.8239 42.4535 43.051 42.4762 43.2781 42.5057C43.3192 42.5111 43.3583 42.5266 43.392 42.5508C43.4256 42.5749 43.4528 42.607 43.4711 42.6442C43.5415 42.7691 43.6074 42.8963 43.6778 43.0234C43.7482 43.1506 43.7959 43.2505 43.8594 43.3459C43.8863 43.3998 43.9313 43.4426 43.9865 43.4666C44.0417 43.4907 44.1037 43.4946 44.1615 43.4776C44.4839 43.3959 44.8041 43.3096 45.122 43.2165C45.1821 43.1975 45.2338 43.1585 45.2685 43.106C45.3032 43.0535 45.3188 42.9907 45.3128 42.9281C45.3128 42.7532 45.2855 42.5806 45.2719 42.4058C45.2719 42.324 45.2583 42.24 45.2583 42.1583C45.2562 42.1053 45.2666 42.0526 45.2887 42.0045C45.3108 41.9563 45.3439 41.9141 45.3855 41.8812C45.5626 41.7381 45.742 41.5996 45.9123 41.4497C45.9622 41.4046 46.0233 41.3738 46.0893 41.3606C46.1553 41.3474 46.2236 41.3523 46.287 41.3748C46.5141 41.4429 46.723 41.5133 46.941 41.5792C47.0122 41.6101 47.0926 41.612 47.1652 41.5844C47.2377 41.5568 47.2966 41.502 47.3293 41.4316C47.4792 41.175 47.6223 40.9161 47.7608 40.6572C47.7862 40.6224 47.8043 40.5829 47.814 40.541C47.8238 40.4991 47.825 40.4556 47.8176 40.4132C47.8101 40.3708 47.7943 40.3304 47.7708 40.2943C47.7474 40.2581 47.717 40.2271 47.6813 40.203C47.5746 40.1031 47.4542 40.0146 47.3475 39.9192C47.2408 39.8238 47.1885 39.7784 47.1204 39.6921C47.0885 39.6613 47.0641 39.6236 47.0491 39.5818C47.0342 39.5401 47.029 39.4954 47.0341 39.4514C47.0591 39.2243 47.0795 38.9972 47.109 38.752C47.1166 38.6887 47.1401 38.6283 47.1775 38.5767C47.2148 38.525 47.2648 38.4837 47.3225 38.4568L47.7245 38.2615C47.8062 38.2183 47.888 38.1752 47.9652 38.1252C48.0217 38.0945 48.0657 38.045 48.0897 37.9854C48.1138 37.9257 48.1163 37.8595 48.0969 37.7982C48.0151 37.5075 47.9334 37.2191 47.8471 36.9307C47.8326 36.8869 47.8127 36.8449 47.788 36.8058C47.7662 36.7585 47.7302 36.7192 47.6851 36.6931C47.64 36.6671 47.5879 36.6557 47.536 36.6605L46.9092 36.7173H46.8638C46.7767 36.7344 46.6865 36.7244 46.6053 36.6887C46.5241 36.653 46.4558 36.5932 46.4096 36.5174C46.3074 36.3744 46.1825 36.2427 46.0735 36.1041C46.0213 36.0422 45.9867 35.9674 45.9731 35.8876C45.9595 35.8077 45.9675 35.7257 45.9963 35.65C46.0622 35.4592 46.1258 35.2662 46.1825 35.0709C46.2014 35.0339 46.2123 34.9933 46.2143 34.9518C46.2163 34.9103 46.2094 34.8688 46.1942 34.8301C46.1789 34.7915 46.1556 34.7565 46.1258 34.7275C46.096 34.6986 46.0604 34.6763 46.0213 34.6621C45.7579 34.5077 45.4899 34.3624 45.2174 34.208C45.1577 34.1691 45.0855 34.1546 45.0154 34.1672C44.9454 34.1799 44.8828 34.2188 44.8405 34.2761C44.7224 34.4055 44.6134 34.5395 44.4976 34.6735C44.2568 34.9642 44.2001 34.9869 43.8163 34.9369L43.3803 34.8779C43.3108 34.8715 43.2442 34.8472 43.1869 34.8074C43.1296 34.7676 43.0836 34.7136 43.0533 34.6508C42.9761 34.4986 42.9034 34.342 42.8262 34.1966C42.7832 34.1161 42.7322 34.04 42.6741 33.9695C42.649 33.9345 42.6138 33.908 42.5731 33.8938C42.5325 33.8796 42.4884 33.8783 42.447 33.8901L41.5386 34.1512C41.4974 34.1659 41.4578 34.185 41.4205 34.208C41.373 34.2295 41.3335 34.2654 41.3074 34.3107C41.2813 34.3559 41.2701 34.4081 41.2752 34.46C41.2911 34.6621 41.3093 34.8642 41.3252 35.0664C41.3252 35.1277 41.3252 35.1913 41.3252 35.2526C41.3266 35.303 41.3162 35.353 41.295 35.3988C41.2737 35.4445 41.242 35.4846 41.2025 35.516L40.6871 35.9225C40.6387 35.9632 40.5804 35.9902 40.518 36.0006C40.4557 36.011 40.3917 36.0044 40.3328 35.9815C40.1398 35.9179 39.9445 35.8589 39.7515 35.7976H39.7288C39.4744 35.7294 39.3881 35.7567 39.2564 35.9838C39.1247 36.2109 38.9771 36.4993 38.8454 36.7604C38.8248 36.7901 38.8104 36.8237 38.8031 36.8591C38.7959 36.8946 38.7958 36.9311 38.8031 36.9665C38.8103 37.0019 38.8246 37.0356 38.8451 37.0653C38.8657 37.0951 38.892 37.1204 38.9226 37.1397C39.0702 37.2714 39.2224 37.4008 39.3768 37.5212C39.4534 37.5737 39.5131 37.6474 39.5486 37.7333C39.584 37.8192 39.5938 37.9135 39.5766 38.0048C39.5448 38.2138 39.5244 38.425 39.4971 38.6339C39.4929 38.678 39.4779 38.7203 39.4533 38.7572C39.4288 38.7941 39.3954 38.8242 39.3563 38.8451C39.1724 38.9427 38.9862 39.0381 38.8022 39.138C38.6746 39.1884 38.5692 39.2826 38.5048 39.4037L38.507 39.4991ZM45.2901 38.8564C45.2695 39.1199 45.1969 39.3767 45.0765 39.6119C44.9561 39.8472 44.7903 40.0562 44.5887 40.227C44.3871 40.3978 44.1536 40.527 43.9017 40.6071C43.6499 40.6872 43.3847 40.7165 43.1214 40.6935C42.5994 40.6362 42.1196 40.3801 41.7813 39.9785C41.4431 39.5768 41.2724 39.0604 41.3047 38.5362C41.3488 38.0115 41.5977 37.5252 41.9977 37.1827C42.3976 36.8401 42.9163 36.6688 43.4416 36.7059C43.7054 36.7225 43.9631 36.7917 44.1997 36.9094C44.4363 37.0271 44.647 37.191 44.8193 37.3914C44.9915 37.5919 45.1219 37.8247 45.2028 38.0763C45.2837 38.3279 45.3133 38.5932 45.2901 38.8564Z" fill="#105EB7"/>
<path d="M14.2407 11.4493L14.3042 15.5823L18.3169 14.599L18.7983 11.9852L19.3365 9.06491L16.7659 10.2685L14.2407 11.4493Z" fill="white"/>
<path d="M19.3364 8.95139C19.3199 8.95193 19.3037 8.95579 19.2887 8.96275L14.1929 11.3472C14.1734 11.3568 14.1569 11.3717 14.1453 11.3901C14.1336 11.4085 14.1273 11.4298 14.1271 11.4516L14.1907 15.5846C14.1918 15.6017 14.1964 15.6183 14.2042 15.6336C14.212 15.6488 14.2228 15.6623 14.2361 15.6731C14.2496 15.6831 14.2651 15.6901 14.2816 15.6937C14.298 15.6972 14.315 15.6972 14.3315 15.6936L18.3372 14.708C18.3584 14.7031 18.3776 14.692 18.3925 14.6763C18.4074 14.6606 18.4174 14.6408 18.4213 14.6195L19.4409 9.08538C19.4453 9.06486 19.4437 9.04353 19.4365 9.02385C19.4293 9.00416 19.4166 8.98691 19.4 8.9741C19.3812 8.96104 19.3593 8.95321 19.3364 8.95139ZM14.3542 11.5107L19.1866 9.23979L18.2192 14.4855L14.4155 15.4188L14.3542 11.5107Z" fill="#231F20"/>
<path d="M15.0886 13.1657L16.4475 14.2148L6.0588 27.6708L4.6999 26.6217L15.0886 13.1657Z" fill="white"/>
<path d="M15.0877 13.05H15.0718C15.0569 13.0513 15.0425 13.0558 15.0295 13.0633C15.0166 13.0707 15.0054 13.0809 14.9968 13.0932L4.60764 26.5503C4.59852 26.5621 4.59181 26.5756 4.58792 26.59C4.58402 26.6045 4.58301 26.6195 4.58493 26.6343C4.58954 26.6638 4.60491 26.6905 4.62808 26.7093L5.9906 27.7584C6.00208 27.7677 6.01533 27.7746 6.02956 27.7786C6.04378 27.7826 6.05867 27.7837 6.07333 27.7818C6.08798 27.7799 6.1021 27.775 6.11481 27.7675C6.12752 27.7599 6.13857 27.7499 6.14729 27.738L16.5365 14.2831C16.555 14.2596 16.5635 14.2297 16.5601 14.1999C16.5567 14.1701 16.5417 14.1429 16.5183 14.1242L15.1558 13.075C15.1366 13.0592 15.1126 13.0503 15.0877 13.05ZM4.85517 26.6003L15.1081 13.3271L16.2867 14.2354L6.03601 27.5109L4.85517 26.6003Z" fill="#231F20"/>
<path d="M6.05646 27.6699L7.92765 28.0537L18.3168 14.5989L16.4456 14.2128L6.05646 27.6699Z" fill="#231F20"/>
<path d="M16.4457 14.0994C16.4281 14.0996 16.4107 14.1038 16.395 14.1116C16.3793 14.1195 16.3655 14.1309 16.3548 14.1448L5.96563 27.5997C5.95422 27.6152 5.94686 27.6333 5.94421 27.6524C5.94157 27.6715 5.94372 27.6909 5.95049 27.709C5.95725 27.727 5.96841 27.7431 5.98295 27.7557C5.99749 27.7683 6.01496 27.7772 6.03376 27.7813L7.90495 28.1651C7.9258 28.1697 7.94752 28.1682 7.9676 28.161C7.98768 28.1538 8.00532 28.141 8.01849 28.1242L18.4077 14.6671C18.4192 14.6518 18.4266 14.6338 18.4293 14.6149C18.432 14.5959 18.4298 14.5766 18.423 14.5587C18.4162 14.5408 18.405 14.5249 18.3904 14.5125C18.3758 14.5001 18.3583 14.4916 18.3396 14.4877L16.4684 14.1017L16.4457 14.0994ZM6.25858 27.5951L16.4933 14.3379L18.117 14.6739L7.89132 27.9289L6.25858 27.5951Z" fill="#231F20"/>
<path d="M3.8515 24.9062L4.69853 26.6184L15.0877 13.1636L14.2407 11.4513L3.8515 24.9062Z" fill="#231F20"/>
<path d="M14.2497 11.3359C14.2322 11.3365 14.2151 11.3409 14.1994 11.3488C14.1837 11.3566 14.1699 11.3677 14.1589 11.3813L3.76064 24.8361C3.7483 24.8534 3.74075 24.8737 3.73875 24.8948C3.73676 24.9159 3.74039 24.9372 3.74928 24.9565L4.59631 26.671C4.6045 26.6885 4.61726 26.7034 4.63326 26.7142C4.64925 26.725 4.66788 26.7313 4.68715 26.7323C4.7061 26.7343 4.72525 26.7313 4.74274 26.7238C4.76024 26.7162 4.7755 26.7043 4.78707 26.6892L15.1762 13.2343C15.1878 13.2164 15.1939 13.1955 15.1939 13.1741C15.1939 13.1528 15.1878 13.1319 15.1762 13.114L14.3315 11.3995C14.3228 11.3824 14.3098 11.3679 14.294 11.3571C14.2781 11.3464 14.2597 11.3399 14.2407 11.3382L14.2497 11.3359ZM3.98545 24.9088L14.2202 11.6515L14.9537 13.1389L4.71213 26.4076L3.98545 24.9088Z" fill="#231F20"/>
<path d="M16.7658 10.2684L16.9248 11.0496L18.1556 11.9988L18.7982 11.9852L19.3364 9.06483L16.7658 10.2684Z" fill="#105EB7"/>
<path d="M19.3364 8.95102C19.3199 8.95156 19.3037 8.95542 19.2888 8.96238L16.7159 10.1659C16.6932 10.177 16.6749 10.1953 16.6638 10.2179C16.6527 10.2405 16.6495 10.2662 16.6546 10.2908L16.8158 11.072C16.8207 11.0983 16.8353 11.1218 16.8567 11.1379L18.0852 12.0871C18.1066 12.102 18.1318 12.1106 18.1579 12.1121L18.8028 12.0962C18.8284 12.096 18.8532 12.0868 18.8727 12.0702C18.8922 12.0536 18.9052 12.0306 18.9095 12.0053L19.4477 9.08501C19.4521 9.06449 19.4506 9.04316 19.4433 9.02347C19.4361 9.00379 19.4234 8.98654 19.4068 8.97373C19.3861 8.95948 19.3616 8.95158 19.3364 8.95102ZM16.893 10.3317L19.1866 9.25986L18.7051 11.8736L18.1919 11.885L17.027 10.9766L16.893 10.3317Z" fill="#231F20"/>
<path d="M9.85333 42.7305C6.21314 41.9606 3.70838 39.2401 4.25793 36.6536C4.57585 35.1526 5.84753 34.0262 7.58701 33.4971C8.16381 32.5116 9.33103 31.3353 11.6882 30.4655C10.9731 31.2324 10.4515 32.1588 10.1667 33.1679C10.7287 33.1842 11.2881 33.251 11.8381 33.3677C15.4714 34.1375 17.983 36.858 17.4357 39.4445C16.8885 42.031 13.4912 43.5003 9.85333 42.7305Z" fill="white"/>
<path d="M11.6859 30.3585C11.6732 30.3562 11.6601 30.3562 11.6473 30.3585C9.67169 31.0875 8.28192 32.1094 7.50983 33.4015C5.69314 33.9715 4.45779 35.1455 4.14442 36.6306C3.5767 39.2739 6.13596 42.0603 9.82838 42.8483C13.5231 43.6294 16.9839 42.117 17.5493 39.4738C18.1147 36.8305 15.5578 34.0464 11.8722 33.263C11.363 33.1548 10.8457 33.0887 10.3257 33.0654C10.6165 32.1302 11.1131 31.2719 11.779 30.5538C11.7954 30.5381 11.8066 30.5178 11.8113 30.4956C11.816 30.4734 11.814 30.4503 11.8054 30.4293C11.7969 30.4082 11.7822 30.3903 11.7633 30.3777C11.7445 30.3651 11.7223 30.3584 11.6996 30.3585H11.6859ZM9.86925 42.6212C6.30173 41.8627 3.83331 39.199 4.36696 36.6783C4.66444 35.2659 5.84983 34.1463 7.61883 33.6059C7.64558 33.5967 7.66866 33.5792 7.68468 33.5559C8.36594 32.3887 9.57858 31.4417 11.2931 30.74C10.722 31.4471 10.3009 32.263 10.0555 33.1381C10.051 33.1547 10.0503 33.172 10.0536 33.1889C10.0568 33.2058 10.0638 33.2217 10.0741 33.2355C10.0844 33.2493 10.0976 33.2605 10.1129 33.2685C10.1282 33.2764 10.145 33.2807 10.1622 33.2811C10.7165 33.2977 11.2683 33.3639 11.8108 33.4787C15.3829 34.2349 17.8559 36.9009 17.3222 39.4215C16.7886 41.9422 13.4481 43.3751 9.87607 42.6212H9.86925Z" fill="#231F20"/>
<path d="M61.7039 13.2001L44.5385 18.9726L51.8892 40.8274L65.5848 36.2198L67.8625 31.5123L61.7039 13.2001Z" fill="#231F20"/>
<path d="M61.7107 13.0866H61.6743L44.5089 18.8614C44.4948 18.866 44.4817 18.8734 44.4705 18.8832C44.4592 18.8929 44.4501 18.9048 44.4435 18.9181C44.4369 18.9314 44.4331 18.946 44.4323 18.9608C44.4314 18.9756 44.4335 18.9905 44.4385 19.0045L51.787 40.8593C51.7973 40.8876 51.8182 40.9108 51.8454 40.924C51.8725 40.9371 51.9037 40.9392 51.9323 40.9297L65.6279 36.3243C65.6423 36.3194 65.6555 36.3116 65.6668 36.3015C65.6781 36.2914 65.6873 36.2791 65.6937 36.2653L67.9646 31.5578C67.976 31.5302 67.976 31.4992 67.9646 31.4715L61.8038 13.1593C61.7993 13.145 61.792 13.1318 61.7822 13.1205C61.7725 13.1091 61.7605 13.0999 61.747 13.0935C61.7353 13.0894 61.723 13.0871 61.7107 13.0866ZM44.6792 19.0431L61.6312 13.3432L67.7375 31.5101L65.503 36.1291L51.9596 40.6708L44.6792 19.0431Z" fill="#231F20"/>
<path d="M59.9757 12.0714L42.8103 17.844L50.1611 39.6987L63.8566 35.0934L66.1343 30.3837L59.9757 12.0714Z" fill="white"/>
<path d="M59.9758 11.9646C59.9638 11.9624 59.9515 11.9624 59.9394 11.9646L42.774 17.7371C42.7458 17.7469 42.7227 17.7674 42.7095 17.7942C42.6963 17.821 42.6942 17.8519 42.7036 17.8802L50.0521 39.7349C50.0627 39.7636 50.0838 39.7871 50.1112 39.8008C50.1243 39.8069 50.1387 39.8101 50.1532 39.8101C50.1677 39.8101 50.182 39.8069 50.1952 39.8008L63.893 35.1955C63.9074 35.1907 63.9207 35.183 63.9321 35.1728C63.9434 35.1626 63.9525 35.1503 63.9589 35.1365L66.2297 30.429C66.2353 30.4156 66.2381 30.4014 66.2381 30.3869C66.2381 30.3725 66.2353 30.3582 66.2297 30.3449L60.0712 12.0304C60.0667 12.0165 60.0593 12.0036 60.0495 11.9926C60.0398 11.9816 60.0278 11.9729 60.0144 11.9669C60.0018 11.9635 59.9887 11.9628 59.9758 11.9646ZM42.9443 17.9233L59.8963 12.2212L66.0026 30.3881L63.7658 35.0116L50.2315 39.5555L42.9443 17.9233Z" fill="#231F20"/>
<path d="M63.0959 28.7079C63.0839 28.7056 63.0716 28.7056 63.0596 28.7079L50.697 32.8704C50.6689 32.8802 50.6457 32.9007 50.6325 32.9275C50.6193 32.9542 50.6172 32.9851 50.6267 33.0134C50.631 33.0278 50.6382 33.0411 50.6479 33.0525C50.6575 33.064 50.6694 33.0734 50.6827 33.0802C50.6961 33.087 50.7107 33.091 50.7256 33.092C50.7406 33.093 50.7556 33.091 50.7697 33.0861L63.1323 28.9281C63.1624 28.9233 63.1894 28.9067 63.2072 28.882C63.2251 28.8573 63.2325 28.8265 63.2277 28.7964C63.2228 28.7663 63.2063 28.7394 63.1816 28.7215C63.1569 28.7036 63.1261 28.6962 63.0959 28.7011V28.7079Z" fill="#D1D3D4"/>
<path d="M62.3147 26.3847C62.3027 26.3825 62.2904 26.3825 62.2784 26.3847L49.9158 30.5427C49.8876 30.5525 49.8642 30.5729 49.8507 30.5996C49.8371 30.6262 49.8344 30.6571 49.8431 30.6857C49.8478 30.7001 49.8552 30.7135 49.8651 30.725C49.8749 30.7365 49.887 30.7459 49.9005 30.7527C49.914 30.7594 49.9288 30.7634 49.9439 30.7644C49.959 30.7654 49.9742 30.7633 49.9885 30.7584L62.351 26.6004C62.3812 26.5956 62.4081 26.579 62.426 26.5543C62.4439 26.5296 62.4512 26.4988 62.4464 26.4687C62.4416 26.4386 62.425 26.4116 62.4003 26.3938C62.3756 26.3759 62.3448 26.3685 62.3147 26.3734V26.3847Z" fill="#D1D3D4"/>
<path d="M61.5335 24.0618C61.5215 24.0596 61.5092 24.0596 61.4972 24.0618L49.1346 28.2243C49.1045 28.2339 49.0795 28.2551 49.065 28.2832C49.0505 28.3113 49.0478 28.344 49.0574 28.3741C49.0671 28.4043 49.0883 28.4293 49.1164 28.4438C49.1445 28.4583 49.1772 28.461 49.2073 28.4514L61.5699 24.2934C61.6 24.2886 61.6269 24.272 61.6448 24.2473C61.6627 24.2226 61.6701 24.1918 61.6652 24.1617C61.6604 24.1316 61.6438 24.1046 61.6191 24.0867C61.5944 24.0689 61.5636 24.0615 61.5335 24.0663V24.0618Z" fill="#D1D3D4"/>
<path d="M60.7524 21.7294C60.7404 21.7272 60.7281 21.7272 60.7161 21.7294L48.3535 25.8874C48.3253 25.8972 48.3019 25.9176 48.2884 25.9443C48.2748 25.971 48.2721 26.0018 48.2808 26.0304C48.2854 26.0449 48.2929 26.0582 48.3027 26.0697C48.3126 26.0812 48.3247 26.0906 48.3382 26.0974C48.3517 26.1042 48.3665 26.1082 48.3816 26.1091C48.3967 26.1101 48.4119 26.1081 48.4262 26.1031L60.7887 21.9565C60.8188 21.9517 60.8458 21.9351 60.8637 21.9104C60.8816 21.8857 60.8889 21.8549 60.8841 21.8248C60.8793 21.7947 60.8627 21.7677 60.838 21.7498C60.8133 21.732 60.7825 21.7246 60.7524 21.7294Z" fill="#D1D3D4"/>
<path d="M59.9712 19.4155C59.9592 19.4132 59.9469 19.4132 59.9349 19.4155L47.5723 23.5734C47.5422 23.583 47.5172 23.6042 47.5027 23.6323C47.4882 23.6604 47.4855 23.6932 47.4951 23.7233C47.5047 23.7534 47.526 23.7784 47.5541 23.7929C47.5822 23.8074 47.6149 23.8101 47.645 23.8005L60.0076 19.6425C60.0377 19.6377 60.0646 19.6211 60.0825 19.5964C60.1004 19.5717 60.1077 19.5409 60.1029 19.5108C60.0981 19.4807 60.0815 19.4537 60.0568 19.4359C60.0321 19.418 60.0013 19.4106 59.9712 19.4155Z" fill="#D1D3D4"/>
<path d="M55.5544 18.3231C55.5424 18.3207 55.53 18.3207 55.5181 18.3231L46.7911 21.2548C46.7762 21.2596 46.7624 21.2672 46.7504 21.2773C46.7385 21.2875 46.7287 21.2998 46.7215 21.3137C46.7143 21.3277 46.71 21.3429 46.7087 21.3585C46.7074 21.3741 46.7092 21.3898 46.7139 21.4047C46.7187 21.4196 46.7264 21.4334 46.7365 21.4454C46.7466 21.4573 46.759 21.4671 46.7729 21.4743C46.7868 21.4815 46.802 21.4858 46.8176 21.4871C46.8332 21.4884 46.8489 21.4866 46.8638 21.4819L55.5907 18.5479C55.6191 18.5376 55.6423 18.5167 55.6554 18.4896C55.6686 18.4624 55.6706 18.4312 55.6611 18.4026C55.6543 18.3796 55.6402 18.3595 55.6209 18.3451C55.6017 18.3308 55.5784 18.3231 55.5544 18.3231Z" fill="#D1D3D4"/>
<path d="M41.6363 28.2198C41.5239 28.2198 41.4141 28.2531 41.3207 28.3156C41.2273 28.3781 41.1545 28.4669 41.1116 28.5708C41.0687 28.6747 41.0576 28.7889 41.0797 28.8991C41.1018 29.0093 41.1561 29.1104 41.2357 29.1897C41.3153 29.2691 41.4167 29.3229 41.527 29.3446C41.6372 29.3662 41.7515 29.3547 41.8551 29.3114C41.9588 29.268 42.0474 29.1949 42.1095 29.1013C42.1716 29.0076 42.2045 28.8976 42.204 28.7852C42.2034 28.6351 42.1434 28.4912 42.037 28.3853C41.9305 28.2793 41.7865 28.2198 41.6363 28.2198ZM41.6363 29.1281C41.5689 29.1281 41.5031 29.1082 41.4471 29.0707C41.3911 29.0333 41.3474 28.9801 41.3216 28.9179C41.2958 28.8556 41.2891 28.7871 41.3022 28.7211C41.3154 28.655 41.3478 28.5943 41.3955 28.5466C41.4431 28.499 41.5038 28.4666 41.5699 28.4534C41.6359 28.4403 41.7044 28.447 41.7667 28.4728C41.8289 28.4986 41.8821 28.5423 41.9195 28.5983C41.957 28.6543 41.9769 28.7201 41.9769 28.7875C41.9763 28.8775 41.9402 28.9635 41.8764 29.0269C41.8126 29.0903 41.7263 29.1259 41.6363 29.1259V29.1281Z" fill="#D1D3D4"/>
<path d="M9.48094 10.0684C9.36856 10.068 9.25857 10.1009 9.16491 10.163C9.07125 10.2251 8.99814 10.3136 8.95482 10.4173C8.9115 10.521 8.89993 10.6352 8.92158 10.7455C8.94323 10.8558 8.99712 10.9571 9.07643 11.0368C9.15573 11.1164 9.25688 11.1707 9.36707 11.1928C9.47726 11.2149 9.59152 11.2038 9.69539 11.1609C9.79926 11.118 9.88806 11.0452 9.95054 10.9518C10.013 10.8584 10.0464 10.7485 10.0464 10.6361C10.0464 10.486 9.98688 10.3419 9.8809 10.2355C9.77493 10.1291 9.63111 10.069 9.48094 10.0684ZM9.48094 10.9768C9.41347 10.9772 9.34739 10.9576 9.29108 10.9205C9.23476 10.8833 9.19075 10.8303 9.16462 10.7681C9.13849 10.7059 9.13142 10.6373 9.14431 10.5711C9.15719 10.5049 9.18945 10.444 9.237 10.3961C9.28454 10.3482 9.34523 10.3156 9.41137 10.3022C9.47751 10.2889 9.54611 10.2955 9.60849 10.3212C9.67086 10.3469 9.7242 10.3906 9.76173 10.4467C9.79926 10.5027 9.81929 10.5687 9.81929 10.6361C9.8193 10.7261 9.78372 10.8124 9.72033 10.8762C9.65694 10.94 9.57088 10.9762 9.48094 10.9768Z" fill="#D1D3D4"/>
<path d="M13.2301 27.9403C13.1999 27.9403 13.1711 27.9523 13.1498 27.9736C13.1285 27.9949 13.1165 28.0237 13.1165 28.0539V29.2392C13.1165 29.2694 13.1285 29.2982 13.1498 29.3195C13.1711 29.3408 13.1999 29.3528 13.2301 29.3528C13.2602 29.3528 13.2891 29.3408 13.3103 29.3195C13.3316 29.2982 13.3436 29.2694 13.3436 29.2392V28.0539C13.343 28.0239 13.3309 27.9954 13.3097 27.9742C13.2885 27.953 13.26 27.9409 13.2301 27.9403Z" fill="#D1D3D4"/>
<path d="M13.8228 28.542H12.6374C12.6073 28.542 12.5784 28.5539 12.5571 28.5752C12.5358 28.5965 12.5239 28.6254 12.5239 28.6555C12.5239 28.6856 12.5358 28.7145 12.5571 28.7358C12.5784 28.7571 12.6073 28.769 12.6374 28.769H13.8228C13.8529 28.769 13.8818 28.7571 13.9031 28.7358C13.9244 28.7145 13.9363 28.6856 13.9363 28.6555C13.9358 28.6256 13.9236 28.597 13.9024 28.5759C13.8813 28.5547 13.8527 28.5425 13.8228 28.542Z" fill="#D1D3D4"/>
<path d="M54.3826 6.06067C54.3525 6.06067 54.3236 6.07263 54.3023 6.09393C54.281 6.11522 54.269 6.1441 54.269 6.17421V7.3596C54.269 7.38972 54.281 7.41859 54.3023 7.43989C54.3236 7.46118 54.3525 7.47314 54.3826 7.47314C54.4127 7.47314 54.4416 7.46118 54.4629 7.43989C54.4842 7.41859 54.4961 7.38972 54.4961 7.3596V6.17421C54.4955 6.14428 54.4834 6.11574 54.4622 6.09457C54.4411 6.0734 54.4125 6.06125 54.3826 6.06067Z" fill="#D1D3D4"/>
<path d="M54.9754 6.65768H53.79C53.7599 6.65768 53.731 6.66964 53.7097 6.69093C53.6884 6.71223 53.6765 6.74111 53.6765 6.77122C53.6765 6.80134 53.6884 6.83021 53.7097 6.85151C53.731 6.8728 53.7599 6.88477 53.79 6.88477H54.9754C55.0055 6.88477 55.0344 6.8728 55.0557 6.85151C55.077 6.83021 55.0889 6.80134 55.0889 6.77122C55.0883 6.74129 55.0762 6.71275 55.055 6.69158C55.0339 6.67041 55.0053 6.65826 54.9754 6.65768Z" fill="#D1D3D4"/>
<path d="M32.5596 41.6379C32.5295 41.6379 32.5007 41.6499 32.4794 41.6711C32.4581 41.6924 32.4461 41.7213 32.4461 41.7514V42.9346C32.4461 42.9647 32.4581 42.9935 32.4794 43.0148C32.5007 43.0361 32.5295 43.0481 32.5596 43.0481C32.5898 43.0481 32.6186 43.0361 32.6399 43.0148C32.6612 42.9935 32.6732 42.9647 32.6732 42.9346V41.7514C32.6732 41.7213 32.6612 41.6924 32.6399 41.6711C32.6186 41.6499 32.5898 41.6379 32.5596 41.6379Z" fill="#D1D3D4"/>
<path d="M33.1524 42.2285H31.9624C31.9325 42.2291 31.9039 42.2412 31.8828 42.2624C31.8616 42.2835 31.8495 42.3121 31.8489 42.342C31.8489 42.3721 31.8608 42.401 31.8821 42.4223C31.9034 42.4436 31.9323 42.4556 31.9624 42.4556H33.1478C33.1779 42.4556 33.2068 42.4436 33.2281 42.4223C33.2494 42.401 33.2614 42.3721 33.2614 42.342C33.2614 42.3127 33.25 42.2845 33.2297 42.2633C33.2094 42.2421 33.1817 42.2297 33.1524 42.2285Z" fill="#D1D3D4"/>
<path d="M8.49304 36.2447C8.44348 36.2473 8.39416 36.2534 8.34544 36.2628C8.12999 36.2951 7.92503 36.3772 7.74685 36.5026C7.56867 36.6279 7.42218 36.7931 7.31901 36.985C7.22597 36.8607 7.10886 36.7564 6.97464 36.6784C6.84043 36.6004 6.69187 36.5502 6.53783 36.5308C6.50772 36.5272 6.47741 36.5357 6.45356 36.5544C6.42971 36.5732 6.41428 36.6006 6.41067 36.6307C6.40705 36.6608 6.41555 36.6912 6.43429 36.715C6.45303 36.7388 6.48047 36.7543 6.51058 36.7579C6.6538 36.7762 6.79106 36.8265 6.91215 36.9051C7.03324 36.9837 7.13505 37.0887 7.21001 37.2121C7.13297 37.399 7.09772 37.6006 7.10674 37.8026C7.11577 38.0046 7.16884 38.2022 7.26224 38.3816C7.27167 38.3993 7.28572 38.4142 7.30292 38.4245C7.32011 38.4349 7.3398 38.4405 7.35989 38.4406C7.37978 38.4407 7.39937 38.4357 7.41684 38.4262C7.43431 38.4167 7.44909 38.4029 7.4598 38.3861C7.55989 38.2083 7.6136 38.0082 7.61598 37.8042C7.61836 37.6002 7.56934 37.3989 7.47343 37.2189V37.1984L7.49387 37.153C7.57118 36.9725 7.69472 36.8155 7.85203 36.6979C8.00934 36.5804 8.19487 36.5063 8.38991 36.4833C8.58495 36.4603 8.78262 36.4891 8.96298 36.5668C9.14335 36.6445 9.30005 36.7684 9.41728 36.9259C9.52319 37.0474 9.60696 37.1865 9.66481 37.337C9.59729 37.4551 9.56544 37.5902 9.57309 37.726C9.58075 37.8618 9.62759 37.9925 9.70795 38.1022C9.72185 38.118 9.73965 38.1299 9.75957 38.1367C9.7795 38.1435 9.80085 38.1449 9.8215 38.1408C9.84141 38.1357 9.85963 38.1255 9.87437 38.1111C9.88911 38.0968 9.89984 38.0789 9.90552 38.0591C9.96604 37.8268 9.96054 37.5822 9.88962 37.3529C9.93471 37.2715 10.0004 37.2035 10.0802 37.1557C10.1599 37.1078 10.2508 37.0819 10.3438 37.0804C10.4475 37.0853 10.5482 37.1173 10.6358 37.173C10.7234 37.2288 10.7949 37.3064 10.8434 37.3983C10.9025 37.4988 10.9382 37.6113 10.9478 37.7275C10.9026 37.8459 10.878 37.9711 10.8752 38.0977C10.8749 38.1232 10.8833 38.1481 10.899 38.1683C10.9146 38.1885 10.9367 38.2028 10.9615 38.209C10.9865 38.2153 11.013 38.213 11.0366 38.2022C11.0601 38.1915 11.0793 38.173 11.0909 38.1499C11.1486 38.0312 11.1774 37.9004 11.1749 37.7684C11.2321 37.6371 11.3164 37.5195 11.4225 37.4233C11.5135 37.3316 11.6231 37.2604 11.7438 37.2145C11.8646 37.1685 11.9938 37.1489 12.1227 37.1568C12.2517 37.1648 12.3775 37.2002 12.4917 37.2606C12.6059 37.321 12.7059 37.4051 12.785 37.5073C12.8416 37.577 12.8896 37.6532 12.928 37.7344C12.8714 37.7995 12.8205 37.8694 12.7759 37.9433C12.7288 38.0289 12.7086 38.1266 12.7179 38.2238C12.7273 38.3211 12.7657 38.4132 12.8281 38.4883C12.8657 38.5239 12.9144 38.5455 12.966 38.5497C13.0177 38.5538 13.0692 38.5401 13.112 38.511C13.1516 38.4797 13.1839 38.4401 13.2066 38.395C13.2294 38.3499 13.242 38.3003 13.2437 38.2498C13.2585 38.0966 13.2415 37.942 13.1937 37.7957C13.2827 37.7103 13.3959 37.6545 13.5178 37.6358C13.6398 37.6171 13.7645 37.6364 13.875 37.6912C14.4382 37.9365 14.8673 38.8062 14.7084 39.383C14.7043 39.3975 14.703 39.4126 14.7048 39.4275C14.7066 39.4425 14.7113 39.4569 14.7187 39.47C14.7261 39.4831 14.736 39.4946 14.7479 39.5039C14.7598 39.5131 14.7733 39.5199 14.7879 39.5238C14.8168 39.5315 14.8475 39.5274 14.8735 39.5125C14.8994 39.4976 14.9184 39.4731 14.9264 39.4443C15.1171 38.7631 14.6312 37.7707 13.9635 37.4823C13.8253 37.4163 13.6714 37.3905 13.5192 37.4078C13.3671 37.425 13.2228 37.4847 13.1029 37.5799C13.0615 37.5076 13.0136 37.4392 12.9598 37.3756C12.861 37.25 12.7369 37.1466 12.5954 37.0723C12.454 36.998 12.2984 36.9544 12.1389 36.9443C11.9795 36.9342 11.8197 36.9579 11.67 37.0139C11.5203 37.0698 11.3841 37.1567 11.2703 37.2688C11.2121 37.3223 11.1596 37.3817 11.1136 37.446C11.0938 37.3951 11.0703 37.3457 11.0432 37.2984C10.978 37.1773 10.8836 37.0745 10.7686 36.9992C10.6536 36.9238 10.5217 36.8784 10.3847 36.8669C10.276 36.8636 10.1679 36.8847 10.0685 36.9288C9.96906 36.9728 9.88077 37.0385 9.81014 37.1212C9.74832 36.9997 9.67207 36.8861 9.58306 36.7829C9.4511 36.6197 9.28531 36.487 9.09712 36.3941C8.90894 36.3012 8.70284 36.2502 8.49304 36.2447ZM7.35761 38.0228C7.32456 37.864 7.32456 37.7001 7.35761 37.5413C7.39797 37.6992 7.39875 37.8645 7.35989 38.0228H7.35761ZM12.978 38.3066C12.9595 38.2864 12.9476 38.2611 12.9439 38.2339C12.9272 38.1717 12.9337 38.1056 12.9621 38.0477C12.9752 38.0249 12.9896 38.003 13.0052 37.9819C13.0155 38.0572 13.0155 38.1336 13.0052 38.209C13.0052 38.2816 12.9803 38.3021 12.9735 38.3066H12.978Z" fill="#D1D3D4"/>
<path d="M39.3745 22.3153C39.6504 22.3153 39.8741 22.5389 39.8741 22.8149C39.8741 23.0908 39.6504 23.3145 39.3745 23.3145C39.0986 23.3145 38.8749 23.0908 38.8749 22.8149C38.8749 22.5389 39.0986 22.3153 39.3745 22.3153Z" fill="#D1D3D4"/>
<path d="M17.5084 19.3949C17.7844 19.3949 18.008 19.6185 18.008 19.8945C18.008 20.1704 17.7844 20.394 17.5084 20.394C17.2325 20.394 17.0089 20.1704 17.0089 19.8945C17.0089 19.6185 17.2325 19.3949 17.5084 19.3949Z" fill="#D1D3D4"/>
</svg>
