<svg width="763" height="451" viewBox="0 0 763 451" fill="none" xmlns="http://www.w3.org/2000/svg">
<path opacity="0.1" fill-rule="evenodd" clip-rule="evenodd" d="M267.491 251.03C280.146 302.661 253.504 339.726 209.61 350.484C165.715 361.243 124.954 340.699 112.299 289.068C85.6547 180.36 104.465 42.8986 132.535 36.0186C160.604 29.1388 240.847 142.323 267.491 251.03Z" fill="#0B048C"/>
<path opacity="0.1" d="M171.072 193.251L229.481 431.56" stroke="#03003E" stroke-width="8" stroke-linecap="square"/>
<path opacity="0.1" d="M202.941 319.267L223.675 285.077" stroke="#03003E" stroke-width="8" stroke-linecap="square"/>
<path opacity="0.1" d="M186.892 267.74L158.911 250.779" stroke="#03003E" stroke-width="8" stroke-linecap="square"/>
<path opacity="0.1" d="M181.917 231.647L194.868 210.289" stroke="#03003E" stroke-width="8" stroke-linecap="square"/>
<path opacity="0.1" fill-rule="evenodd" clip-rule="evenodd" d="M156.342 279.539C168.045 327.29 158.92 375.5 114.195 386.462C69.4688 397.424 39.0847 358.898 27.3811 311.147C13.6521 255.133 33.7981 191.149 64.4803 183.629C95.1625 176.109 142.613 223.525 156.342 279.539Z" fill="#6157FF"/>
<path opacity="0.1" d="M89.3378 285.046L122.668 421.032" stroke="#6C63FF" stroke-width="8" stroke-linecap="square"/>
<path opacity="0.1" d="M105.924 346.869L118.574 322.999" stroke="#6C63FF" stroke-width="8" stroke-linecap="square"/>
<path opacity="0.1" d="M95.4804 321.232L73.2258 305.917" stroke="#6C63FF" stroke-width="8" stroke-linecap="square"/>
<g opacity="0.1">
<path fill-rule="evenodd" clip-rule="evenodd" d="M13.242 434.06C13.242 434.06 44.4646 362.072 94.2857 362.072C134.695 362.072 139.204 413.035 176.247 411.778C213.29 410.522 232.064 387.246 265.476 387.246C307.636 387.246 342.453 434.06 342.453 434.06H13.242Z" fill="#6C63FF"/>
</g>
<path opacity="0.1" d="M497.244 428.724V378.7C497.244 378.7 516.748 414.165 497.244 428.724Z" fill="#4A42DE"/>
<path opacity="0.1" d="M498.449 428.715L461.581 394.886C461.581 394.886 500.909 404.509 498.449 428.715Z" fill="#4A42DE"/>
<path d="M738 18H118V328H738V18Z" fill="#6C63FF"/>
<path d="M720 44H136V303H720V44Z" fill="white"/>
<path d="M737 1.52588e-05H118V28H737V1.52588e-05Z" fill="#4135FF"/>
<path d="M137.5 19C139.985 19 142 16.7614 142 14C142 11.2386 139.985 9.00002 137.5 9.00002C135.015 9.00002 133 11.2386 133 14C133 16.7614 135.015 19 137.5 19Z" fill="white"/>
<path d="M155.5 19C157.985 19 160 16.7614 160 14C160 11.2386 157.985 9.00002 155.5 9.00002C153.015 9.00002 151 11.2386 151 14C151 16.7614 153.015 19 155.5 19Z" fill="white"/>
<path d="M175.5 19C177.985 19 180 16.7614 180 14C180 11.2386 177.985 9.00002 175.5 9.00002C173.015 9.00002 171 11.2386 171 14C171 16.7614 173.015 19 175.5 19Z" fill="white"/>
<path d="M231.421 103C230.779 103 230.163 103.263 229.709 103.732C229.255 104.201 229 104.837 229 105.5C229 106.163 229.255 106.799 229.709 107.268C230.163 107.737 230.779 108 231.421 108H297.579C298.221 108 298.837 107.737 299.291 107.268C299.745 106.799 300 106.163 300 105.5C300 104.837 299.745 104.201 299.291 103.732C298.837 103.263 298.221 103 297.579 103H231.421Z" fill="#3F3D56"/>
<path d="M195.391 138C194.757 138 194.149 138.263 193.7 138.732C193.252 139.201 193 139.837 193 140.5C193 141.163 193.252 141.799 193.7 142.268C194.149 142.737 194.757 143 195.391 143H334.609C335.243 143 335.851 142.737 336.3 142.268C336.748 141.799 337 141.163 337 140.5C337 139.837 336.748 139.201 336.3 138.732C335.851 138.263 335.243 138 334.609 138H195.391Z" fill="#CCCCCC"/>
<path d="M195.391 158C194.757 158 194.149 158.263 193.7 158.732C193.252 159.201 193 159.837 193 160.5C193 161.163 193.252 161.799 193.7 162.268C194.149 162.737 194.757 163 195.391 163H334.609C335.243 163 335.851 162.737 336.3 162.268C336.748 161.799 337 161.163 337 160.5C337 159.837 336.748 159.201 336.3 158.732C335.851 158.263 335.243 158 334.609 158H195.391Z" fill="#CCCCCC"/>
<path d="M195.391 178C194.757 178 194.149 178.316 193.7 178.879C193.252 179.441 193 180.204 193 181C193 181.796 193.252 182.559 193.7 183.121C194.149 183.684 194.757 184 195.391 184H334.609C335.243 184 335.851 183.684 336.3 183.121C336.748 182.559 337 181.796 337 181C337 180.204 336.748 179.441 336.3 178.879C335.851 178.316 335.243 178 334.609 178H195.391Z" fill="#CCCCCC"/>
<path d="M195.391 199C194.757 199 194.149 199.263 193.7 199.732C193.252 200.201 193 200.837 193 201.5C193 202.163 193.252 202.799 193.7 203.268C194.149 203.737 194.757 204 195.391 204H334.609C335.243 204 335.851 203.737 336.3 203.268C336.748 202.799 337 202.163 337 201.5C337 200.837 336.748 200.201 336.3 199.732C335.851 199.263 335.243 199 334.609 199H195.391Z" fill="#CCCCCC"/>
<path d="M195.391 219C194.757 219 194.149 219.263 193.7 219.732C193.252 220.201 193 220.837 193 221.5C193 222.163 193.252 222.799 193.7 223.268C194.149 223.737 194.757 224 195.391 224H334.609C335.243 224 335.851 223.737 336.3 223.268C336.748 222.799 337 222.163 337 221.5C337 220.837 336.748 220.201 336.3 219.732C335.851 219.263 335.243 219 334.609 219H195.391Z" fill="#CCCCCC"/>
<path d="M195.391 239C194.757 239 194.149 239.263 193.7 239.732C193.252 240.201 193 240.837 193 241.5C193 242.163 193.252 242.799 193.7 243.268C194.149 243.737 194.757 244 195.391 244H334.609C335.243 244 335.851 243.737 336.3 243.268C336.748 242.799 337 242.163 337 241.5C337 240.837 336.748 240.201 336.3 239.732C335.851 239.263 335.243 239 334.609 239H195.391Z" fill="#CCCCCC"/>
<path d="M655.696 245H445.304C443.898 244.998 442.55 244.403 441.555 243.345C440.561 242.287 440.002 240.852 440 239.355V107.645C440.002 106.148 440.561 104.713 441.555 103.655C442.55 102.597 443.898 102.002 445.304 102H655.696C657.102 102.002 658.45 102.597 659.445 103.655C660.439 104.713 660.998 106.148 661 107.645V239.355C660.998 240.852 660.439 242.287 659.445 243.345C658.45 244.403 657.102 244.998 655.696 245Z" fill="#F1F1F1"/>
<path d="M683.672 275H472.328C470.915 274.998 469.561 274.403 468.562 273.345C467.563 272.287 467.002 270.852 467 269.355V137.645C467.002 136.148 467.563 134.713 468.562 133.655C469.561 132.597 470.915 132.002 472.328 132H683.672C685.085 132.002 686.439 132.597 687.438 133.655C688.437 134.713 688.998 136.148 689 137.645V269.355C688.998 270.852 688.437 272.287 687.438 273.345C686.439 274.403 685.085 274.998 683.672 275Z" fill="white"/>
<path d="M683.847 277H472.153C470.256 276.998 468.438 276.204 467.097 274.794C465.756 273.384 465.002 271.472 465 269.478V138.522C465.002 136.528 465.756 134.616 467.097 133.206C468.438 131.796 470.256 131.002 472.153 131H683.847C685.743 131.002 687.562 131.796 688.903 133.206C690.244 134.616 690.998 136.528 691 138.522V269.478C690.998 271.472 690.244 273.384 688.903 274.794C687.562 276.205 685.743 276.998 683.847 277ZM472.153 134.82C471.219 134.821 470.325 135.211 469.664 135.905C469.004 136.6 468.633 137.541 468.632 138.522V269.478C468.633 270.459 469.004 271.4 469.664 272.095C470.325 272.789 471.219 273.179 472.153 273.18H683.847C684.78 273.179 685.675 272.789 686.335 272.095C686.996 271.4 687.367 270.459 687.368 269.478V138.522C687.367 137.541 686.996 136.6 686.335 135.905C685.675 135.211 684.78 134.821 683.847 134.82H472.153Z" fill="#3F3D56"/>
<path d="M577.5 241C587.717 241 596 232.27 596 221.5C596 210.73 587.717 202 577.5 202C567.283 202 559 210.73 559 221.5C559 232.27 567.283 241 577.5 241Z" fill="#FF6583"/>
<path d="M613.569 202.907C612.491 201.701 611.194 200.734 609.755 200.063C608.317 199.392 606.766 199.032 605.194 199.002C603.621 198.972 602.059 199.274 600.599 199.89C599.139 200.507 597.81 201.424 596.691 202.589L537.254 265.261C529.641 273.326 521.693 260.99 516.614 256.016C504.401 243.279 491.209 267.161 483 274H674V271.436L613.569 202.907Z" fill="#6C63FF"/>
<path d="M403.22 435.593H139.628C139.444 435.593 139.268 435.52 139.139 435.391C139.009 435.261 138.936 435.085 138.936 434.902C138.936 434.718 139.009 434.542 139.139 434.413C139.268 434.283 139.444 434.21 139.628 434.21H403.22C403.404 434.21 403.579 434.283 403.709 434.413C403.839 434.542 403.912 434.718 403.912 434.902C403.912 435.085 403.839 435.261 403.709 435.391C403.579 435.52 403.404 435.593 403.22 435.593Z" fill="#D0E5FF"/>
<path d="M219.102 288.871L218.867 246.751L226.918 207.831L211.55 205.761L205.614 248.95L211.508 290.329C210.707 291.294 210.224 292.482 210.125 293.732C210.025 294.981 210.315 296.231 210.953 297.31C211.591 298.39 212.547 299.245 213.691 299.76C214.834 300.276 216.109 300.425 217.341 300.189C218.572 299.952 219.701 299.341 220.572 298.439C221.443 297.537 222.014 296.388 222.206 295.15C222.399 293.911 222.204 292.643 221.649 291.519C221.093 290.395 220.204 289.47 219.102 288.871Z" fill="#9F616A"/>
<path d="M209.205 211.276L213.873 195.837C214.768 192.88 216.759 190.377 219.44 188.841C222.121 187.305 225.288 186.852 228.292 187.575C231.297 188.297 233.911 190.141 235.599 192.728C237.288 195.315 237.923 198.449 237.374 201.488L234.198 219.074L209.205 211.276Z" fill="#CBCBCB"/>
<path d="M223.589 426.348L230.866 426.832L236.196 399.005L225.456 398.291L223.589 426.348Z" fill="#9F616A"/>
<path d="M221.89 423.849L236.223 424.803L236.223 424.803C238.645 424.965 240.904 426.081 242.503 427.907C244.102 429.733 244.91 432.119 244.749 434.54L244.729 434.837L221.263 433.275L221.89 423.849Z" fill="#2F2E41"/>
<path d="M259.861 428.524L266.991 426.987L264.449 398.768L253.927 401.037L259.861 428.524Z" fill="#9F616A"/>
<path d="M257.54 426.589L271.581 423.562L271.581 423.562C273.954 423.05 276.434 423.502 278.474 424.817C280.514 426.133 281.947 428.204 282.46 430.576L282.522 430.867L259.534 435.824L257.54 426.589Z" fill="#2F2E41"/>
<path d="M220.333 415.902L229.378 331.137L223.147 292.089C212.636 271.475 227.506 240.699 227.657 240.391L227.712 240.278L227.838 240.27L259.065 238.139L259.433 239.165C269.696 267.633 271.012 298.556 263.203 327.79L258.885 344.043L270.527 409.347L254.959 415.873L245.395 385.142L235.54 415.276L220.333 415.902Z" fill="#2F2E41"/>
<path d="M223.056 248.002L214.929 217.761C209.388 206.295 214.022 196.751 218.886 190.765C224.138 184.3 224.679 180.515 224.746 180.477L224.8 180.446L238.091 180.928L249.538 194.214C250.33 193.964 255.783 210.466 255.177 211.237L261.906 239.512L223.056 248.002Z" fill="#CBCBCB"/>
<path d="M304.467 258.559L272.92 230.631L249.287 198.668L237.492 208.728L265.718 241.966L300.488 265.186C300.673 266.426 301.236 267.579 302.101 268.486C302.966 269.394 304.09 270.013 305.32 270.258C306.55 270.502 307.826 270.361 308.973 269.854C310.12 269.346 311.082 268.497 311.727 267.422C312.372 266.347 312.67 265.1 312.579 263.849C312.488 262.599 312.012 261.407 311.218 260.437C310.423 259.467 309.348 258.766 308.14 258.43C306.932 258.094 305.649 258.139 304.467 258.559L304.467 258.559Z" fill="#9F616A"/>
<path d="M233.616 219.459L225.224 205.682C223.618 203.043 223.081 199.891 223.725 196.87C224.368 193.849 226.143 191.188 228.686 189.434C231.229 187.679 234.347 186.962 237.402 187.431C240.456 187.9 243.215 189.519 245.114 191.956L256.101 206.054L233.616 219.459Z" fill="#CBCBCB"/>
<path d="M230.14 176.757C238.84 177.336 246.362 170.757 246.941 162.061C247.52 153.366 240.937 145.847 232.237 145.268C223.537 144.688 216.015 151.268 215.436 159.963C214.857 168.659 221.44 176.178 230.14 176.757Z" fill="#9F616A"/>
<path d="M247.737 154.091L222.724 152.426L223.45 141.528C229.085 139.714 234.581 138.217 237.56 142.468C240.451 142.66 243.148 143.993 245.057 146.173C246.965 148.353 247.93 151.201 247.737 154.091Z" fill="#2F2E41"/>
<path d="M227.072 139.144C204.196 136.993 206.023 175.019 206.023 175.019C206.023 175.019 210.309 175.878 212.259 176.345L214.731 175.163L217.183 177.014C218.36 177.098 219.598 177.158 220.882 177.219L222.218 174.879L224.681 177.429C229.451 177.754 242.389 178.747 242.389 178.747C242.389 178.747 252.703 141.555 227.072 139.144Z" fill="#2F2E41"/>
<path opacity="0.3" fill-rule="evenodd" clip-rule="evenodd" d="M732.882 253.435C732.882 267.617 724.255 279.113 713.612 279.113C702.969 279.113 694.342 267.617 694.342 253.435C694.342 239.253 702.969 227.757 713.612 227.757C724.255 227.757 732.882 239.253 732.882 253.435Z" fill="#1C13BA"/>
<path opacity="0.35" d="M713.756 388.307V254.741" stroke="#4A42DE" stroke-width="9"/>
<path opacity="0.3" fill-rule="evenodd" clip-rule="evenodd" d="M693.003 291.156C702.103 300.251 703.947 313.152 697.122 319.973C690.298 326.794 677.388 324.951 668.288 315.857C659.188 306.762 657.345 293.86 664.169 287.039C670.994 280.218 683.903 282.062 693.003 291.156Z" fill="#1C13BA"/>
<path opacity="0.3" fill-rule="evenodd" clip-rule="evenodd" d="M757.978 309.841C765.316 317.175 763.333 331.047 753.549 340.825C743.765 350.603 729.885 352.585 722.547 345.251" fill="#1C13BA"/>
<path opacity="0.35" d="M748.092 322.76L714.326 356.602" stroke="#4A42DE" stroke-width="9"/>
<path opacity="0.35" d="M738.335 290.396L713.659 314.768" stroke="#4A42DE" stroke-width="9"/>
<path opacity="0.35" d="M688.038 343.893L713.817 369.946" stroke="#4A42DE" stroke-width="9"/>
<path opacity="0.35" d="M679.152 302.189L713.612 337.039" stroke="#4A42DE" stroke-width="9"/>
<path opacity="0.4" fill-rule="evenodd" clip-rule="evenodd" d="M724.089 434.178H703.423C687.55 434.178 674.563 421.198 674.563 405.334V378.193H752.95V405.334C752.95 421.198 739.963 434.178 724.089 434.178Z" fill="#4A42DE"/>
<path opacity="0.4" d="M752.95 393.278H674.563" stroke="#120AA4" stroke-width="9"/>
<path opacity="0.4" d="M752.95 408.409H674.563" stroke="#120AA4" stroke-width="9"/>
<path fill-rule="evenodd" clip-rule="evenodd" d="M611.419 158.319C611.419 170.879 622.645 181.061 636.492 181.061C650.34 181.061 661.566 170.879 661.566 158.319C661.566 145.758 650.34 135.576 636.492 135.576C622.645 135.576 611.419 145.758 611.419 158.319Z" fill="#FCBDA4"/>
<path fill-rule="evenodd" clip-rule="evenodd" d="M656.066 214.587L674.55 211.982C685.094 210.496 692.504 200.663 691.016 190.131C689.529 179.598 679.685 172.197 669.141 173.682L650.657 176.287C640.113 177.773 632.704 187.606 634.191 198.138C635.679 208.671 645.522 216.073 656.066 214.587Z" fill="#FCBDA4"/>
<path fill-rule="evenodd" clip-rule="evenodd" d="M653.191 182.772L668.502 180.614C676.052 179.55 681.358 172.509 680.293 164.968C679.228 157.426 672.179 152.126 664.629 153.19L649.318 155.348C641.768 156.412 636.462 163.453 637.528 170.994C638.592 178.536 645.641 183.836 653.191 182.772Z" fill="#FCBDA4"/>
<path fill-rule="evenodd" clip-rule="evenodd" d="M658.009 161.78C664.713 160.835 669.424 154.584 668.479 147.887H668.478C667.533 141.191 661.274 136.485 654.57 137.43C647.867 138.374 643.155 144.626 644.101 151.323C645.047 158.019 651.306 162.725 658.009 161.78Z" fill="#FCBDA4"/>
<path fill-rule="evenodd" clip-rule="evenodd" d="M632.672 185.551C632.672 185.551 637.263 185.687 639.221 184.619L632.916 188.573L632.672 185.551Z" fill="#CF3E83"/>
<mask id="mask0" mask-type="alpha" maskUnits="userSpaceOnUse" x="615" y="153" width="36" height="43">
<path d="M642.69 176.455C641.248 178.756 641.839 181.788 642.661 183.559C642.938 184.168 644.744 189.272 645.007 189.503C646.03 190.399 633.504 195.853 633.504 195.853L632.672 185.552C629.041 185.761 624.779 185.569 622.438 184.014C615.466 179.382 615.054 163.32 615.168 162.517L621.015 155.982C621.015 155.982 631.32 152.111 632.662 153.839C635.117 157.005 639.374 170.973 643.533 169.356C643.533 169.356 643.009 164.953 646.688 164.958C649.43 164.962 650.173 167.159 650.171 168.428C650.164 172.712 644.627 173.356 642.69 176.455Z" fill="#9F616A"/>
</mask>
<g mask="url(#mask0)">
<path d="M642.69 176.455C641.248 178.756 641.839 181.788 642.661 183.559C642.938 184.168 644.744 189.272 645.007 189.503C646.03 190.399 633.504 195.853 633.504 195.853L632.672 185.552C629.041 185.761 624.779 185.569 622.438 184.014C615.466 179.382 615.054 163.32 615.168 162.517L621.015 155.982C621.015 155.982 631.32 152.111 632.662 153.839C635.117 157.005 639.374 170.973 643.533 169.356C643.533 169.356 643.009 164.953 646.688 164.958C649.43 164.962 650.173 167.159 650.171 168.428C650.164 172.712 644.627 173.356 642.69 176.455Z" fill="#9F616A"/>
<path d="M613.088 158.277H651.082V196.939H613.088V158.277Z" fill="#9F616A"/>
</g>
<path fill-rule="evenodd" clip-rule="evenodd" d="M622.691 169.349L620.063 175.712L623.112 175.651L622.691 169.349Z" fill="#405FD3"/>
<path fill-rule="evenodd" clip-rule="evenodd" d="M625.488 169.625C625.554 170.896 626.302 171.886 627.16 171.837C628.018 171.787 628.66 170.717 628.595 169.446C628.529 168.175 627.781 167.184 626.923 167.234C626.065 167.283 625.423 168.354 625.488 169.625Z" fill="#0D0B6D"/>
<path fill-rule="evenodd" clip-rule="evenodd" d="M617.432 169.422C617.498 170.693 618.246 171.683 619.104 171.634C619.962 171.585 620.604 170.514 620.539 169.243C620.473 167.972 619.725 166.981 618.867 167.03C618.009 167.08 617.367 168.15 617.432 169.422Z" fill="#0D0B6D"/>
<path d="M623.86 178.699C623.86 178.699 625.846 179.339 627.836 177.128" stroke="#1C295E" stroke-width="3"/>
<path opacity="0.401762" fill-rule="evenodd" clip-rule="evenodd" d="M632.679 185.551C632.679 185.551 637.271 185.687 639.228 184.619L632.923 188.573L632.679 185.551Z" fill="black"/>
<path fill-rule="evenodd" clip-rule="evenodd" d="M631.683 154.038C631.163 155.753 630.343 157.306 629.292 158.658C629.156 158.824 629.018 158.998 628.87 159.161C627.914 160.271 626.798 161.229 625.565 162.013C622.239 164.122 618.046 164.964 613.839 164.119C613.624 164.075 613.414 164.028 613.202 163.973L614.784 158.752L614.788 158.753C614.834 158.589 614.882 158.43 614.931 158.267C616.884 151.824 621.043 146.616 626.415 143.143C627.414 142.496 628.456 141.913 629.534 141.392C630.995 143.465 631.925 145.857 632.204 148.356C632.414 150.221 632.257 152.144 631.683 154.038Z" fill="#FCBDA4"/>
<path fill-rule="evenodd" clip-rule="evenodd" d="M643.533 169.339C643.533 169.339 631.317 171.283 627.042 155.949C622.619 140.087 650.171 150.686 650.171 150.686L641.926 160.545L643.533 169.339Z" fill="#FCBDA4"/>
<path fill-rule="evenodd" clip-rule="evenodd" d="M639.226 182.221C639.226 186.486 642.687 189.944 646.957 189.944C651.228 189.944 654.689 186.486 654.689 182.221C654.689 177.955 651.228 174.497 646.957 174.497C642.687 174.497 639.226 177.955 639.226 182.221Z" fill="#FCBDA4"/>
<path fill-rule="evenodd" clip-rule="evenodd" d="M606.361 274.252C606.361 274.252 620.15 252.239 620.838 246.779C621.567 240.994 620.913 233.525 620.913 233.525L611.602 227.988L609.246 241.756L599.198 273.258" fill="#E576C6"/>
<mask id="mask1" mask-type="alpha" maskUnits="userSpaceOnUse" x="593" y="269" width="92" height="26">
<path d="M606.814 271.367C606.05 269.572 602.037 269.068 602.037 269.068C602.037 269.068 595.633 276.433 595.06 277.557C594.486 278.682 593.426 284.249 593.477 285.35C593.528 286.45 596.83 291.392 596.83 291.392C598.88 290.891 597.541 288.338 597.541 288.338C597.541 288.338 599.377 289.889 600.14 289.863C607.327 289.618 606.942 285.983 606.772 285.528C606.39 284.506 604.472 285.675 604.472 285.675C604.472 285.675 608.999 276.499 606.814 271.367ZM671.418 269.248L669.996 278.078C669.996 278.078 669.987 279.893 670.241 281.977C670.495 284.062 670.702 285.318 670.001 288.694C669.512 291.046 672.598 289.67 673.231 288.273C673.883 286.833 673.151 281.709 674.95 282.344C676.749 282.979 678.436 287.917 679.237 292.762C679.363 293.523 680.066 294.007 680.515 294.131C681.243 294.332 681.471 291.168 681.471 291.168C681.471 291.168 682.059 292.127 682.98 291.459C683.306 291.223 683.903 288.969 683.903 288.969C683.903 288.969 684.501 287.788 684.675 286.584C684.982 284.456 684.744 280.693 684.338 279.664C683.353 277.173 681.463 272.968 679.82 270.921C678.194 268.895 675.351 271.062 671.418 269.248Z" fill="white"/>
</mask>
<g mask="url(#mask1)">
<path d="M606.814 271.367C606.05 269.572 602.037 269.068 602.037 269.068C602.037 269.068 595.633 276.433 595.06 277.557C594.486 278.682 593.426 284.249 593.477 285.35C593.528 286.45 596.83 291.392 596.83 291.392C598.88 290.891 597.541 288.338 597.541 288.338C597.541 288.338 599.377 289.889 600.14 289.863C607.327 289.618 606.942 285.983 606.772 285.528C606.39 284.506 604.472 285.675 604.472 285.675C604.472 285.675 608.999 276.499 606.814 271.367ZM671.418 269.248L669.996 278.078C669.996 278.078 669.987 279.893 670.241 281.977C670.495 284.062 670.702 285.318 670.001 288.694C669.512 291.046 672.598 289.67 673.231 288.273C673.883 286.833 673.151 281.709 674.95 282.344C676.749 282.979 678.436 287.917 679.237 292.762C679.363 293.523 680.066 294.007 680.515 294.131C681.243 294.332 681.471 291.168 681.471 291.168C681.471 291.168 682.059 292.127 682.98 291.459C683.306 291.223 683.903 288.969 683.903 288.969C683.903 288.969 684.501 287.788 684.675 286.584C684.982 284.456 684.744 280.693 684.338 279.664C683.353 277.173 681.463 272.968 679.82 270.921C678.194 268.895 675.351 271.062 671.418 269.248Z" fill="#E576C6"/>
<path d="M593.558 268.943H685.525V294.126H593.558V268.943Z" fill="#9F616A"/>
</g>
<path opacity="0.152414" d="M603.004 275.699C603.004 275.699 601.996 279.504 598.535 280.69C597.324 281.105 597.627 285.999 594.66 285.414" stroke="black" stroke-width="3"/>
<path fill-rule="evenodd" clip-rule="evenodd" d="M680.306 270C680.306 270 680.742 240.025 678.713 235.089C676.684 230.153 673.011 223.535 673.011 223.535L662.118 230.369L667.961 239.248L671.988 269.531" fill="#E576C6"/>
<mask id="mask2" mask-type="alpha" maskUnits="userSpaceOnUse" x="599" y="185" width="82" height="88">
<path d="M645.468 192.963L644.45 185.589L628.937 187.725L629.783 193.854C625.229 194.293 622.129 195.181 619.228 197.842C609.91 206.386 609.225 238.373 609.225 238.373L599.378 271.98L607.481 272.995C607.481 272.995 621.046 255.04 624.043 245.385H651.828C651.828 245.385 651.565 242.516 652.219 238.369C653.078 232.946 656.164 228.903 656.164 228.903L661.746 235.762L671.418 269.984L680.306 271.576C680.306 271.576 682.972 243.601 677.579 228.324C672.863 214.963 664.26 200.452 657.541 196.224C653.276 193.539 649.27 192.95 645.468 192.963Z" fill="white"/>
</mask>
<g mask="url(#mask2)">
<path d="M645.468 192.963L644.45 185.589L628.937 187.725L629.783 193.854C625.229 194.293 622.129 195.181 619.228 197.842C609.91 206.386 609.225 238.373 609.225 238.373L599.378 271.98L607.481 272.995C607.481 272.995 621.046 255.04 624.043 245.385H651.828C651.828 245.385 651.565 242.516 652.219 238.369C653.078 232.946 656.164 228.903 656.164 228.903L661.746 235.762L671.418 269.984L680.306 271.576C680.306 271.576 682.972 243.601 677.579 228.324C672.863 214.963 664.26 200.452 657.541 196.224C653.276 193.539 649.27 192.95 645.468 192.963Z" fill="#C83820"/>
<path d="M598.884 185.589H681.974V272.844H598.884V185.589Z" fill="#F6B852"/>
</g>
<path opacity="0.195894" d="M621.286 245.758C620.146 231.306 612.262 228.251 617.943 212.044" stroke="black" stroke-width="3"/>
<path opacity="0.195894" d="M649.245 218.428L656.165 228.901" stroke="black" stroke-width="3"/>
<mask id="mask3" mask-type="alpha" maskUnits="userSpaceOnUse" x="580" y="435" width="84" height="12">
<path d="M652.031 435.851L643.39 435.419L642.467 446.315H663.069C658.559 437.455 652.031 435.851 652.031 435.851ZM602.605 435.824C602.605 435.824 586.341 440.083 580.228 446.417L609.496 446.469L608.7 435.637L602.605 435.824Z" fill="white"/>
</mask>
<g mask="url(#mask3)">
<path d="M652.031 435.851L643.39 435.419L642.467 446.315H663.069C658.559 437.455 652.031 435.851 652.031 435.851ZM602.605 435.824C602.605 435.824 586.341 440.083 580.228 446.417L609.496 446.469L608.7 435.637L602.605 435.824Z" fill="#0D0B6D"/>
<path d="M580.065 434.586H664.93V446.646H580.065V434.586Z" fill="#0D0B6D"/>
</g>
<mask id="mask4" mask-type="alpha" maskUnits="userSpaceOnUse" x="588" y="328" width="72" height="114">
<path d="M645.7 436.918C647.468 438.769 650.876 441.449 655.855 441.548C660.387 441.638 652.103 435.958 650.664 434.993L659.269 339.192L636.658 328.728L643.67 437.289L645.7 436.918ZM599.77 436.106L588.113 441.16C595.257 441.942 602.431 438.959 606.131 437.074H608.441L629.708 342.778L610.26 341.871C610.26 341.871 608.221 363.167 605.88 386.433C603.269 412.367 600.439 431.67 599.77 436.106Z" fill="white"/>
</mask>
<g mask="url(#mask4)">
<path d="M645.7 436.918C647.468 438.769 650.876 441.449 655.855 441.548C660.387 441.638 652.103 435.958 650.664 434.993L659.269 339.192L636.658 328.728L643.67 437.289L645.7 436.918ZM599.77 436.106L588.113 441.16C595.257 441.942 602.431 438.959 606.131 437.074H608.441L629.708 342.778L610.26 341.871C610.26 341.871 608.221 363.167 605.88 386.433C603.269 412.367 600.439 431.67 599.77 436.106Z" fill="#E576C6"/>
<path d="M588.232 344.848H663.155V441.68H588.232V344.848Z" fill="#9F616A"/>
</g>
<mask id="mask5" mask-type="alpha" maskUnits="userSpaceOnUse" x="603" y="241" width="69" height="104">
<path d="M650.975 241.986C650.975 241.986 657.002 244.864 662.246 260.489C669.265 281.401 671.322 344.743 671.322 344.743H603.738L621.154 242.44L650.975 241.986Z" fill="white"/>
</mask>
<g mask="url(#mask5)">
<path d="M650.975 241.986C650.975 241.986 657.002 244.864 662.246 260.489C669.265 281.401 671.322 344.743 671.322 344.743H603.738L621.154 242.44L650.975 241.986Z" fill="#2F2F3D"/>
<path d="M603.856 241.986H671.322V346.622H603.856V241.986Z" fill="#2437A8"/>
</g>
<path d="M720.284 447.383H456.692C456.508 447.383 456.332 447.31 456.203 447.18C456.073 447.051 456 446.875 456 446.692C456 446.508 456.073 446.332 456.203 446.203C456.332 446.073 456.508 446 456.692 446H720.284C720.468 446 720.644 446.073 720.773 446.203C720.903 446.332 720.976 446.508 720.976 446.692C720.976 446.875 720.903 447.051 720.773 447.18C720.644 447.31 720.468 447.383 720.284 447.383Z" fill="#D0E5FF"/>
</svg>
