<svg width="707" height="572" viewBox="0 0 707 572" fill="none" xmlns="http://www.w3.org/2000/svg">
<path opacity="0.34" d="M633.805 571.412H62.1341C54.8405 571.412 48.9318 565.502 48.9318 558.209C48.9318 550.916 54.8405 545.006 62.1341 545.006H633.805C641.098 545.006 647.007 550.916 647.007 558.209C647.007 565.502 641.098 571.412 633.805 571.412Z" fill="#7F8AE5"/>
<path d="M675.812 397.472H559.576C547.759 397.472 538.156 387.871 538.156 376.053C538.156 364.236 547.759 354.634 559.576 354.634H624.479C638.513 354.634 649.868 343.278 649.868 329.245C649.868 315.212 638.513 303.856 624.479 303.856H566.777C550.99 303.856 538.156 291.024 538.156 275.236C538.156 259.448 550.99 246.615 566.777 246.615H630.942C644.976 246.615 656.424 235.168 656.424 221.133C656.424 207.1 644.976 195.653 630.942 195.653H538.249H516.091C502.058 195.653 490.609 184.204 490.609 170.171C490.609 156.138 502.058 144.69 516.091 144.69H541.203C555.236 144.69 566.685 133.241 566.685 119.208C566.685 105.175 555.236 93.7267 541.203 93.7267H526.893H524.493H372.805H367.634H209.207H172.923C158.89 93.7267 147.441 105.175 147.441 119.208C147.441 133.241 158.89 144.69 172.923 144.69H183.725C197.758 144.69 209.207 156.138 209.207 170.171C209.207 184.204 197.758 195.653 183.725 195.653H86.5076C75.7057 195.653 66.9349 204.423 66.9349 215.225C66.9349 226.027 75.7057 234.798 86.5076 234.798H188.895C200.159 234.798 209.298 243.938 209.298 255.202C209.298 266.465 200.159 275.605 188.895 275.605H25.4814C11.4482 275.605 0 287.053 0 301.087C0 315.12 11.4482 326.568 25.4814 326.568H183.725C197.758 326.568 209.207 338.016 209.207 352.049C209.207 366.082 197.758 377.531 183.725 377.531H88.1694C65.6424 377.531 47.3622 395.811 47.3622 418.338C47.3622 440.865 65.6424 459.145 88.1694 459.145H209.207H262.939H293.129H538.249H675.812C692.799 459.145 706.556 445.389 706.556 428.401C706.556 411.229 692.799 397.472 675.812 397.472Z" fill="#7F8AE5"/>
<path d="M460.15 558.231H476.769V308.218H460.15V558.231Z" fill="#2F262D"/>
<path d="M396.901 358.605C394.224 352.604 396.901 345.494 402.994 342.724C404.564 342.078 406.226 341.709 407.888 341.709C412.596 341.709 416.936 344.479 418.874 348.818L477.961 481.949L455.988 491.736L396.901 358.605Z" fill="#FC9F6F"/>
<path d="M298.118 558.231H314.737V308.218H298.118V558.231Z" fill="#2F262D"/>
<path d="M375.02 324.536C317.872 324.536 271.617 280.96 271.617 227.32C271.617 213.472 274.757 200.269 280.296 188.267C243.92 203.316 218.531 237.567 218.531 277.267C218.531 330.999 264.786 374.484 321.934 374.484C364.311 374.484 400.686 350.573 416.659 316.32C403.825 321.582 389.792 324.536 375.02 324.536Z" fill="#F2F2F2"/>
<path d="M317.779 350.849C349.036 350.849 374.374 327.578 374.374 298.871C374.374 270.163 349.036 246.893 317.779 246.893C286.523 246.893 261.184 270.163 261.184 298.871C261.184 327.578 286.523 350.849 317.779 350.849Z" fill="#3B323A"/>
<path d="M215.854 308.195H89.2773C84.4765 308.195 80.5065 304.225 80.5065 299.425V291.115C80.5065 286.315 84.4765 282.345 89.2773 282.345H215.854C220.654 282.345 224.625 286.315 224.625 291.115V299.425C224.625 304.225 220.654 308.195 215.854 308.195Z" fill="#AFAFAF"/>
<path d="M366.804 259.264C349.078 259.264 334.675 244.862 334.675 227.135V195.007C334.675 182.727 324.796 172.849 312.517 172.849V227.135C312.517 257.14 336.798 281.421 366.804 281.421H411.765V259.264H366.804Z" fill="#EF9067"/>
<path d="M374.097 89.6645C370.774 131.672 333.844 178.203 299.314 172.295C266.262 166.662 243.551 114.499 254.722 77.9394C261.646 55.4123 280.665 41.2867 295.991 29.9309C311.871 18.1134 322.58 10.1735 334.767 12.1123C358.956 15.8053 376.775 56.2432 374.097 89.6645Z" fill="#603936"/>
<path d="M327.473 209.224C326.827 208.485 321.657 202.484 320.733 201.654C318.333 191.775 313.44 180.881 314.456 168.14C307.532 163.062 296.083 156.599 283.066 157.523C279.187 157.8 275.126 158.723 273.095 159.185C261.831 161.77 254.722 165.925 252.413 167.309C249.275 169.248 247.706 170.171 245.859 172.017C240.873 177.188 239.674 183.466 239.027 187.159C233.487 219.287 237.827 250.124 238.38 252.801C239.396 257.694 240.781 262.033 240.781 262.033C243.089 269.327 245.859 273.851 246.598 275.882C250.291 285.853 258.692 306.81 267.555 322.783C274.018 323.799 288.697 330.261 298.391 326.937C313.163 321.859 343.63 310.503 354.524 308.195C340.953 292.962 328.489 275.975 325.258 255.293C324.426 249.939 323.689 244.676 323.134 239.507C324.426 238.861 332.274 234.89 333.844 226.95C335.505 218.364 328.766 210.702 327.473 209.224Z" fill="#F05364"/>
<path d="M294.133 189.737C302.188 187.49 306.597 178.065 303.981 168.685C301.365 159.304 292.714 153.52 284.66 155.767C276.605 158.013 272.197 167.438 274.812 176.818C277.428 186.199 286.079 191.983 294.133 189.737Z" fill="#EF9067"/>
<path d="M287.035 151.799C292.113 163.801 300.515 167.956 305.87 171.094C316.303 177.188 335.875 176.634 335.875 176.634C336.521 172.387 337.167 168.694 340.491 161.677C345.292 151.244 349.724 148.752 355.909 139.335C365.142 125.116 369.758 107.945 366.804 106.283C364.68 104.99 358.863 111.638 355.079 115.515C344.276 126.594 320.087 143.028 287.035 151.799Z" fill="#603936"/>
<path d="M286.666 178.203H282.789C274.295 178.203 267.463 171.371 267.463 162.878V104.621H298.114V166.662C298.114 173.033 292.944 178.203 286.666 178.203Z" fill="#EF9067"/>
<path d="M114.097 558.231H130.715V308.218H114.097V558.231Z" fill="#2F262D"/>
<path d="M216.31 558.231H232.928V308.218H216.31V558.231Z" fill="#494149"/>
<path d="M560.177 558.231H576.795V308.218H560.177V558.231Z" fill="#494149"/>
<path opacity="0.71" d="M267.463 110.806C269.493 128.441 281.681 143.028 298.114 148.567V101.113H267.463V110.806Z" fill="#D36B46"/>
<path d="M312.517 146.259C289.99 146.259 271.802 128.071 271.802 105.544V55.8738C271.802 53.7504 273.464 52.0886 275.587 52.0886H333.474C344.369 52.0886 353.232 60.9517 353.232 71.8459V105.544C353.232 128.071 335.044 146.259 312.517 146.259Z" fill="#FC9F6F"/>
<path d="M353.232 99.7278C352.771 100.836 351.662 101.574 350.462 101.574H332.551C330.889 101.574 329.504 100.189 329.504 98.5276V88.4643C329.504 86.8025 330.889 85.4176 332.551 85.4176H350.462C351.662 85.4176 352.771 86.1562 353.232 87.2641V83.3865C352.401 82.9249 351.477 82.6479 350.462 82.6479H332.551C329.32 82.6479 326.734 85.233 326.734 88.4643V98.5276C326.734 101.759 329.32 104.344 332.551 104.344H350.462C351.477 104.344 352.401 104.067 353.232 103.605V99.7278Z" fill="#DD9883"/>
<path d="M317.226 102.867H299.314C296.822 102.867 294.883 100.836 294.883 98.4352V88.3719C294.883 85.8792 296.915 83.9404 299.314 83.9404H317.226C319.718 83.9404 321.657 85.9715 321.657 88.3719V98.4352C321.657 100.928 319.626 102.867 317.226 102.867Z" stroke="#DD9883" stroke-width="3" stroke-miterlimit="10" stroke-linecap="round" stroke-linejoin="round"/>
<path opacity="0.6" d="M297.099 113.3V63.6291C297.099 61.5056 298.761 59.8438 300.884 59.8438L334.306 48.1186C330.705 43.4101 339.845 52.1809 333.474 52.1809H275.587C273.464 52.1809 271.802 53.8427 271.802 55.9662V105.636C271.802 128.163 289.99 146.351 312.517 146.351C312.979 146.351 313.44 146.351 313.995 146.351C303.746 138.873 297.099 126.871 297.099 113.3Z" fill="#EF9067"/>
<path d="M350.462 101.02H332.551C330.058 101.02 328.119 98.9892 328.119 96.5887V86.5254C328.119 84.0327 330.151 82.0939 332.551 82.0939H350.462C352.955 82.0939 354.893 84.125 354.893 86.5254V96.5887C354.893 99.0815 352.862 101.02 350.462 101.02Z" stroke="#F6CDF7" stroke-width="3" stroke-miterlimit="10" stroke-linecap="round" stroke-linejoin="round"/>
<path d="M323.134 125.764C317.964 125.764 313.809 121.609 313.809 116.531V112.191H332.274V116.531C332.274 121.609 328.212 125.764 323.134 125.764Z" fill="#FCFAFA"/>
<path d="M306.423 90.403H314.732" stroke="#161515" stroke-width="3" stroke-miterlimit="10" stroke-linecap="round" stroke-linejoin="round"/>
<path d="M337.813 90.403H346.122" stroke="#161515" stroke-width="3" stroke-miterlimit="10" stroke-linecap="round" stroke-linejoin="round"/>
<path d="M317.226 101.02H299.314C296.822 101.02 294.883 98.9892 294.883 96.5887V86.5254C294.883 84.0327 296.915 82.0939 299.314 82.0939H317.226C319.718 82.0939 321.657 84.125 321.657 86.5254V96.5887C321.657 99.0815 319.626 101.02 317.226 101.02Z" stroke="#F6CDF7" stroke-width="3" stroke-miterlimit="10" stroke-linecap="round" stroke-linejoin="round"/>
<path d="M329.597 14.6973C318.425 0.294792 299.407 0.571767 295.899 0.202471C292.76 -0.443797 275.494 0.387123 262.846 3.71078C233.673 11.466 213.361 37.8706 213.361 68.1529V106.929C213.361 132.964 232.564 164.54 257.215 172.756C270.878 177.372 286.02 180.881 289.62 180.327C271.34 146.444 273.834 126.41 279.003 114.685C291.375 86.0638 327.658 87.0794 336.614 55.2276C336.798 54.3043 342.429 31.3156 329.597 14.6973Z" fill="#754743"/>
<path d="M443.524 281.144C444.447 278.744 444.909 276.159 444.909 273.482C444.909 261.203 435.031 251.324 422.751 251.324C410.473 251.324 400.594 261.203 400.594 273.482C400.594 276.159 401.055 278.744 401.978 281.144H443.524Z" fill="#EF9067"/>
<path d="M372.435 282.345C370.588 273.851 360.341 267.388 347.877 267.388C335.505 267.388 325.165 273.851 323.319 282.345H372.435Z" fill="#F4EFF0"/>
<path d="M250.844 217.718C258.289 217.718 264.324 208.252 264.324 196.576C264.324 184.899 258.289 175.433 250.844 175.433C243.4 175.433 237.366 184.899 237.366 196.576C237.366 208.252 243.4 217.718 250.844 217.718Z" fill="#EF9067"/>
<path d="M291.651 260.002C273.925 260.002 259.523 245.599 259.523 227.873V188.636C259.523 182.543 254.537 177.557 248.444 177.557C242.351 177.557 237.366 182.543 237.366 188.636V227.873C237.366 257.879 261.646 282.16 291.651 282.16H336.614V260.002H314.086H291.651Z" fill="#FC9F6F"/>
<path d="M478.331 282.345H374.928C373.635 282.345 372.527 281.237 372.527 279.945C372.527 278.652 373.635 277.544 374.928 277.544H478.423C479.716 277.544 480.824 278.652 480.824 279.945C480.824 281.237 479.716 282.345 478.331 282.345Z" fill="white"/>
<path d="M478.331 279.945H374.928C374.005 279.945 373.266 279.483 372.805 278.744C372.62 279.113 372.435 279.483 372.435 279.945C372.435 281.237 373.543 282.345 374.836 282.345H478.331C479.623 282.345 480.731 281.237 480.731 279.945C480.731 279.483 480.639 279.113 480.362 278.744C479.992 279.39 479.254 279.945 478.331 279.945Z" fill="#F4EFF0"/>
<path d="M394.962 282.345H374.928C373.635 282.345 372.527 281.237 372.527 279.945C372.527 278.652 373.635 277.544 374.928 277.544H394.962C396.255 277.544 397.362 278.652 397.362 279.945C397.362 281.237 396.347 282.345 394.962 282.345Z" fill="#F4EFF0"/>
<path d="M471.037 277.544H463.467V275.79C463.467 274.867 464.205 274.035 465.22 274.035H469.283C470.207 274.035 471.037 274.774 471.037 275.79V277.544Z" fill="#F4EFF0"/>
<path d="M461.805 277.544H454.234V275.79C454.234 274.867 454.973 274.035 455.988 274.035H460.051C460.974 274.035 461.805 274.774 461.805 275.79V277.544Z" fill="#F4EFF0"/>
<path d="M452.572 277.544H445.002V275.79C445.002 274.867 445.741 274.035 446.756 274.035H450.818C451.742 274.035 452.572 274.774 452.572 275.79V277.544Z" fill="#F4EFF0"/>
<path d="M443.34 277.544H435.769V275.79C435.769 274.867 436.508 274.035 437.523 274.035H441.586C442.509 274.035 443.34 274.774 443.34 275.79V277.544Z" fill="#F4EFF0"/>
<path d="M434.107 277.544H426.537V275.79C426.537 274.867 427.276 274.035 428.291 274.035H432.354C433.277 274.035 434.107 274.774 434.107 275.79V277.544Z" fill="#F4EFF0"/>
<path d="M424.875 277.544H417.305V275.79C417.305 274.867 418.043 274.035 419.058 274.035H423.121C424.044 274.035 424.875 274.774 424.875 275.79V277.544Z" fill="#F4EFF0"/>
<path d="M415.643 277.544H408.072V275.79C408.072 274.867 408.811 274.035 409.826 274.035H413.889C414.812 274.035 415.643 274.774 415.643 275.79V277.544Z" fill="#F4EFF0"/>
<path d="M406.41 277.544H398.84V275.79C398.84 274.867 399.579 274.035 400.594 274.035H404.656C405.58 274.035 406.41 274.774 406.41 275.79V277.544Z" fill="#F4EFF0"/>
<path d="M397.178 277.544H389.607V275.79C389.607 274.867 390.346 274.035 391.361 274.035H395.424C396.347 274.035 397.178 274.774 397.178 275.79V277.544Z" fill="#F4EFF0"/>
<path d="M387.945 277.544H380.375V275.79C380.375 274.867 381.114 274.035 382.129 274.035H386.192C387.115 274.035 387.945 274.774 387.945 275.79V277.544Z" fill="#F4EFF0"/>
<path d="M374.928 282.345H394.962C396.255 282.345 397.362 281.237 397.362 279.945H372.435C372.435 281.237 373.543 282.345 374.928 282.345Z" fill="#E2E2E2"/>
<path d="M383.884 357.312H310.855L310.302 318.535H400.779C406.872 318.535 411.765 323.429 411.765 329.523C411.672 344.941 399.209 357.312 383.884 357.312Z" fill="#352934"/>
<path d="M325.165 497.921L369.942 346.51C371.42 341.432 376.128 337.923 381.483 337.923C382.59 337.923 383.791 338.109 384.898 338.385C391.269 340.232 394.87 346.971 393.023 353.342L348.246 504.754L325.165 497.921Z" fill="#EF9067"/>
<path d="M362.372 485.55L325.165 474.563L372.066 316.043C375.113 305.795 385.914 299.886 396.163 302.933C406.41 305.98 412.32 316.782 409.273 327.03L362.372 485.55Z" fill="#352934"/>
<path d="M547.204 237.476H392.1C389.053 237.476 386.561 234.982 386.561 231.936L405.764 121.147C405.764 118.101 408.257 115.608 411.304 115.608H566.408C569.455 115.608 571.947 118.101 571.947 121.147L552.744 231.936C552.744 234.982 550.344 237.476 547.204 237.476Z" fill="#CECECE"/>
<path d="M556.437 237.476H401.332C398.285 237.476 395.793 234.982 395.793 231.936L414.997 121.147C414.997 118.101 417.489 115.608 420.536 115.608H575.64C578.687 115.608 581.18 118.101 581.18 121.147L561.976 231.936C561.976 234.982 559.576 237.476 556.437 237.476Z" fill="#F4EFF0"/>
<path d="M509.074 276.344L496.334 211.809H473.622C470.853 211.809 468.729 214.395 469.283 217.072L480.547 274.035C481.008 276.159 479.346 278.098 477.222 278.098H463.374C460.881 278.098 458.943 280.129 458.943 282.529H482.209H503.812C507.228 282.622 509.721 279.575 509.074 276.344Z" fill="#CECECE"/>
<path d="M510.275 282.622H486.732L473.068 213.379C472.883 212.548 473.53 211.901 474.361 211.901H500.858L513.968 278.283C514.338 280.498 512.583 282.622 510.275 282.622Z" fill="#F4EFF0"/>
<path d="M482.3 282.622H486.732L485.532 276.344H481.008L482.3 282.622Z" fill="#F4EFF0"/>
<path d="M482.3 282.622C484.608 282.622 486.363 280.498 485.902 278.19L485.532 276.344H480.547L482.3 282.622Z" fill="#CECECE"/>
<path d="M502.612 178.757C497.627 178.757 493.565 174.695 493.565 169.709C493.565 168.047 494.026 166.571 494.764 165.278C493.472 164.909 492.087 164.631 490.609 164.631C482.762 164.631 476.485 171.002 476.485 178.757C476.485 186.512 482.855 192.883 490.609 192.883C498.457 192.883 504.735 186.512 504.735 178.757C504.735 178.665 504.735 178.573 504.735 178.48C503.996 178.665 503.35 178.757 502.612 178.757Z" fill="#CECECE"/>
<path d="M395.24 336.17L319.164 356.204C298.484 361.651 277.526 346.971 267.463 322.69L385.36 298.594C395.701 295.916 406.319 302.103 408.995 312.443C411.765 322.876 405.58 333.492 395.24 336.17Z" fill="#3B323A"/>
<path d="M471.776 451.575L436.324 467.363L374.19 327.583C369.851 317.797 374.281 306.349 384.068 302.01C393.855 297.671 405.303 302.101 409.642 311.888L471.776 451.575Z" fill="#3B323A"/>
<path d="M208.191 308.195H603.522C608.323 308.195 612.293 304.225 612.293 299.425V291.115C612.293 286.315 608.323 282.345 603.522 282.345H208.191C203.39 282.345 199.42 286.315 199.42 291.115V299.425C199.42 304.225 203.297 308.195 208.191 308.195Z" fill="#F2F2F2"/>
<path d="M529.571 496.536L451.003 510.847C447.956 511.401 445.095 509.462 444.447 506.6L443.894 504.107C442.325 496.905 446.941 489.612 454.511 487.674L511.752 473.178C522.831 470.408 534.002 475.486 536.034 484.811L536.771 488.136C537.603 491.92 534.372 495.706 529.571 496.536Z" fill="#535452"/>
<path d="M532.617 489.428L444.817 505.4C444.633 505.4 444.447 505.492 444.263 505.492L444.54 506.599C445.186 509.554 448.049 511.401 451.096 510.847L529.663 496.536C534.463 495.706 537.787 491.92 536.957 488.135L536.864 487.858C535.572 488.597 534.187 489.15 532.617 489.428Z" fill="#FFFDFD"/>
<path d="M367.357 545.93L301.715 500.506C299.223 498.753 298.484 495.336 300.146 492.843L301.531 490.628C305.5 484.443 313.995 482.503 320.642 486.565L371.327 516.848C381.206 522.757 385.453 534.298 380.282 542.237L378.436 545.099C376.405 548.331 371.327 548.699 367.357 545.93Z" fill="#424441"/>
<path d="M374.558 543.068L301.161 492.29C300.976 492.197 300.884 492.013 300.699 491.92L300.146 492.843C298.575 495.336 299.223 498.753 301.715 500.506L367.357 545.93C371.327 548.699 376.405 548.331 378.436 545.099L378.621 544.822C377.236 544.545 375.852 543.899 374.558 543.068Z" fill="#CECECE"/>
<path d="M185.571 282.345H170.615C163.045 282.345 156.858 276.159 156.858 268.589V227.873H199.327V268.589C199.42 276.159 193.234 282.345 185.571 282.345Z" fill="#FF6161"/>
<path d="M161.66 233.413C151.78 233.413 143.841 241.445 143.841 251.232C143.841 261.018 151.873 269.05 161.66 269.05C171.445 269.05 179.477 261.018 179.477 251.232C179.477 241.445 171.445 233.413 161.66 233.413ZM161.66 265.173C153.997 265.173 147.718 258.895 147.718 251.232C147.718 243.568 153.997 237.29 161.66 237.29C169.322 237.29 175.6 243.568 175.6 251.232C175.508 258.986 169.322 265.173 161.66 265.173Z" fill="#F4A36C"/>
<path d="M185.571 282.345H170.615C163.045 282.345 156.858 276.159 156.858 268.589V227.873H199.327V268.589C199.42 276.159 193.234 282.345 185.571 282.345Z" fill="#F7BC8B"/>
<path d="M176.985 269.419C172.739 269.419 169.322 266.003 169.322 261.756V227.873H156.858V268.589C156.858 276.159 163.045 282.345 170.615 282.345H185.571C192.864 282.345 198.866 276.621 199.327 269.419H176.985Z" fill="#EFA573"/>
<path d="M353.047 282.345C353.97 279.945 354.432 277.36 354.432 274.681C354.432 262.403 344.553 252.524 332.274 252.524C319.996 252.524 310.116 262.403 310.116 274.681C310.116 277.36 310.578 279.945 311.501 282.345H353.047Z" fill="#FC9F6F"/>
<path opacity="0.77" d="M173.476 220.487C176.791 220.487 179.477 217.801 179.477 214.486C179.477 211.172 176.791 208.485 173.476 208.485C170.162 208.485 167.475 211.172 167.475 214.486C167.475 217.801 170.162 220.487 173.476 220.487Z" fill="#F2F2F2"/>
<path opacity="0.77" d="M184.555 202.484C189.502 202.484 193.512 198.475 193.512 193.529C193.512 188.583 189.502 184.574 184.555 184.574C179.61 184.574 175.6 188.583 175.6 193.529C175.6 198.475 179.61 202.484 184.555 202.484Z" fill="#F2F2F2"/>
<path d="M96.9402 144.69C111.014 144.69 122.422 133.282 122.422 119.208C122.422 105.135 111.014 93.7267 96.9402 93.7267C82.8673 93.7267 71.4588 105.135 71.4588 119.208C71.4588 133.282 82.8673 144.69 96.9402 144.69Z" fill="#7F8AE5"/>
</svg>
