<svg width="660" height="436" viewBox="0 0 660 436" fill="none" xmlns="http://www.w3.org/2000/svg">
<path d="M278.185 132.644C278.185 132.644 285.398 114.532 290.351 115.291C295.305 116.049 291.376 123.047 291.376 123.047C291.376 123.047 303.694 117.832 307.623 121.511C311.552 125.19 287.542 139.149 287.542 139.149L278.185 132.644Z" fill="#F4A28C"/>
<path d="M239.6 175.012L276.155 129.514L291.927 140.325L263.837 216.831L227.965 216.983L239.6 175.012Z" fill="#105EB7"/>
<path opacity="0.09" d="M239.6 175.012L276.155 129.514L291.927 140.325L263.837 216.831L227.965 216.983L239.6 175.012Z" fill="black"/>
<path d="M471.513 158.342L498.008 216.831H447.579L471.513 158.342Z" fill="#24285B"/>
<path opacity="0.44" d="M471.513 158.342L498.008 216.831H447.579L471.513 158.342Z" fill="white"/>
<path d="M289.156 202.247L322.313 129.04C323.109 127.282 324.395 125.791 326.018 124.745C327.64 123.698 329.53 123.142 331.461 123.142H476.295C477.723 123.143 479.129 123.494 480.389 124.165C481.649 124.835 482.725 125.806 483.522 126.989C484.319 128.173 484.812 129.535 484.958 130.954C485.105 132.373 484.9 133.807 484.362 135.128L453.083 211.559C452.448 213.12 451.361 214.455 449.961 215.395C448.561 216.334 446.912 216.834 445.226 216.831H298.57C296.841 216.833 295.14 216.402 293.621 215.576C292.103 214.751 290.816 213.557 289.879 212.106C288.942 210.654 288.385 208.991 288.259 207.269C288.132 205.546 288.441 203.819 289.156 202.247Z" fill="#24285B"/>
<path d="M308.629 198.074L336.377 136.797C336.875 135.708 337.678 134.787 338.688 134.145C339.699 133.502 340.873 133.165 342.071 133.175H461.738C462.331 133.186 462.912 133.341 463.431 133.627C463.95 133.913 464.391 134.321 464.716 134.817C465.042 135.312 465.241 135.879 465.298 136.468C465.354 137.058 465.266 137.653 465.041 138.2L438.469 202.967C437.998 204.089 437.207 205.047 436.195 205.722C435.182 206.396 433.992 206.758 432.775 206.76H314.247C313.218 206.758 312.206 206.5 311.303 206.007C310.4 205.515 309.635 204.805 309.076 203.942C308.518 203.079 308.185 202.09 308.106 201.065C308.028 200.04 308.208 199.012 308.629 198.074Z" fill="white"/>
<path d="M425.677 140.324L403.774 193.219H431.769L450.616 140.324H425.677Z" fill="#E6E6E6"/>
<path opacity="0.51" d="M346.417 140.324L340.951 152.102H414.422L418.749 140.324H346.417Z" fill="#E6E6E6"/>
<path opacity="0.66" d="M414.099 0H292.819V84.851H414.099V0Z" fill="#E6E6E6"/>
<path opacity="0.31" d="M574.174 42.6531H480.376V108.273H574.174V42.6531Z" fill="#E6E6E6"/>
<path opacity="0.3" d="M330 435.217C512.254 435.217 660 423.312 660 408.628C660 393.943 512.254 382.038 330 382.038C147.746 382.038 0 393.943 0 408.628C0 423.312 147.746 435.217 330 435.217Z" fill="#E6E6E6"/>
<path d="M544.85 216.831H100.82V407.679H544.85V216.831Z" fill="#E6E6E6"/>
<path d="M429.985 244.293H128.227V407.679H429.985V244.293Z" fill="#C1C1C1"/>
<path d="M209.745 318.77L201.413 400.378H218.399L239.6 314.199L223.429 307.827L209.745 318.77Z" fill="#24285B"/>
<path d="M180.725 321.501H161.859V387.159H180.725V321.501Z" fill="#FFD200"/>
<path opacity="0.15" d="M180.725 321.501H161.859V387.159H180.725V321.501Z" fill="black"/>
<path d="M144.284 272.21C144.284 272.21 145.176 294.589 157.74 303.256C165.977 308.946 207.581 312.075 235.215 313.554C238.43 313.727 241.574 314.56 244.453 315.999C247.331 317.439 249.883 319.455 251.948 321.923C254.013 324.39 255.548 327.256 256.457 330.342C257.366 333.428 257.63 336.667 257.232 339.859L249.64 400.378H266.987L283.329 328.044C285.361 319.04 284.021 309.604 279.562 301.521C275.103 293.437 267.834 287.267 259.13 284.177L220.373 270.427L144.284 272.21Z" fill="#24285B"/>
<path d="M218.285 89.156L214.527 112.939L193.194 114.816L205.626 76.6768L218.285 89.156Z" fill="#F4A28C"/>
<path d="M213.673 63.2876C215.414 62.6224 217.293 62.4018 219.141 62.6458C220.988 62.8898 222.746 63.5908 224.254 64.6851C225.762 65.7794 226.972 67.2324 227.776 68.9125C228.58 70.5926 228.952 72.4466 228.857 74.3065C228.497 83.2202 226.276 95.5287 216.501 93.6322C201.545 90.6356 204.829 71.1772 204.829 71.1772C206.927 67.7275 210.006 64.9808 213.673 63.2876Z" fill="#F4A28C"/>
<path d="M129.423 196.159C123.956 164.297 137.622 131.676 165.029 114.608C177.08 106.772 191.421 103.217 205.74 104.518C256.264 109.184 274.826 166.914 248.349 210.914C241.495 222.55 235.47 234.655 230.319 247.138L220.449 270.503L142.405 271.83L129.423 196.159Z" fill="#105EB7"/>
<path d="M203.121 400.377L201.602 407.603C201.419 408.475 201.432 409.378 201.642 410.244C201.851 411.11 202.252 411.919 202.813 412.611C203.375 413.303 204.084 413.861 204.89 414.245C205.695 414.629 206.575 414.828 207.467 414.829H222.347C223.123 414.819 223.875 414.559 224.491 414.089C225.107 413.618 225.555 412.961 225.768 412.216C225.981 411.471 225.948 410.676 225.674 409.951C225.399 409.226 224.898 408.609 224.245 408.191L211.908 400.377H203.121Z" fill="#105EB7"/>
<path d="M252.942 400.377L251.424 407.603C251.237 408.476 251.248 409.379 251.456 410.247C251.664 411.115 252.064 411.925 252.627 412.618C253.189 413.311 253.9 413.869 254.707 414.252C255.513 414.635 256.396 414.832 257.289 414.829H272.15C272.925 414.819 273.677 414.559 274.294 414.089C274.91 413.618 275.358 412.961 275.571 412.216C275.784 411.471 275.751 410.676 275.477 409.951C275.202 409.226 274.701 408.609 274.048 408.191C270.669 406.048 266.456 403.412 261.692 400.377H252.942Z" fill="#105EB7"/>
<path d="M201.526 136.266C201.942 131.715 203.599 127.365 206.318 123.691C209.038 120.017 212.714 117.159 216.948 115.43C221.181 113.7 225.808 113.165 230.324 113.883C234.841 114.601 239.073 116.544 242.56 119.501C250.066 125.847 256.146 133.706 260.401 142.563C274.997 173.116 298.266 193.181 376.766 191.342V210.497C376.766 210.497 262.66 234.658 221.607 188.611C204.089 168.981 200.217 150.737 201.526 136.266Z" fill="#105EB7"/>
<path opacity="0.44" d="M201.526 136.266C201.942 131.715 203.599 127.365 206.318 123.691C209.038 120.017 212.714 117.159 216.948 115.43C221.181 113.7 225.808 113.165 230.324 113.883C234.841 114.601 239.073 116.544 242.56 119.501C250.066 125.847 256.146 133.706 260.401 142.563C274.997 173.116 298.266 193.181 376.766 191.342V210.497C376.766 210.497 262.66 234.658 221.607 188.611C204.089 168.981 200.217 150.737 201.526 136.266Z" fill="white"/>
<path opacity="0.58" d="M582.012 385.85C582.012 385.85 564.779 381.147 561.04 365.14C561.04 365.14 587.725 359.735 588.484 387.273L582.012 385.85Z" fill="#105EB7"/>
<path opacity="0.73" d="M584.119 384.143C584.119 384.143 572.086 365.178 582.677 347.35C582.677 347.35 602.985 360.247 593.951 384.2L584.119 384.143Z" fill="#105EB7"/>
<path d="M383.593 175.557L380.437 177.378L402.871 216.205L406.027 214.385L383.593 175.557Z" fill="#FFD200"/>
<path d="M587.232 384.162C587.232 384.162 593.59 364.078 612.816 360.285C612.816 360.285 616.404 373.314 600.366 384.219L587.232 384.162Z" fill="#105EB7"/>
<path d="M574.724 383.707L578.216 407.584L600.214 407.679L603.459 383.84L574.724 383.707Z" fill="#24285B"/>
<path d="M376.766 196.557C376.766 196.557 392.5 186.069 400.718 193.371C408.937 200.672 376.766 210.439 376.766 210.439V196.557Z" fill="#F4A28C"/>
<path opacity="0.09" d="M209.707 86.7097L205.74 104.442C205.74 104.442 162.314 130.197 159.904 169.987C159.904 169.987 153.09 241.695 194.314 270.503L148.611 271.831L130.998 161.452C130.998 161.452 144.663 108.008 196.763 104.177L202.21 87.4683L209.707 86.7097Z" fill="black"/>
<path d="M199.42 77.0564C199.42 77.0564 197.028 85.0408 203.216 88.208C209.403 91.3752 217.374 76.8288 217.374 76.8288C217.374 76.8288 231.306 74.4391 237.075 67.1564C240.226 63.1547 235.956 57.6738 231.097 59.2479C229.562 59.6925 227.938 59.7267 226.385 59.3473C224.833 58.9679 223.408 58.1881 222.252 57.0858C213.503 50.0118 193.422 55.0945 199.42 77.0564Z" fill="#24285B"/>
<path d="M218.304 77.094C218.304 77.094 217.887 71.7458 213.085 73.8509C208.283 75.9561 211.7 82.7836 214.983 82.5939C218.266 82.4043 218.304 77.094 218.304 77.094Z" fill="#F4A28C"/>
<path d="M125.911 302.857C125.911 302.857 217.318 286.396 227.358 302.345C237.398 318.295 228.497 343.386 190.044 336.483C151.591 329.58 104.426 350.29 125.911 302.857Z" fill="#FFD200"/>
<path d="M124.165 270.579C117.864 269.439 111.876 266.98 106.593 263.364C101.309 259.749 96.8512 255.058 93.5104 249.599C90.1695 244.14 88.0216 238.037 87.2076 231.69C86.3936 225.344 86.9318 218.897 88.787 212.772C96.5876 186.98 111.695 159.518 140.564 161.566C187.937 164.942 216.653 287.724 124.165 270.579Z" fill="#FFD200"/>
<path opacity="0.09" d="M135.876 161.49C135.876 161.49 81.9543 224.227 130.998 261.912L120.901 270.427C120.901 270.427 76.9057 256.544 89.2425 211.217C89.2425 211.217 103.439 162.306 135.876 161.49Z" fill="black"/>
<path d="M148.82 327.702C147.185 327.698 145.583 327.245 144.189 326.393C105.717 303.066 125.74 225.043 128.132 216.224C128.441 215.092 128.97 214.032 129.689 213.104C130.408 212.176 131.303 211.399 132.323 210.817C133.342 210.235 134.467 209.86 135.631 209.712C136.796 209.564 137.979 209.647 139.112 209.956C140.244 210.265 141.305 210.793 142.234 211.512C143.162 212.23 143.94 213.124 144.522 214.143C145.105 215.162 145.48 216.286 145.628 217.449C145.776 218.613 145.694 219.795 145.384 220.927C140.222 239.892 130.599 297.263 153.451 311.126C155.122 312.136 156.415 313.665 157.135 315.479C157.854 317.293 157.959 319.292 157.434 321.171C156.909 323.051 155.783 324.706 154.227 325.886C152.672 327.065 150.772 327.703 148.82 327.702Z" fill="#FFD200"/>
<path opacity="0.44" d="M148.82 327.702C147.185 327.698 145.583 327.245 144.189 326.393C105.717 303.066 125.74 225.043 128.132 216.224C128.441 215.092 128.97 214.032 129.689 213.104C130.408 212.176 131.303 211.399 132.323 210.817C133.342 210.235 134.467 209.86 135.631 209.712C136.796 209.564 137.979 209.647 139.112 209.956C140.244 210.265 141.305 210.793 142.234 211.512C143.162 212.23 143.94 213.124 144.522 214.143C145.105 215.162 145.48 216.286 145.628 217.449C145.776 218.613 145.694 219.795 145.384 220.927C140.222 239.892 130.599 297.263 153.451 311.126C155.122 312.136 156.415 313.665 157.135 315.479C157.854 317.293 157.959 319.292 157.434 321.171C156.909 323.051 155.783 324.706 154.227 325.886C152.672 327.065 150.772 327.703 148.82 327.702Z" fill="white"/>
<path d="M161.859 387.159L128.227 416.65H217.317L180.725 387.159H161.859Z" fill="#FFD200"/>
<path d="M324.818 40.908C332.628 40.908 338.958 34.5822 338.958 26.7788C338.958 18.9755 332.628 12.6497 324.818 12.6497C317.009 12.6497 310.679 18.9755 310.679 26.7788C310.679 34.5822 317.009 40.908 324.818 40.908Z" fill="#E6E6E6"/>
<path opacity="0.45" d="M396.163 14.7739H356.306V70.0959H396.163V14.7739Z" fill="#C1C1C1"/>
<path d="M340.496 51.5479H313.108V70.096H340.496V51.5479Z" fill="#C1C1C1"/>
<path opacity="0.09" d="M429.985 356.15H340.477V407.679H429.985V356.15Z" fill="black"/>
</svg>
