<svg width="30" height="30" viewBox="0 0 30 30" fill="none" xmlns="http://www.w3.org/2000/svg">
<circle cx="9.5" cy="9.5" r="2.5" fill="#2003D3" fill-opacity="0.24"/>
<circle cx="16" cy="21" r="3" fill="#2003D3" fill-opacity="0.24"/>
<circle cx="15" cy="14" r="2" fill="#2003D3" fill-opacity="0.24"/>
<path d="M19 6L19.449 7.38197H20.9021L19.7265 8.23607L20.1756 9.61803L19 8.76393L17.8244 9.61803L18.2735 8.23607L17.0979 7.38197H18.551L19 6Z" fill="#2003D3" fill-opacity="0.24"/>
<path d="M21.5 13L22.0613 14.7275H23.8776L22.4082 15.7951L22.9695 17.5225L21.5 16.4549L20.0305 17.5225L20.5918 15.7951L19.1224 14.7275H20.9387L21.5 13Z" fill="#2003D3" fill-opacity="0.24"/>
<path d="M8.5 16L9.06129 17.7275H10.8776L9.40818 18.7951L9.96946 20.5225L8.5 19.4549L7.03054 20.5225L7.59182 18.7951L6.12236 17.7275H7.93871L8.5 16Z" fill="#2003D3" fill-opacity="0.24"/>
</svg>
