<svg width="72" height="63" viewBox="0 0 72 63" fill="none" xmlns="http://www.w3.org/2000/svg">
<path d="M49.5366 34.608C49.5366 34.608 54.5792 33.7919 54.2392 36.876H49.5366V34.608Z" fill="#F4A28C"/>
<path d="M38.3429 28.9974L36.8196 36.393H45.3747L44.2084 27.8923L38.3429 28.9974Z" fill="#C9C9C9"/>
<path d="M58.1325 5.12427H24.1944V28.1747H58.1325V5.12427Z" fill="#24285B"/>
<path d="M46.796 20.3643H36.1191V21.3673H46.796V20.3643Z" fill="#105EB7"/>
<path d="M51.5529 22.9961H40.8761V23.9992H51.5529V22.9961Z" fill="#FFD200"/>
<path d="M58.1325 26.1924H24.1944V30.5549H58.1325V26.1924Z" fill="#E6E6E6"/>
<path d="M42.5082 17.9399H33.5485V18.943H42.5082V17.9399Z" fill="#105EB7"/>
<path d="M53.3313 17.9399H44.3716V18.943H53.3313V17.9399Z" fill="#105EB7"/>
<path d="M44.1302 15.1482H36.1191V16.1513H44.1302V15.1482Z" fill="#FFD200"/>
<path d="M54.2256 15.1482H46.2145V16.1513H54.2256V15.1482Z" fill="#FFD200"/>
<path d="M34.2422 20.3643H30.2264V21.3673H34.2422V20.3643Z" fill="white"/>
<path d="M38.2409 22.9961H34.2252V23.9992H38.2409V22.9961Z" fill="white"/>
<path d="M31.6715 17.9399H27.6558V18.943H31.6715V17.9399Z" fill="white"/>
<path opacity="0.14" d="M28.6283 13.217C28.6283 13.217 45.208 11.5509 41.5493 30.5584L42.8108 35.193L37.6356 32.3843L38.0504 30.5618H35.3098L28.6283 13.217Z" fill="black"/>
<path d="M28.6283 7.86129C28.8894 7.86129 29.101 7.64969 29.101 7.38866C29.101 7.12763 28.8894 6.91602 28.6283 6.91602C28.3673 6.91602 28.1557 7.12763 28.1557 7.38866C28.1557 7.64969 28.3673 7.86129 28.6283 7.86129Z" fill="#105EB7"/>
<path d="M29.9544 7.86129C30.2155 7.86129 30.4271 7.64969 30.4271 7.38866C30.4271 7.12763 30.2155 6.91602 29.9544 6.91602C29.6934 6.91602 29.4818 7.12763 29.4818 7.38866C29.4818 7.64969 29.6934 7.86129 29.9544 7.86129Z" fill="#FFD200"/>
<path d="M31.6715 10.313H27.6558V11.3161H31.6715V10.313Z" fill="white"/>
<path d="M34.2422 12.8225H30.2264V13.8256H34.2422V12.8225Z" fill="white"/>
<path d="M44.1302 12.8225H36.1191V13.8256H44.1302V12.8225Z" fill="#FFD200"/>
<path d="M54.2256 12.8225H46.2145V13.8256H54.2256V12.8225Z" fill="#FFD200"/>
<path d="M34.2422 15.1482H30.2264V16.1513H34.2422V15.1482Z" fill="white"/>
<path d="M41.5494 10.313H33.2765V11.3161H41.5494V10.313Z" fill="#105EB7"/>
<path d="M49.1524 10.313H43.2801V11.3161H49.1524V10.313Z" fill="#105EB7"/>
<path d="M41.5493 29.4803C42.2461 29.4803 42.8108 28.9155 42.8108 28.2188C42.8108 27.5221 42.2461 26.9573 41.5493 26.9573C40.8526 26.9573 40.2878 27.5221 40.2878 28.2188C40.2878 28.9155 40.8526 29.4803 41.5493 29.4803Z" fill="#A5A5A5"/>
<path d="M11.0251 5.12427H-22.913V28.1747H11.0251V5.12427Z" fill="#24285B"/>
<path d="M11.0251 26.1924H-22.913V30.5549H11.0251V26.1924Z" fill="#E6E6E6"/>
<path opacity="0.45" d="M16.9144 71.2662C47.2428 71.2662 71.8288 68.08 71.8288 64.1495C71.8288 60.219 47.2428 57.0327 16.9144 57.0327C-13.414 57.0327 -38 60.219 -38 64.1495C-38 68.08 -13.414 71.2662 16.9144 71.2662Z" fill="#E6E6E6"/>
<path d="M8.60409 12.4587C8.60409 12.4587 -3.23226 13.2714 -4.14013 19.8441C-4.64337 23.496 -3.64369 26.7977 -2.65421 29.0249C-2.5034 29.3632 -2.43363 29.7321 -2.45048 30.1022C-2.46733 30.4722 -2.57032 30.8332 -2.75126 31.1565C-2.9322 31.4797 -3.18609 31.7563 -3.49273 31.9641C-3.79937 32.172 -4.15028 32.3054 -4.51756 32.3537L-16.7211 34.0539V36.8931L0.259823 36.3898C1.98251 36.339 3.6266 35.6575 4.88016 34.4748C6.13371 33.2921 6.90951 31.6904 7.06037 29.9735L8.60409 12.4587Z" fill="#105EB7"/>
<path d="M24.1944 12.4587C24.1944 12.4587 36.0307 13.2714 36.9386 19.8441C37.4419 23.496 36.4422 26.7977 35.4527 29.0249C35.3019 29.3632 35.2321 29.7321 35.249 30.1022C35.2658 30.4722 35.3688 30.8332 35.5497 31.1565C35.7307 31.4797 35.9846 31.7563 36.2912 31.9641C36.5979 32.172 36.9488 32.3054 37.316 32.3537L49.5196 34.0539V36.8931L32.5353 36.3728C30.8128 36.3213 29.1691 35.6396 27.9157 34.457C26.6623 33.2744 25.8863 31.6731 25.7347 29.9565L24.1944 12.4587Z" fill="#105EB7"/>
<path opacity="0.46" d="M8.60409 12.4587C8.60409 12.4587 -3.23226 13.2714 -4.14013 19.8441C-4.64337 23.496 -3.64369 26.7977 -2.65421 29.0249C-2.5034 29.3632 -2.43363 29.7321 -2.45048 30.1022C-2.46733 30.4722 -2.57032 30.8332 -2.75126 31.1565C-2.9322 31.4797 -3.18609 31.7563 -3.49273 31.9641C-3.79937 32.172 -4.15028 32.3054 -4.51756 32.3537L-16.7211 34.0539V36.8931L0.259823 36.3898C1.98251 36.339 3.6266 35.6575 4.88016 34.4748C6.13371 33.2921 6.90951 31.6904 7.06037 29.9735L8.60409 12.4587Z" fill="white"/>
<path opacity="0.46" d="M24.1944 12.4587C24.1944 12.4587 36.0307 13.2714 36.9386 19.8441C37.4419 23.496 36.4422 26.7977 35.4527 29.0249C35.3019 29.3632 35.2321 29.7321 35.249 30.1022C35.2658 30.4722 35.3688 30.8332 35.5497 31.1565C35.7307 31.4797 35.9846 31.7563 36.2912 31.9641C36.5979 32.172 36.9488 32.3054 37.316 32.3537L49.5196 34.0539V36.8931L32.5353 36.3728C30.8128 36.3213 29.1691 35.6396 27.9157 34.457C26.6623 33.2744 25.8863 31.6731 25.7347 29.9565L24.1944 12.4587Z" fill="white"/>
<path d="M61.2029 39.0181H-28.0542V64.1529H61.2029V39.0181Z" fill="#C9C9C9"/>
<path d="M61.2029 36.3931H-28.0542V42.5374H61.2029V36.3931Z" fill="#E6E6E6"/>
<path d="M15.306 12.4585L16.7511 6.15779C16.7511 6.15779 16.7987 3.20635 18.6927 3.89321C20.5866 4.58006 21.1545 8.00074 20.1344 9.15683C19.1143 10.3129 18.4343 8.7352 18.4343 8.7352V12.2205L15.306 12.4585Z" fill="#F4A28C"/>
<path opacity="0.1" d="M40.2878 36.604C40.2878 36.604 32.4434 38.2736 35.7213 41.4392C38.9991 44.6049 37.1902 49.0558 34.9188 50.3411C32.6474 51.6264 23.2389 53.177 26.2447 64.0204H15.6392L14.8572 58.24L8.05664 51.0586L11.0285 44.1322L19.3897 32.7651L25.0546 37.4609L28.1556 36.3932L40.2878 36.604Z" fill="black"/>
<path d="M13.4189 12.1696C13.4189 12.1696 1.61998 11.1189 0.0796565 19.0858C-1.46067 27.0526 9.51881 42.0886 9.51881 42.0886L24.82 41.4936C24.82 41.4936 48.5913 8.1029 13.4189 12.1696Z" fill="#105EB7"/>
<path d="M14.8538 58.2297C14.8538 58.2297 15.5339 59.1274 15.0884 59.9775C14.643 60.8275 15.2857 61.5484 15.9589 60.9567C16.6322 60.3651 16.911 57.8965 16.911 57.8965L15.3911 57.009L14.8538 58.2297Z" fill="#105EB7"/>
<path d="M9.51881 42.0885C9.51881 42.0885 8.49873 47.444 10.7939 47.699C13.0891 47.954 29.3254 48.6783 32.0456 46.4035C34.7658 44.1287 34.0858 40.9835 24.82 41.4935L9.51881 42.0885Z" fill="#24285B"/>
<path d="M9.38621 43.0134C9.38621 43.0134 2.29325 48.5559 5.94854 52.6362C9.60383 56.7165 14.8743 59.0967 14.8743 59.0967L15.6393 57.1416C15.6393 57.1416 4.58843 48.5559 15.0443 46.8557L9.38621 43.0134Z" fill="#24285B"/>
<path d="M18.4649 24.9751H14.2928C9.99609 24.9751 6.51294 28.4582 6.51294 32.7549C6.51294 37.0516 9.99609 40.5347 14.2928 40.5347H18.4649C22.7616 40.5347 26.2447 37.0516 26.2447 32.7549C26.2447 28.4582 22.7616 24.9751 18.4649 24.9751Z" fill="#FFD200"/>
<path d="M18.2337 32.7549H14.3506V48.3383H18.2337V32.7549Z" fill="#FFD200"/>
<path opacity="0.08" d="M18.2337 32.7549H14.3506V48.3383H18.2337V32.7549Z" fill="black"/>
<path d="M24.1944 46.4036H8.60413V51.0585H24.1944V46.4036Z" fill="#FFD200"/>
<path d="M15.7514 8.22177L15.7752 6.72905C15.7854 6.3855 15.7262 6.04343 15.6012 5.72327C15.4762 5.40311 15.2879 5.11145 15.0476 4.8657C14.9487 4.78864 14.8659 4.69278 14.8041 4.58365C14.7424 4.47452 14.7028 4.35425 14.6876 4.22977C14.6724 4.10528 14.682 3.97903 14.7158 3.85825C14.7495 3.73748 14.8068 3.62456 14.8844 3.526C15.6664 2.40731 16.3261 3.13157 17.1149 2.14209C17.9038 1.15261 18.4989 0.958794 19.4203 2.14209C20.3418 3.32538 21.0661 1.94487 21.5931 3.39339C22.1202 4.8419 21.6577 5.56616 19.6175 5.69877C17.8834 5.81098 18.4207 7.77634 16.8123 8.81002C16.7083 8.88047 16.5868 8.92071 16.4613 8.9263C16.3357 8.93188 16.2111 8.90258 16.1013 8.84166C15.9914 8.78073 15.9005 8.69056 15.8388 8.58113C15.777 8.47171 15.7468 8.34733 15.7514 8.22177Z" fill="#24285B"/>
<path d="M17.5333 51.0552H15.0579V61.8102H17.5333V51.0552Z" fill="#FFD200"/>
<path opacity="0.08" d="M17.5333 51.0552H15.0579V61.8102H17.5333V51.0552Z" fill="black"/>
<path d="M15.0578 61.8101L10.2703 66.2304H22.6949L17.5298 61.8101H15.0578Z" fill="#FFD200"/>
<path d="M56.7247 44.7239H47.544V60.6201H56.7247V44.7239Z" fill="#A5A5A5"/>
<path d="M45.3916 42.5374H43.2393V64.1529H45.3916V42.5374Z" fill="#E6E6E6"/>
<path d="M61.2029 42.5374H59.0505V64.1529H61.2029V42.5374Z" fill="#E6E6E6"/>
<path d="M61.2063 60.6201H45.1808V64.1496H61.2063V60.6201Z" fill="#E6E6E6"/>
<path d="M2.045 10.313H-3.82727V11.3161H2.045V10.313Z" fill="#105EB7"/>
<path d="M27.224 7.86129C27.4851 7.86129 27.6967 7.64969 27.6967 7.38866C27.6967 7.12763 27.4851 6.91602 27.224 6.91602C26.963 6.91602 26.7514 7.12763 26.7514 7.38866C26.7514 7.64969 26.963 7.86129 27.224 7.86129Z" fill="white"/>
<path d="M64.1272 0H50.9511V9.05832H64.1272V0Z" fill="#FFD200"/>
<path d="M55.7693 6.30749C55.7014 6.30778 55.6355 6.285 55.5822 6.24288L53.6169 4.68216C53.5812 4.6535 53.5524 4.61729 53.5324 4.57613C53.5124 4.53497 53.5018 4.48989 53.5013 4.44414C53.5011 4.39812 53.511 4.35263 53.5304 4.3109C53.5498 4.26917 53.5782 4.23223 53.6135 4.20272L55.589 2.61479C55.6524 2.56679 55.732 2.54534 55.811 2.555C55.8899 2.56466 55.962 2.60467 56.0119 2.66655C56.0619 2.72843 56.0858 2.80733 56.0786 2.88652C56.0713 2.96572 56.0336 3.039 55.9733 3.09083L54.2935 4.45094L55.9699 5.77365C56.0016 5.79823 56.0282 5.82888 56.048 5.86383C56.0678 5.89877 56.0804 5.9373 56.0851 5.97718C56.0899 6.01705 56.0867 6.05748 56.0756 6.09609C56.0646 6.1347 56.046 6.17073 56.0209 6.20208C55.9903 6.23834 55.9515 6.2668 55.9078 6.28513C55.864 6.30346 55.8166 6.31112 55.7693 6.30749Z" fill="white"/>
<path d="M59.3464 6.30743C59.3005 6.30769 59.2552 6.29741 59.2139 6.27736C59.1726 6.25731 59.1365 6.22804 59.1083 6.19181C59.0833 6.16047 59.0646 6.12444 59.0536 6.08582C59.0426 6.04721 59.0393 6.00679 59.0441 5.96691C59.0488 5.92704 59.0615 5.8885 59.0813 5.85356C59.1011 5.81862 59.1276 5.78796 59.1594 5.76338L60.8323 4.44067L59.156 3.08057C59.1206 3.05708 59.0904 3.02649 59.0675 2.99072C59.0446 2.95496 59.0293 2.91482 59.0228 2.87285C59.0162 2.83088 59.0185 2.788 59.0294 2.74694C59.0403 2.70589 59.0596 2.66756 59.0862 2.63438C59.1127 2.60121 59.1458 2.57393 59.1835 2.55427C59.2212 2.53461 59.2625 2.52301 59.3049 2.5202C59.3473 2.51739 59.3898 2.52344 59.4297 2.53796C59.4696 2.55248 59.5061 2.57515 59.5368 2.60453L61.5157 4.19246C61.5511 4.22197 61.5794 4.2589 61.5988 4.30063C61.6182 4.34236 61.6282 4.38786 61.628 4.43388C61.6275 4.47963 61.6169 4.52471 61.5969 4.56587C61.5769 4.60702 61.548 4.64324 61.5123 4.67189L59.5368 6.23262C59.4838 6.27866 59.4165 6.30507 59.3464 6.30743Z" fill="white"/>
<path d="M56.7315 6.30765C56.687 6.30843 56.6428 6.29913 56.6023 6.28045C56.529 6.24643 56.4721 6.18479 56.4441 6.10898C56.4161 6.03317 56.4192 5.94935 56.4527 5.87581L57.891 2.72376C57.9078 2.68715 57.9316 2.65419 57.9611 2.62677C57.9905 2.59935 58.0251 2.578 58.0629 2.56395C58.1006 2.5499 58.1407 2.54342 58.181 2.54488C58.2212 2.54634 58.2608 2.55571 58.2974 2.57245C58.334 2.58919 58.3669 2.61299 58.3944 2.64247C58.4218 2.67195 58.4431 2.70655 58.4572 2.74428C58.4712 2.78201 58.4777 2.82214 58.4763 2.86238C58.4748 2.90261 58.4654 2.94217 58.4487 2.97878L57.0172 6.13083C56.9927 6.1855 56.9524 6.23158 56.9015 6.2631C56.8506 6.29463 56.7914 6.31014 56.7315 6.30765Z" fill="white"/>
<path d="M53.6883 49.5385C54.3381 49.5385 54.8648 49.0118 54.8648 48.362C54.8648 47.7123 54.3381 47.1855 53.6883 47.1855C53.0386 47.1855 52.5118 47.7123 52.5118 48.362C52.5118 49.0118 53.0386 49.5385 53.6883 49.5385Z" fill="white"/>
<path opacity="0.18" d="M55.5143 51.0552H49.1116V59.09H55.5143V51.0552Z" fill="white"/>
</svg>
