<svg width="72" height="72" viewBox="0 0 72 72" fill="none" xmlns="http://www.w3.org/2000/svg">
<path opacity="0.18" d="M84.2608 53.4697C84.2452 56.6441 83.1008 59.7151 81.6197 62.5322C78.4841 68.4643 73.4505 73.5419 67.5184 76.5765L68.1372 76.4367C58.4326 83.5961 41.7006 77.6381 29.6603 78.3139C22.7884 78.6998 15.9164 79.6474 9.04957 79.1969C2.18276 78.7464 -1.27136 81.9467 -6.27128 77.2161C-12.7963 71.0329 -14.4509 60.9916 -11.7761 52.3666C-11.1192 50.2234 -10.1834 48.1758 -8.99263 46.2766C-8.06465 44.824 -7.03408 43.4395 -5.90878 42.1338C-1.21439 36.6237 4.78241 32.108 8.49287 25.8756C12.2706 19.5292 13.384 11.8753 17.1541 5.52374C19.2466 1.99825 22.0977 -1.01724 25.5004 -3.30396C28.9032 -5.59069 32.7723 -7.0913 36.827 -7.69693C40.8818 -8.30257 45.0205 -7.99804 48.9429 -6.80543C52.8654 -5.61283 56.4731 -3.56206 59.5045 -0.801908C61.6148 1.12194 63.4273 3.38498 64.4423 6.04159C65.5324 8.88982 65.6463 12.0099 66.5371 14.9229C67.8317 19.1693 70.6955 22.7244 73.088 26.4659C76.3712 31.6005 78.8258 37.2115 81.2675 42.794C82.759 46.2015 84.2789 49.7411 84.2608 53.4697Z" fill="#095FE1"/>
<path d="M72.4148 47.7888C72.5164 47.2994 72.691 46.8281 72.9326 46.3906C73.0498 46.1949 73.1986 46.0199 73.3728 45.8727C73.449 45.8135 73.5385 45.7739 73.6336 45.7573C73.7286 45.7407 73.8262 45.7477 73.918 45.7776C74.0097 45.8075 74.0927 45.8594 74.1597 45.9288C74.2267 45.9982 74.2757 46.0829 74.3024 46.1757C74.538 47.0819 74.4629 48.0658 74.38 49.0083C74.3715 49.3129 74.3093 49.6136 74.1962 49.8965C73.8467 50.637 72.5572 50.9684 72.06 50.1709C71.6898 49.5573 72.2594 48.3999 72.4148 47.7888Z" fill="#FFDAD2"/>
<path d="M72.4147 47.7888C72.5164 47.2994 72.691 46.8281 72.9326 46.3906C72.9904 46.2907 73.0572 46.1962 73.132 46.1083C73.22 46.0071 73.3345 45.9325 73.4627 45.8929C73.5908 45.8533 73.7275 45.8503 73.8572 45.8842C73.987 45.9182 74.1047 45.9877 74.1971 46.0849C74.2894 46.1821 74.3528 46.3033 74.38 46.4346C74.5039 47.2842 74.51 48.1468 74.3981 48.998C74.3896 49.3025 74.3274 49.6032 74.2143 49.8861C73.8648 50.6267 72.5753 50.9581 72.0781 50.1606C71.6897 49.5573 72.2594 48.3999 72.4147 47.7888Z" fill="url(#paint0_linear)"/>
<path opacity="0.42" d="M63.4092 14.9048L59.0255 27.8099L55.6594 27.5898L57.0188 20.2983L25.1601 43.3275L14.7486 33.6177L-11.7761 52.3667C-11.1192 50.2235 -10.1834 48.176 -8.99263 46.2767C-8.06466 44.8241 -7.03408 43.4396 -5.90878 42.1339L15.1474 27.8099L25.8644 37.2142L54.7351 17.5356L47.5161 15.8292L47.3737 11.9971L63.4092 14.9048Z" fill="#095FE1"/>
<path d="M30.4837 72.4543C30.2584 73.1146 30.0513 73.8681 30.3853 74.4791C30.6089 74.8197 30.9096 75.1027 31.2631 75.3051L34.4479 77.4672C35.059 77.8815 35.7063 78.3113 36.4417 78.3657C37.177 78.42 38.0082 77.954 38.0703 77.2186C38.1428 76.3693 37.2547 75.7919 36.8404 75.0488C36.2941 74.0726 36.5944 72.866 36.8793 71.7889C37.5938 69.0675 38.1129 66.2985 38.4328 63.5031C37.7803 63.2442 35.8798 62.0402 35.2144 62.237C34.4376 62.4648 33.7644 64.5984 33.4252 65.2923C32.278 67.6077 31.2951 70.001 30.4837 72.4543Z" fill="#FFDAD2"/>
<path d="M43.7487 19.4023C44.4322 18.9958 45.1339 18.5841 45.9133 18.4314C46.6927 18.2786 47.5834 18.4314 48.1168 19.0217C47.4574 19.0594 46.8142 19.2413 46.2326 19.5544C45.6511 19.8676 45.1452 20.3044 44.7507 20.8342C44.7103 20.9034 44.6472 20.9565 44.5721 20.9844C44.5088 20.9912 44.445 20.9795 44.3882 20.9507C44.0672 20.829 42.7285 20.6918 42.5887 20.4173C42.3815 19.9616 43.4457 19.581 43.7487 19.4023Z" fill="black"/>
<path d="M38.0522 33.9645C38.3111 37.7863 38.9378 41.6599 38.1869 45.4169C37.682 47.9492 36.5556 50.4971 37.1149 53.0165C37.7286 55.7922 40.5949 57.8766 43.4224 57.6047C45.2142 57.4312 46.817 56.4603 48.5311 55.9113C49.9727 55.4495 51.4938 55.2882 53.0002 55.4375C54.3492 55.5721 55.8096 55.932 56.9851 55.2588C57.9639 54.6995 58.4662 53.5318 58.518 52.4106C58.5698 51.2894 58.2591 50.1812 57.9199 49.1015C57.2492 46.8876 56.5424 44.6272 56.6252 42.3149C56.6925 40.6552 57.1716 39.0447 57.5108 37.4186C58.1218 34.503 58.2875 31.3985 57.2337 28.615C56.1799 25.8315 53.7615 23.4364 50.8045 23.061C49.282 22.8745 47.731 23.2215 46.2137 23.0066C44.875 22.8176 43.6244 22.1987 42.3064 21.9294C41.8475 21.8093 41.3648 21.8138 40.9082 21.9424C39.3184 22.4939 38.5623 25.9325 38.2878 27.3514C37.8658 29.5187 37.8865 31.761 38.0522 33.9645Z" fill="#FE8311"/>
<path d="M36.5893 54.2025C35.7659 56.5484 34.8881 58.902 33.565 61.0097C33.5392 61.038 33.5199 61.0716 33.5087 61.1082C33.4974 61.1448 33.4944 61.1834 33.4998 61.2213C33.5053 61.2592 33.5191 61.2954 33.5402 61.3273C33.5613 61.3592 33.5892 61.3861 33.622 61.4059C34.9529 62.5711 36.3899 63.7854 38.1403 64.0366C38.2544 64.0628 38.3739 64.0528 38.4821 64.0081C38.5836 63.9365 38.659 63.8338 38.697 63.7155C39.813 61.1262 40.2039 58.2961 40.1703 55.4945C40.1453 54.096 40.0347 52.7004 39.8389 51.3154C39.7923 50.9762 39.7664 49.4822 39.4738 49.3087C39.0258 49.0498 38.5364 49.9612 38.3448 50.2512C37.5344 51.4475 37.0657 52.8379 36.5893 54.2025Z" fill="#095FE1"/>
<path d="M36.5893 54.2025C35.7659 56.5484 34.8881 58.902 33.565 61.0097C33.5392 61.038 33.5199 61.0716 33.5087 61.1082C33.4974 61.1448 33.4944 61.1834 33.4998 61.2213C33.5053 61.2592 33.5191 61.2954 33.5402 61.3273C33.5613 61.3592 33.5892 61.3861 33.622 61.4059C34.9529 62.5711 36.3899 63.7854 38.1403 64.0366C38.2544 64.0628 38.3739 64.0528 38.4821 64.0081C38.5836 63.9365 38.659 63.8338 38.697 63.7155C39.813 61.1262 40.2039 58.2961 40.1703 55.4945C40.1453 54.096 40.0347 52.7004 39.8389 51.3154C39.7923 50.9762 39.7664 49.4822 39.4738 49.3087C39.0258 49.0498 38.5364 49.9612 38.3448 50.2512C37.5344 51.4475 37.0657 52.8379 36.5893 54.2025Z" fill="url(#paint1_linear)"/>
<path d="M40.1548 33.9645C40.3412 37.7863 40.7788 41.6599 40.2506 45.417C39.8933 47.9493 39.0983 50.4971 39.4919 53.0165C39.9269 55.7922 41.9466 57.8766 43.9403 57.6048C45.2013 57.4313 46.3302 56.4603 47.5394 55.9114C48.5226 55.4545 49.6165 55.29 50.6906 55.4375C51.6409 55.5722 52.6688 55.9321 53.4974 55.2589C54.1861 54.6996 54.5331 53.5318 54.5797 52.4106C54.5737 51.2946 54.432 50.1834 54.1577 49.1015C53.6838 46.8877 53.1841 44.6272 53.2514 42.315C53.298 40.6552 53.6346 39.0447 53.8754 37.4186C54.3053 34.5031 54.4166 31.3985 53.6812 28.615C52.9459 25.8315 51.2318 23.4364 49.1474 23.061C48.078 22.8746 46.9827 23.2215 45.9134 23.0066C44.9709 22.8176 44.1009 22.1988 43.1583 21.9295C42.8405 21.8092 42.489 21.8139 42.1744 21.9424C41.0533 22.4939 40.5224 25.9325 40.3282 27.3515C40.069 29.5459 40.0109 31.7595 40.1548 33.9645Z" fill="url(#paint2_linear)"/>
<path d="M49.08 46.7064C50.7826 46.6098 52.49 46.7757 54.1421 47.1983C55.7811 47.6618 57.3373 48.5318 58.4119 49.8524C59.6029 51.3153 60.1234 53.2185 60.2451 55.1086C60.3668 56.9988 60.1156 58.8735 59.9266 60.7507C59.484 65.1465 59.3672 69.569 59.577 73.982C59.6288 75.0384 59.6469 76.2321 58.9038 76.9856C58.4352 77.462 57.7542 77.6536 57.1043 77.809C51.7289 79.1036 45.903 79.3289 40.8124 77.172C39.5178 76.6231 38.2231 75.8592 37.5836 74.6112C36.8897 73.2544 37.1149 71.6335 37.3376 70.1265C38.0177 65.528 38.5071 60.9069 38.8057 56.2635C38.9378 54.2076 38.785 51.9911 39.2071 49.9715C39.5126 48.5085 40.4577 48.1072 41.8197 47.7499C44.1931 47.1311 46.6285 46.7811 49.08 46.7064Z" fill="#095FE1"/>
<path d="M49.08 46.7064C50.7826 46.6098 52.49 46.7757 54.1421 47.1983C55.7811 47.6618 57.3373 48.5318 58.4119 49.8524C59.6029 51.3153 60.1234 53.2185 60.2451 55.1086C60.3668 56.9988 60.1156 58.8735 59.9266 60.7507C59.484 65.1465 59.3672 69.569 59.577 73.982C59.6288 75.0384 59.6469 76.2321 58.9038 76.9856C58.4352 77.462 57.7542 77.6536 57.1043 77.809C51.7289 79.1036 45.903 79.3289 40.8124 77.172C39.5178 76.6231 38.2231 75.8592 37.5836 74.6112C36.8897 73.2544 37.1149 71.6335 37.3376 70.1265C38.0177 65.528 38.5071 60.9069 38.8057 56.2635C38.9378 54.2076 38.785 51.9911 39.2071 49.9715C39.5126 48.5085 40.4577 48.1072 41.8197 47.7499C44.1931 47.1311 46.6285 46.7811 49.08 46.7064Z" fill="url(#paint3_linear)"/>
<path d="M44.1215 47.5506C44.1982 47.1706 44.2968 46.7954 44.4167 46.4268C44.6756 45.5749 44.9993 44.7438 44.9656 43.8375C44.9656 43.6511 44.9501 43.4595 44.9475 43.2705C44.9326 42.9288 44.9845 42.5876 45.1003 42.2658C45.2879 41.8507 45.5829 41.4932 45.9548 41.2301C46.7781 40.5931 49.181 39.3995 49.6549 40.9712C49.7307 41.2477 49.7665 41.5337 49.761 41.8205V41.8722C49.761 42.2917 49.7066 42.7215 49.7015 43.1151C49.6495 44.1028 49.8267 45.0892 50.2193 45.997C50.9158 47.447 42.9434 53.928 44.1215 47.5506Z" fill="#FFDAD2"/>
<path d="M49.7843 41.8308L49.761 41.8878C49.515 42.4497 47.4928 46.9214 44.7481 46.8074C44.7481 46.8074 44.5384 46.8256 44.4167 46.432C44.6756 45.5801 44.9993 44.7489 44.9656 43.8427C44.9656 43.6563 44.9501 43.4647 44.9475 43.2756L49.761 41.836L49.7843 41.8308Z" fill="url(#paint4_linear)"/>
<path d="M38.2309 37.4728C39.6609 37.4728 40.8202 36.0435 40.8202 34.2802C40.8202 32.517 39.6609 31.0876 38.2309 31.0876C36.8009 31.0876 35.6416 32.517 35.6416 34.2802C35.6416 36.0435 36.8009 37.4728 38.2309 37.4728Z" fill="#095FE1"/>
<path d="M38.2309 37.4728C39.6609 37.4728 40.8202 36.0435 40.8202 34.2802C40.8202 32.517 39.6609 31.0876 38.2309 31.0876C36.8009 31.0876 35.6416 32.517 35.6416 34.2802C35.6416 36.0435 36.8009 37.4728 38.2309 37.4728Z" fill="url(#paint5_linear)"/>
<path d="M39.2226 37.4728C40.6526 37.4728 41.8119 36.0435 41.8119 34.2802C41.8119 32.517 40.6526 31.0876 39.2226 31.0876C37.7926 31.0876 36.6333 32.517 36.6333 34.2802C36.6333 36.0435 37.7926 37.4728 39.2226 37.4728Z" fill="#095FE1"/>
<path d="M39.2226 37.4728C40.6526 37.4728 41.8119 36.0435 41.8119 34.2802C41.8119 32.517 40.6526 31.0876 39.2226 31.0876C37.7926 31.0876 36.6333 32.517 36.6333 34.2802C36.6333 36.0435 37.7926 37.4728 39.2226 37.4728Z" fill="url(#paint6_linear)"/>
<path d="M38.5494 27.7917L39.1967 39.4435C39.1967 39.4435 39.4867 43.9204 43.9222 43.9644C49.2509 44.0162 50.8744 40.9168 51.69 38.558C52.5057 36.1991 53.2436 29.2753 51.69 27.3593C50.1365 25.4432 41.4675 20.9456 38.5494 27.7917Z" fill="#FFDAD2"/>
<path d="M37.5992 22.1289C36.0016 23.8922 35.4423 26.4271 35.6831 28.7963C35.6938 29.2564 35.8436 29.7023 36.1129 30.0754C36.4401 30.3919 36.8475 30.613 37.291 30.715C38.0471 30.9739 38.8446 31.2121 39.6214 31.0646C40.3982 30.917 41.1439 30.2204 41.0429 29.4307C40.8125 29.8838 41.0688 30.4664 41.4779 30.7616C41.9124 31.0293 42.4038 31.1908 42.9124 31.2329L45.5224 31.6575L45.9781 29.8968C45.9229 30.3058 45.9837 30.722 46.1535 31.0982C46.3233 31.4743 46.5953 31.7952 46.9385 32.0243C47.2818 32.2534 47.6825 32.3815 48.095 32.394C48.5075 32.4065 48.9152 32.303 49.2717 32.0951C49.4219 32.613 50.0666 32.8512 50.6 32.758C51.1334 32.6647 51.5943 32.3359 52.063 32.064C53.4018 31.2782 54.9518 30.928 56.4984 31.062C57.0448 27.437 54.6678 23.5815 51.1774 22.4474C50.3178 22.1677 49.4193 22.0409 48.5389 21.8389C44.7845 20.9767 40.8306 18.5609 37.5992 22.1289Z" fill="#FE8311"/>
<path d="M54.1318 37.4728C55.5618 37.4728 56.7211 36.0435 56.7211 34.2802C56.7211 32.517 55.5618 31.0876 54.1318 31.0876C52.7017 31.0876 51.5425 32.517 51.5425 34.2802C51.5425 36.0435 52.7017 37.4728 54.1318 37.4728Z" fill="#095FE1"/>
<path d="M54.1318 37.4728C55.5618 37.4728 56.7211 36.0435 56.7211 34.2802C56.7211 32.517 55.5618 31.0876 54.1318 31.0876C52.7017 31.0876 51.5425 32.517 51.5425 34.2802C51.5425 36.0435 52.7017 37.4728 54.1318 37.4728Z" fill="url(#paint7_linear)"/>
<path d="M55.1235 37.4728C56.5535 37.4728 57.7128 36.0435 57.7128 34.2802C57.7128 32.517 56.5535 31.0876 55.1235 31.0876C53.6934 31.0876 52.5342 32.517 52.5342 34.2802C52.5342 36.0435 53.6934 37.4728 55.1235 37.4728Z" fill="#095FE1"/>
<path d="M55.1235 37.4728C56.5535 37.4728 57.7128 36.0435 57.7128 34.2802C57.7128 32.517 56.5535 31.0876 55.1235 31.0876C53.6934 31.0876 52.5342 32.517 52.5342 34.2802C52.5342 36.0435 53.6934 37.4728 55.1235 37.4728Z" fill="url(#paint8_linear)"/>
<path d="M53.6501 31.2897L52.3063 24.2986C51.5295 21.3805 49.5228 19.1925 47.0578 18.5581L46.4882 18.4131L47.542 18.338C50.1883 18.149 52.6222 20.1014 53.5259 23.136L55.3643 31.1162L53.6501 31.2897Z" fill="#095FE1"/>
<path d="M53.6501 31.2897L52.3063 24.2986C51.5295 21.3805 49.5228 19.1925 47.0578 18.5581L46.4882 18.4131L47.542 18.338C50.1883 18.149 52.6222 20.1014 53.5259 23.136L55.3643 31.1162L53.6501 31.2897Z" fill="url(#paint9_linear)"/>
<path d="M47.7129 54.816C48.9738 53.4851 49.9008 51.8772 50.82 50.2874C51.3767 49.3164 51.9489 48.304 52.0266 47.1802C52.0449 47.053 52.0251 46.9233 51.9697 46.8073C51.9132 46.7285 51.8409 46.6623 51.7573 46.6131L50.0251 45.4272C49.994 46.4914 49.2302 47.4055 48.3576 48.0165C47.428 48.6716 44.7947 49.3889 45.354 50.7482C45.4912 51.1107 47.5653 54.9791 47.7129 54.816Z" fill="#095FE1"/>
<path d="M43.0237 46.9343C42.6663 47.4503 42.4122 48.0307 42.2754 48.6433C41.8404 50.3651 41.9233 52.1699 42.0165 53.9435C42.0165 54.0523 42.045 54.1844 42.1459 54.218C42.2027 54.232 42.2626 54.2246 42.3142 54.1973C42.7099 53.9863 43.0343 53.6628 43.2464 53.2677C43.8815 52.3008 44.4633 51.2999 44.989 50.2693C45.051 50.1662 45.0882 50.0501 45.0977 49.9301C45.0656 49.7373 44.9688 49.561 44.8233 49.4304C44.2459 48.7313 44.2096 47.8768 44.3184 46.9939C44.352 46.7194 44.6213 46.2171 44.264 46.0876C43.9688 45.9789 43.1609 46.7479 43.0237 46.9343Z" fill="#095FE1"/>
<path d="M60.6205 64.241C59.9629 64.6709 59.054 64.4275 58.3264 64.4068C57.3891 64.3783 56.9929 64.4585 57.2001 65.4036C57.7179 67.7625 58.2746 70.0644 59.1809 72.317C59.5128 73.2196 59.9667 74.0725 60.5299 74.852C60.967 75.471 61.5915 75.9331 62.3113 76.1699C63.2409 76.4288 64.2507 76.1 65.0327 75.5355C65.8147 74.9711 66.405 74.1917 66.9824 73.4201C69.0539 70.6521 69.5717 67.3922 70.8871 64.1711C72.2361 60.8258 74.0745 57.527 74.626 53.9874C74.7607 53.1356 74.8487 52.1387 74.235 51.5302C73.6214 50.9217 72.4614 51.0615 71.7674 51.6415C71.0735 52.2215 70.711 53.0915 70.3615 53.9253C68.7898 57.6746 67.0239 61.341 65.258 65.0023C65.2137 65.136 65.1214 65.2485 64.999 65.3182C64.9327 65.3357 64.8632 65.3378 64.7958 65.3243C64.7285 65.3109 64.6652 65.2822 64.6106 65.2405C63.9607 64.8236 63.7613 63.8578 62.9975 63.5575C62.1793 63.239 61.2834 63.8086 60.6205 64.241Z" fill="#FFDAD2"/>
<path d="M64.5718 65.8103C62.0757 66.4111 59.3077 66.9781 57.0628 65.7482C56.6789 65.5641 56.3543 65.2761 56.1255 64.917C55.8666 64.4587 55.8666 63.902 55.851 63.3635C55.7423 60.9321 54.8153 58.6069 54.5952 56.1834C54.2612 52.3667 52.7983 46.4839 57.8681 48.7236C60.6697 49.9613 63.6293 55.9089 64.23 58.4024C64.3983 59.1429 65.4754 65.5954 64.5718 65.8103Z" fill="#095FE1"/>
<path d="M64.5718 65.8103C62.0757 66.4111 59.3077 66.9781 57.0628 65.7482C56.6789 65.5641 56.3543 65.2761 56.1255 64.917C55.8666 64.4587 55.8666 63.902 55.851 63.3635C55.7423 60.9321 54.8153 58.6069 54.5952 56.1834C54.2612 52.3667 52.7983 46.4839 57.8681 48.7236C60.6697 49.9613 63.6293 55.9089 64.23 58.4024C64.3983 59.1429 65.4754 65.5954 64.5718 65.8103Z" fill="url(#paint10_linear)"/>
<path d="M70.1362 48.6226C69.5139 49.2275 69.1494 50.0494 69.1186 50.9167C69.0694 51.7194 69.2403 52.5272 69.1186 53.3221C69.028 53.9513 68.7613 54.5702 68.8597 55.1994C68.8793 55.3916 68.959 55.5729 69.0875 55.7172C69.2369 55.8471 69.414 55.941 69.6054 55.9917C70.4728 56.2895 71.3713 56.5769 72.2879 56.538C73.2045 56.4992 74.1573 56.0668 74.5768 55.2434C74.8019 54.7117 74.9088 54.1374 74.8901 53.5603L74.9497 51.9861C75.0152 51.2762 74.968 50.5605 74.8098 49.8654C74.7273 49.5184 74.5653 49.1954 74.3366 48.9217C74.1079 48.6481 73.8187 48.4313 73.4919 48.2885C72.4225 47.9053 71.0295 47.8147 70.1362 48.6226Z" fill="#FFDAD2"/>
<path d="M49.0748 42.6414C48.0323 42.6187 46.9987 42.4442 46.0065 42.1235C45.943 42.1114 45.8827 42.0862 45.8295 42.0495C45.7763 42.0127 45.7314 41.9653 45.6977 41.9102C45.6639 41.855 45.6421 41.7934 45.6335 41.7294C45.625 41.6653 45.6299 41.6001 45.6481 41.5381C45.6662 41.476 45.6971 41.4184 45.7389 41.3691C45.7806 41.3197 45.8322 41.2796 45.8903 41.2513C45.9484 41.223 46.0119 41.2072 46.0765 41.2049C46.1411 41.2026 46.2054 41.2139 46.2655 41.238C48.6398 41.9526 50.429 41.8568 51.5787 40.9557C53.1323 39.7362 53.0339 37.411 53.0339 37.3877C53.0304 37.3269 53.0389 37.2661 53.0591 37.2087C53.0792 37.1512 53.1106 37.0984 53.1512 37.0531C53.1919 37.0079 53.2412 36.9711 53.2961 36.945C53.3511 36.9188 53.4107 36.9039 53.4715 36.9009C53.5936 36.8952 53.7129 36.9381 53.8036 37.02C53.8943 37.102 53.949 37.2164 53.9557 37.3385C53.9557 37.455 54.0799 40.1712 52.1431 41.6833C51.3482 42.3255 50.3177 42.6414 49.0748 42.6414Z" fill="url(#paint11_linear)"/>
<path d="M46.2474 40.4792C46.5115 40.6113 46.7185 40.835 46.8299 41.1084C46.9335 41.502 46.628 41.8852 46.3121 42.1442C46.0439 42.3875 45.7129 42.5507 45.3566 42.6154C44.8388 42.6775 44.3365 42.3979 43.904 42.0975C43.6609 41.9513 43.4538 41.7522 43.2981 41.515C42.8968 40.8081 43.4147 39.9044 44.0982 39.6015C44.8491 39.2416 45.6544 40.0753 46.2474 40.4792Z" fill="url(#paint12_linear)"/>
<path d="M42.3504 79.6189H13.731L6.18318 60.4763C6.08315 60.2221 6.0465 59.9474 6.07639 59.6758C6.10629 59.4043 6.20183 59.1441 6.35478 58.9177C6.50772 58.6914 6.71346 58.5057 6.95424 58.3766C7.19501 58.2475 7.46359 58.179 7.73676 58.177H30.2066C31.2943 58.1767 32.3568 58.5037 33.256 59.1156C34.1551 59.7275 34.8492 60.5959 35.248 61.6078L42.3504 79.6189Z" fill="#095FE1"/>
<path d="M40.9005 79.6395H13.7129L6.54572 61.4523C6.44971 61.2101 6.41449 60.9481 6.44315 60.6891C6.4718 60.4302 6.56345 60.1822 6.71008 59.9668C6.85671 59.7515 7.05387 59.5753 7.2843 59.4538C7.51474 59.3322 7.77144 59.269 8.03198 59.2695H29.3626C30.3952 59.2696 31.404 59.5803 32.2578 60.1612C33.1116 60.7421 33.771 61.5663 34.1502 62.5269L40.9005 79.6395Z" fill="#095FE1"/>
<path d="M40.9005 79.6395H13.7129L6.54572 61.4523C6.44971 61.2101 6.41449 60.9481 6.44315 60.6891C6.4718 60.4302 6.56345 60.1822 6.71008 59.9668C6.85671 59.7515 7.05387 59.5753 7.2843 59.4538C7.51474 59.3322 7.77144 59.269 8.03198 59.2695H29.3626C30.3952 59.2696 31.404 59.5803 32.2578 60.1612C33.1116 60.7421 33.771 61.5663 34.1502 62.5269L40.9005 79.6395Z" fill="url(#paint13_linear)"/>
<defs>
<linearGradient id="paint0_linear" x1="70.8016" y1="49.3061" x2="75.2008" y2="47.4833" gradientUnits="userSpaceOnUse">
<stop offset="0.01"/>
<stop offset="0.09" stop-opacity="0.82"/>
<stop offset="1" stop-opacity="0"/>
</linearGradient>
<linearGradient id="paint1_linear" x1="31.245" y1="54.9197" x2="47.05" y2="58.568" gradientUnits="userSpaceOnUse">
<stop offset="0.01"/>
<stop offset="0.12" stop-opacity="0.75"/>
<stop offset="1" stop-opacity="0"/>
</linearGradient>
<linearGradient id="paint2_linear" x1="3802.93" y1="5679.98" x2="3300.11" y2="9759.75" gradientUnits="userSpaceOnUse">
<stop offset="0.01"/>
<stop offset="0.09" stop-opacity="0.82"/>
<stop offset="1" stop-opacity="0"/>
</linearGradient>
<linearGradient id="paint3_linear" x1="8274.07" y1="10254.1" x2="2589.56" y2="8595.83" gradientUnits="userSpaceOnUse">
<stop offset="0.01"/>
<stop offset="0.12" stop-opacity="0.75"/>
<stop offset="1" stop-opacity="0"/>
</linearGradient>
<linearGradient id="paint4_linear" x1="1326.09" y1="1001.74" x2="1398.87" y2="1146.58" gradientUnits="userSpaceOnUse">
<stop offset="0.01"/>
<stop offset="0.09" stop-opacity="0.82"/>
<stop offset="1" stop-opacity="0"/>
</linearGradient>
<linearGradient id="paint5_linear" x1="1014.65" y1="1034.07" x2="1107.06" y2="1086.45" gradientUnits="userSpaceOnUse">
<stop offset="0.01"/>
<stop offset="0.09" stop-opacity="0.82"/>
<stop offset="1" stop-opacity="0"/>
</linearGradient>
<linearGradient id="paint6_linear" x1="1134.6" y1="996.593" x2="946.443" y2="1174.19" gradientUnits="userSpaceOnUse">
<stop offset="0.01"/>
<stop offset="0.09" stop-opacity="0.82"/>
<stop offset="1" stop-opacity="0"/>
</linearGradient>
<linearGradient id="paint7_linear" x1="1409.06" y1="1044.48" x2="1323.48" y2="1154.01" gradientUnits="userSpaceOnUse">
<stop offset="0.01"/>
<stop offset="0.09" stop-opacity="0.82"/>
<stop offset="1" stop-opacity="0"/>
</linearGradient>
<linearGradient id="paint8_linear" x1="1491.51" y1="1016.64" x2="1103.18" y2="1206.06" gradientUnits="userSpaceOnUse">
<stop offset="0.01"/>
<stop offset="0.09" stop-opacity="0.82"/>
<stop offset="1" stop-opacity="0"/>
</linearGradient>
<linearGradient id="paint9_linear" x1="2529.22" y1="1672.56" x2="2141.49" y2="1695.57" gradientUnits="userSpaceOnUse">
<stop offset="0.01"/>
<stop offset="0.09" stop-opacity="0.82"/>
<stop offset="1" stop-opacity="0"/>
</linearGradient>
<linearGradient id="paint10_linear" x1="3340.38" y1="4642.55" x2="2708.24" y2="4728.77" gradientUnits="userSpaceOnUse">
<stop offset="0.01"/>
<stop offset="0.12" stop-opacity="0.75"/>
<stop offset="1" stop-opacity="0"/>
</linearGradient>
<linearGradient id="paint11_linear" x1="48.6994" y1="37.222" x2="51.0764" y2="42.108" gradientUnits="userSpaceOnUse">
<stop offset="0.02" stop-color="white" stop-opacity="0"/>
<stop offset="0.58" stop-color="white" stop-opacity="0.39"/>
<stop offset="0.68" stop-color="white" stop-opacity="0.68"/>
<stop offset="1" stop-color="white"/>
</linearGradient>
<linearGradient id="paint12_linear" x1="46.1671" y1="38.6926" x2="43.3007" y2="44.4693" gradientUnits="userSpaceOnUse">
<stop offset="0.01"/>
<stop offset="1" stop-opacity="0"/>
</linearGradient>
<linearGradient id="paint13_linear" x1="-269744" y1="7532.4" x2="-269799" y2="5193.8" gradientUnits="userSpaceOnUse">
<stop offset="0.01"/>
<stop offset="0.12" stop-opacity="0.75"/>
<stop offset="1" stop-opacity="0"/>
</linearGradient>
</defs>
</svg>
