<svg width="72" height="63" viewBox="0 0 72 63" fill="none" xmlns="http://www.w3.org/2000/svg">
<path d="M75.5755 56.4295C76.3317 57.7713 75.6904 62.3035 75.6904 62.3035C75.6904 62.3035 71.4914 60.5191 70.7353 59.1778C70.3731 58.5335 70.2805 57.7712 70.4778 57.0584C70.6752 56.3456 71.1464 55.7406 71.7879 55.3763C72.4293 55.0121 73.1886 54.9184 73.8988 55.1159C74.609 55.3134 75.2121 55.7859 75.5755 56.4295V56.4295Z" fill="#F1F1F1"/>
<path d="M75.7513 62.2977L75.6621 62.3166C74.8029 58.2187 71.8025 55.4398 71.7723 55.4122L71.8337 55.3445C71.8641 55.3722 74.8859 58.1701 75.7513 62.2977Z" fill="white"/>
<path d="M17.1174 43.8077C16.4554 43.8055 15.7962 43.7199 15.1553 43.5529L15.029 43.5178L14.9119 43.4589C10.6758 41.3267 7.10213 38.5104 4.28999 35.0882C1.96213 32.2387 0.147223 29.0034 -1.07312 25.5277C-2.53246 21.3665 -3.23454 16.9758 -3.14585 12.5651C-3.14407 12.4726 -3.14255 12.4011 -3.14255 12.3518C-3.14255 10.2078 -1.95707 8.32653 -0.122402 7.55908C1.28176 6.97173 14.0309 1.71469 14.9521 1.33485C16.6868 0.462217 18.5376 1.19057 18.8337 1.31794C19.498 1.59061 31.2838 6.42998 33.8307 7.64748C36.4556 8.90229 37.1559 11.1565 37.1559 12.2906C37.1559 17.4252 36.2701 22.2239 34.5231 26.5533C33.1122 30.0577 31.1126 33.293 28.6113 36.1181C23.7853 41.5703 18.958 43.5031 18.9114 43.5201C18.3345 43.7194 17.7275 43.8167 17.1174 43.8077ZM15.9822 40.9847C16.4007 41.0789 17.3643 41.2202 17.9923 40.9902C18.7901 40.6981 22.8305 38.5948 26.6061 34.3293C31.8226 28.4359 34.4695 21.0274 34.4734 12.3096C34.4641 12.133 34.3391 10.8732 32.6774 10.0789C30.1799 8.88495 17.9296 3.85624 17.8061 3.80555L17.7723 3.79115C17.5156 3.68315 16.6985 3.45566 16.1354 3.75194L16.0226 3.80472C15.886 3.86102 2.35269 9.44117 0.909345 10.0449C-0.100313 10.4672 -0.460051 11.5135 -0.460051 12.3518C-0.460051 12.4131 -0.46163 12.5022 -0.463861 12.6174C-0.579214 18.5825 0.795764 33.2606 15.9822 40.9847Z" fill="#3F3D56"/>
<path d="M15.5141 2.55923C15.5141 2.55923 1.85779 8.19001 0.394601 8.80205C-1.06858 9.41409 -1.80017 10.883 -1.80017 12.3519C-1.80017 13.8208 -2.89756 32.988 15.5141 42.2552C15.5141 42.2552 17.1852 42.7194 18.453 42.2552C19.7208 41.7911 35.8158 33.9569 35.8158 12.2907C35.8158 12.2907 35.8158 10.0873 33.2552 8.86325C30.6947 7.63917 18.3147 2.55923 18.3147 2.55923C18.3147 2.55923 16.7944 1.88598 15.5141 2.55923Z" fill="#140E85"/>
<path opacity="0.1" d="M16.9774 6.96582V37.004C16.9774 37.004 3.19906 30.3458 3.32099 12.8414L16.9774 6.96582Z" fill="black"/>
<path d="M17.157 28.5548L12.7679 22.8893L15.3204 20.8964L17.3986 23.5788L24.4192 16.1387L26.7669 18.3717L17.157 28.5548Z" fill="white"/>
<path d="M82.9617 62.6264H42.8561C42.8282 62.6264 42.8014 62.6153 42.7817 62.5954C42.7619 62.5756 42.7509 62.5487 42.7509 62.5207C42.7509 62.4927 42.7619 62.4658 42.7817 62.446C42.8014 62.4262 42.8282 62.415 42.8561 62.415H82.9617C82.9896 62.415 83.0164 62.4262 83.0361 62.446C83.0558 62.4658 83.0669 62.4927 83.0669 62.5207C83.0669 62.5487 83.0558 62.5756 83.0361 62.5954C83.0164 62.6153 82.9896 62.6264 82.9617 62.6264Z" fill="#CACACA"/>
<path d="M54.4494 60.9607L56.0773 60.9606L56.8519 54.6567L54.4491 54.6568L54.4494 60.9607Z" fill="#FFB8B8"/>
<path d="M54.0341 60.4274L57.2402 60.4272H57.2403C57.7822 60.4273 58.3019 60.6434 58.685 61.028C59.0682 61.4127 59.2835 61.9344 59.2835 62.4784V62.545L54.0342 62.5452L54.0341 60.4274Z" fill="#2F2E41"/>
<path d="M59.9232 60.9607L61.5511 60.9606L62.3256 54.6567L59.9229 54.6568L59.9232 60.9607Z" fill="#FFB8B8"/>
<path d="M59.5078 60.4274L62.7139 60.4272H62.714C63.2559 60.4273 63.7756 60.6434 64.1587 61.028C64.5419 61.4127 64.7572 61.9344 64.7572 62.4784V62.545L59.5079 62.5452L59.5078 60.4274Z" fill="#2F2E41"/>
<path d="M57.0082 38.8232L57.3987 58.8222L54.2396 58.6256L52.048 45.8872L51.3558 37.2019L57.0082 38.8232Z" fill="#2F2E41"/>
<path d="M62.4297 35.4647L62.8724 59.1391L59.1882 59.0334L58.3924 44.9606L57.0082 39.8653L51.3559 37.2018L52.2787 30.8326L60.5841 30.7168L62.4297 35.4647Z" fill="#2F2E41"/>
<path d="M56.0778 14.2729C57.6381 14.2729 58.9029 13.0031 58.9029 11.4367C58.9029 9.87037 57.6381 8.60059 56.0778 8.60059C54.5176 8.60059 53.2527 9.87037 53.2527 11.4367C53.2527 13.0031 54.5176 14.2729 56.0778 14.2729Z" fill="#FFB8B8"/>
<path d="M58.421 15.4675L58.8538 16.1257L60.0074 19.3681L59.0845 31.9906L53.6629 32.1065L52.9709 17.631L54.4207 15.8117L58.421 15.4675Z" fill="#CCCCCC"/>
<path d="M50.7791 17.9786L49.8563 17.8628C49.8563 17.8628 49.6256 17.9786 49.5103 18.7892C49.3949 19.5998 48.0107 26.7796 48.0107 26.7796L49.8563 35.5807L51.9327 32.8014L50.6638 27.9377L51.9327 23.0739L50.7791 17.9786Z" fill="#2F2E41"/>
<path d="M62.5451 17.8625H63.2372L64.9675 27.2425L63.3525 34.5381L61.7376 31.8747L62.1989 28.9796L61.9683 26.432L61.1608 24.9264L62.5451 17.8625Z" fill="#2F2E41"/>
<path d="M57.7472 11.4367L57.2336 11.3078C57.2336 11.3078 56.8483 9.11622 55.9494 9.37406C55.0505 9.63189 52.7391 9.88972 52.7391 8.85839C52.7391 7.82707 54.9221 6.92466 56.2062 7.05358C57.4904 7.18249 59.1304 7.61017 59.545 9.50297C60.2096 12.5372 58.1738 13.3036 58.1738 13.3036L58.2077 13.1932C58.3017 12.8864 58.3085 12.5594 58.2271 12.249C58.1457 11.9386 57.9795 11.6572 57.7472 11.4367Z" fill="#2F2E41"/>
<path d="M49.9717 17.8628L53.663 16.3574L54.5281 15.7205L57.1235 27.2429L58.3347 15.373L63.1218 17.8628L61.5069 25.7374L61.2762 28.7483L61.9683 31.1802C61.9683 31.1802 64.3907 32.9172 63.5832 34.7701C62.7758 36.6229 61.853 36.7387 61.853 36.7387C61.853 36.7387 57.931 33.033 57.7003 32.1066C57.4696 31.1802 57.1235 29.5589 57.1235 29.5589C57.1235 29.5589 55.1625 36.9703 52.8555 36.8545C50.5485 36.7387 50.5485 34.3069 50.5485 34.3069L51.1252 31.7592L52.048 29.0957L51.5866 24.6952L49.9717 17.8628Z" fill="#2F2E41"/>
</svg>
