<svg width="378" height="192" viewBox="0 0 378 192" fill="none" xmlns="http://www.w3.org/2000/svg">
<path d="M372.671 191.947H5.37666C2.41604 191.947 0.0475464 189.579 0.0475464 186.618C0.0475464 183.657 2.41604 181.289 5.37666 181.289H372.671C375.632 181.289 378 183.657 378 186.618C378 189.579 375.632 191.947 372.671 191.947Z" fill="#C9C9C9"/>
<path d="M74.4775 136.88C68.7931 136.88 64.2337 132.261 64.2337 126.636C64.2337 121.011 68.8523 116.392 74.4775 116.392H132.506V136.939H74.4775V136.88Z" fill="#CECECE"/>
<path d="M135.881 140.433H74.4775C66.8391 140.433 60.681 134.216 60.681 126.637C60.681 118.998 66.8983 112.84 74.4775 112.84H135.881V140.433Z" fill="white"/>
<path d="M70.6879 123.438H132.506" stroke="#1F3969" stroke-width="4" stroke-miterlimit="10" stroke-linecap="round" stroke-linejoin="round"/>
<path d="M70.6879 129.715H132.506" stroke="#1F3969" stroke-width="4" stroke-miterlimit="10" stroke-linecap="round" stroke-linejoin="round"/>
<path d="M74.4775 136.88C68.7931 136.88 64.2337 132.261 64.2337 126.636C64.2337 121.011 68.8523 116.392 74.4775 116.392H132.506V136.939H74.4775V136.88Z" stroke="#1F3969" stroke-width="4" stroke-miterlimit="10" stroke-linecap="round" stroke-linejoin="round"/>
<path d="M74.4775 136.881C68.7931 136.881 64.2337 132.262 64.2337 126.637C64.2337 121.012 68.8523 116.393 74.4775 116.393H133.512L135.881 112.84H74.4775C66.8391 112.84 60.681 119.058 60.681 126.637C60.681 134.275 66.8983 140.433 74.4775 140.433H135.881L133.512 136.881H74.4775Z" fill="#FF3E3E"/>
<path d="M74.4775 136.881C68.7931 136.881 64.2337 132.262 64.2337 126.637C64.2337 121.012 68.8523 116.393 74.4775 116.393H133.512L135.881 112.84H74.4775C66.8391 112.84 60.681 119.058 60.681 126.637C60.681 134.275 66.8983 140.433 74.4775 140.433H135.881L133.512 136.881H74.4775Z" stroke="#1F3969" stroke-width="4" stroke-miterlimit="10" stroke-linecap="round" stroke-linejoin="round"/>
<path opacity="0.28" d="M122.676 112.78H111.781V140.432H122.676V112.78Z" fill="#1F3969" stroke="#1F3969" stroke-width="4" stroke-miterlimit="10" stroke-linecap="round" stroke-linejoin="round"/>
<path d="M129.545 163.229H17.1007C14.9098 163.229 13.0742 161.453 13.0742 159.203V144.399C13.0742 142.209 14.8506 140.373 17.1007 140.373H129.545C131.736 140.373 133.571 142.149 133.571 144.399V159.203C133.571 161.453 131.795 163.229 129.545 163.229Z" fill="#50B56F"/>
<path d="M47.4766 152.571H45.9371V155.828H44.9305V147.953H47.4766C49.3122 147.953 50.2004 148.96 50.2004 150.262C50.2004 151.446 49.4306 152.571 47.4766 152.571ZM47.4766 151.683C48.6609 151.683 49.1346 151.15 49.1346 150.262C49.1346 149.374 48.6609 148.782 47.4766 148.782H45.9371V151.683H47.4766Z" fill="white"/>
<path d="M53.0426 147.952H54.1676L56.1216 151.919L58.0756 147.952H59.2007L56.6545 152.867V155.827H55.6479V152.867L53.0426 147.952Z" fill="white"/>
<path d="M62.0429 147.952H67.372V148.781H65.2403V155.827H64.2337V148.781H62.1021V147.952H62.0429Z" fill="white"/>
<path d="M75.9578 152.275H71.9313V155.827H70.9247V147.952H71.9313V151.386H75.9578V147.952H76.9644V155.827H75.9578V152.275Z" fill="white"/>
<path d="M84.5435 155.887C82.3527 155.887 80.5763 154.229 80.5763 151.86C80.5763 149.492 82.2935 147.834 84.5435 147.834C86.7936 147.834 88.5108 149.492 88.5108 151.86C88.4516 154.229 86.7344 155.887 84.5435 155.887ZM84.5435 154.999C86.2015 154.999 87.4449 153.814 87.4449 151.86C87.4449 149.906 86.2015 148.722 84.5435 148.722C82.8856 148.722 81.6421 149.906 81.6421 151.86C81.6421 153.814 82.8856 154.999 84.5435 154.999Z" fill="white"/>
<path d="M98.2808 147.952V155.827H97.2742L93.1293 149.551V155.827H92.1227V147.952H93.1293L97.2742 154.169V147.952H98.2808Z" fill="white"/>
<path d="M129.545 163.229H17.1007C14.9098 163.229 13.0742 161.453 13.0742 159.203V144.399C13.0742 142.209 14.8506 140.373 17.1007 140.373H129.545C131.736 140.373 133.571 142.149 133.571 144.399V159.203C133.571 161.453 131.795 163.229 129.545 163.229Z" stroke="#1F3969" stroke-width="4" stroke-miterlimit="10" stroke-linecap="round" stroke-linejoin="round"/>
<path opacity="0.28" d="M129.545 140.432H111.781V149.314C111.781 154.88 116.281 159.44 121.907 159.44H133.571C133.571 159.38 133.571 159.321 133.571 159.262V144.459C133.571 142.209 131.795 140.432 129.545 140.432Z" fill="#1F3969" stroke="#1F3969" stroke-width="4" stroke-miterlimit="10" stroke-linecap="round" stroke-linejoin="round"/>
<path d="M161.224 167.848H30.9564C31.7262 169.742 32.1406 172.111 32.1406 174.598C32.1406 177.085 31.7262 179.394 30.9564 181.348H161.164C160.395 179.453 159.98 177.085 159.98 174.598C160.039 172.052 160.454 169.742 161.224 167.848Z" fill="#CECECE"/>
<path d="M164.776 164.236H27.4629V167.789H164.776V164.236Z" fill="#5F5AFF"/>
<path d="M164.776 164.236H27.4629V167.789H164.776V164.236Z" stroke="#1F3969" stroke-width="4" stroke-miterlimit="10" stroke-linecap="round" stroke-linejoin="round"/>
<path d="M164.776 181.289H27.4629V184.842H164.776V181.289Z" fill="#F6F9FD"/>
<path d="M164.776 181.289H27.4629V184.842H164.776V181.289Z" fill="#5F5AFF"/>
<path d="M164.776 181.289H27.4629V184.842H164.776V181.289Z" stroke="#1F3969" stroke-width="4" stroke-miterlimit="10" stroke-linecap="round" stroke-linejoin="round"/>
<path d="M232.989 172.229L231.213 152.275H201.962L200.185 172.229C199.771 176.848 196.988 181.289 192.606 184.842V184.901H240.568V184.842C236.186 181.289 233.403 176.848 232.989 172.229Z" fill="#BFCFE2"/>
<path opacity="0.28" d="M201.962 152.275L200.896 164.236H232.278L231.213 152.275H201.962Z" fill="#1F3969" stroke="#1F3969" stroke-width="4" stroke-miterlimit="10" stroke-linecap="round" stroke-linejoin="round"/>
<path d="M232.989 172.229L231.213 152.275H201.962L200.185 172.229C199.771 176.848 196.988 181.289 192.606 184.842V184.901H240.568V184.842C236.186 181.289 233.403 176.848 232.989 172.229Z" stroke="#1F3969" stroke-width="4" stroke-miterlimit="10" stroke-linecap="round" stroke-linejoin="round"/>
<path d="M310.143 155.235H123.032C119.124 155.235 115.926 152.038 115.926 148.13V26.1524C115.926 22.2443 119.124 19.0469 123.032 19.0469H310.143C314.051 19.0469 317.248 22.2443 317.248 26.1524V148.13C317.248 152.097 314.051 155.235 310.143 155.235Z" fill="white"/>
<path d="M310.143 155.235H123.032C119.124 155.235 115.926 152.038 115.926 148.13V26.1524C115.926 22.2443 119.124 19.0469 123.032 19.0469H310.143C314.051 19.0469 317.248 22.2443 317.248 26.1524V148.13C317.248 152.097 314.051 155.235 310.143 155.235Z" fill="#BFCFE2"/>
<path d="M310.143 155.235H123.032C119.124 155.235 115.926 152.038 115.926 148.13V26.1524C115.926 22.2443 119.124 19.0469 123.032 19.0469H310.143C314.051 19.0469 317.248 22.2443 317.248 26.1524V148.13C317.248 152.097 314.051 155.235 310.143 155.235Z" stroke="#1F3969" stroke-width="4" stroke-miterlimit="10" stroke-linecap="round" stroke-linejoin="round"/>
<path d="M307.215 132.515V29.1299L126.025 29.1299L126.025 132.515L307.215 132.515Z" fill="#F6F9FD"/>
<path opacity="0.28" d="M132.506 19.0469V101.115C132.506 103.721 134.637 105.852 137.243 105.852H249.213C251.818 105.852 253.95 103.721 253.95 101.115V19.0469H132.506Z" fill="#1F3969" stroke="#1F3969" stroke-width="4" stroke-miterlimit="10" stroke-linecap="round" stroke-linejoin="round"/>
<path d="M307.215 132.515V29.1299L126.025 29.1299L126.025 132.515L307.215 132.515Z" stroke="#1F3969" stroke-width="4" stroke-miterlimit="10" stroke-linecap="round" stroke-linejoin="round"/>
<path d="M208.653 143.807H224.581" stroke="#1F3969" stroke-width="4" stroke-miterlimit="10" stroke-linecap="round" stroke-linejoin="round"/>
<path d="M254.542 99.3392H142.572C139.966 99.3392 137.835 97.2076 137.835 94.6022V6.84954C137.835 4.24419 139.966 2.11255 142.572 2.11255H254.542C257.148 2.11255 259.279 4.24419 259.279 6.84954V94.6614C259.279 97.2668 257.148 99.3392 254.542 99.3392Z" fill="#2D425E"/>
<path d="M259.279 13.5994H137.835V6.78997C137.835 4.18462 139.966 2.05298 142.572 2.05298H254.542C257.148 2.05298 259.279 4.18462 259.279 6.78997V13.5994Z" stroke="#1F3969" stroke-width="4" stroke-miterlimit="10" stroke-linecap="round" stroke-linejoin="round"/>
<path d="M259.279 15.8495H137.835V6.78997C137.835 4.18462 139.966 2.05298 142.572 2.05298H254.542C257.148 2.05298 259.279 4.18462 259.279 6.78997V15.8495Z" fill="#D0DDF0"/>
<path d="M259.279 15.8495H137.835V6.78997C137.835 4.18462 139.966 2.05298 142.572 2.05298H254.542C257.148 2.05298 259.279 4.18462 259.279 6.78997V15.8495Z" stroke="#1F3969" stroke-width="4" stroke-miterlimit="10" stroke-linecap="round" stroke-linejoin="round"/>
<path d="M259.279 15.8495H137.835V6.78997C137.835 4.18462 139.966 2.05298 142.572 2.05298H254.542C257.148 2.05298 259.279 4.18462 259.279 6.78997V15.8495Z" stroke="#1F3969" stroke-width="4" stroke-miterlimit="10" stroke-linecap="round" stroke-linejoin="round"/>
<path d="M254.542 99.3392H142.572C139.966 99.3392 137.835 97.2076 137.835 94.6022V6.84954C137.835 4.24419 139.966 2.11255 142.572 2.11255H254.542C257.148 2.11255 259.279 4.24419 259.279 6.84954V94.6614C259.279 97.2668 257.148 99.3392 254.542 99.3392Z" stroke="#1F3969" stroke-width="4" stroke-miterlimit="10" stroke-linecap="round" stroke-linejoin="round"/>
<path opacity="0.28" d="M312.985 120.3H244.299C241.693 120.3 239.562 118.169 239.562 115.563V42.7912C239.562 40.1858 241.693 38.0542 244.299 38.0542H312.985C315.59 38.0542 317.722 40.1858 317.722 42.7912V115.563C317.722 118.228 315.59 120.3 312.985 120.3Z" fill="#1F3969" stroke="#1F3969" stroke-width="4" stroke-miterlimit="10" stroke-linecap="round" stroke-linejoin="round"/>
<path d="M317.722 116.156H249.035C246.43 116.156 244.298 114.024 244.298 111.419V38.6467C244.298 36.0413 246.43 33.9097 249.035 33.9097H317.722C320.327 33.9097 322.459 36.0413 322.459 38.6467V111.419C322.459 114.083 320.327 116.156 317.722 116.156Z" fill="#2AA1FF"/>
<path d="M317.722 116.156H249.035C246.43 116.156 244.298 114.024 244.298 111.419V38.6467C244.298 36.0413 246.43 33.9097 249.035 33.9097H317.722C320.327 33.9097 322.459 36.0413 322.459 38.6467V111.419C322.459 114.083 320.327 116.156 317.722 116.156Z" stroke="#1F3969" stroke-width="4" stroke-miterlimit="10" stroke-linecap="round" stroke-linejoin="round"/>
<path opacity="0.34" d="M307.478 56.4695H259.161C257.444 56.4695 256.082 55.1076 256.082 53.3905V48.7719C256.082 47.0548 257.444 45.6929 259.161 45.6929H307.478C309.195 45.6929 310.557 47.0548 310.557 48.7719V53.3905C310.557 55.1076 309.195 56.4695 307.478 56.4695Z" stroke="white" stroke-width="2" stroke-miterlimit="10" stroke-linecap="round" stroke-linejoin="round"/>
<g opacity="0.34">
<path opacity="0.34" d="M286.28 73.8191H259.279C257.562 73.8191 256.2 72.4572 256.2 70.7401V66.1215C256.2 64.4044 257.562 63.0425 259.279 63.0425H286.28C287.997 63.0425 289.359 64.4044 289.359 66.1215V70.7401C289.3 72.4572 287.938 73.8191 286.28 73.8191Z" stroke="white" stroke-width="2" stroke-miterlimit="10" stroke-linecap="round" stroke-linejoin="round"/>
<path opacity="0.34" d="M307.537 73.8186H297.057C295.34 73.8186 293.978 72.4568 293.978 70.7396V66.121C293.978 64.4039 295.34 63.042 297.057 63.042H307.537C309.254 63.042 310.616 64.4039 310.616 66.121V70.7396C310.616 72.4568 309.254 73.8186 307.537 73.8186Z" stroke="white" stroke-width="2" stroke-miterlimit="10" stroke-linecap="round" stroke-linejoin="round"/>
</g>
<path d="M256.141 91.8193H310.557" stroke="white" stroke-width="2" stroke-miterlimit="10" stroke-linecap="round" stroke-linejoin="round"/>
<path d="M256.141 98.2144H310.557" stroke="white" stroke-width="2" stroke-miterlimit="10" stroke-linecap="round" stroke-linejoin="round"/>
<path d="M256.141 104.609H289.3" stroke="white" stroke-width="2" stroke-miterlimit="10" stroke-linecap="round" stroke-linejoin="round"/>
<path d="M149.736 11.3495C151.044 11.3495 152.105 10.2891 152.105 8.98104C152.105 7.67296 151.044 6.61255 149.736 6.61255C148.428 6.61255 147.368 7.67296 147.368 8.98104C147.368 10.2891 148.428 11.3495 149.736 11.3495Z" fill="#1F3969"/>
<path d="M157.967 11.3495C159.275 11.3495 160.335 10.2891 160.335 8.98104C160.335 7.67296 159.275 6.61255 157.967 6.61255C156.659 6.61255 155.598 7.67296 155.598 8.98104C155.598 10.2891 156.659 11.3495 157.967 11.3495Z" fill="#1F3969"/>
<path d="M166.197 11.3495C167.505 11.3495 168.566 10.2891 168.566 8.98104C168.566 7.67296 167.505 6.61255 166.197 6.61255C164.889 6.61255 163.829 7.67296 163.829 8.98104C163.829 10.2891 164.889 11.3495 166.197 11.3495Z" fill="#1F3969"/>
<path d="M207.587 26.8037H215.284" stroke="white" stroke-width="4" stroke-miterlimit="10" stroke-linecap="round" stroke-linejoin="round"/>
<path d="M168.566 26.8037H201.902" stroke="#7BFFA0" stroke-width="4" stroke-miterlimit="10" stroke-linecap="round" stroke-linejoin="round"/>
<path d="M152.105 26.804H163.829" stroke="#9169FF" stroke-width="4" stroke-miterlimit="10" stroke-linecap="round" stroke-linejoin="round"/>
<path d="M167.382 85.1279H192.843" stroke="#9169FF" stroke-width="4" stroke-miterlimit="10" stroke-linecap="round" stroke-linejoin="round"/>
<path d="M152.105 85.1282H160.335" stroke="#7BFFA0" stroke-width="4" stroke-miterlimit="10" stroke-linecap="round" stroke-linejoin="round"/>
<path d="M201.903 34.0872H206.699" stroke="white" stroke-width="4" stroke-miterlimit="10" stroke-linecap="round" stroke-linejoin="round"/>
<path d="M180.112 34.0872H196.218" stroke="#9169FF" stroke-width="4" stroke-miterlimit="10" stroke-linecap="round" stroke-linejoin="round"/>
<path d="M157.967 34.0872H174.369" stroke="#FFC47D" stroke-width="4" stroke-miterlimit="10" stroke-linecap="round" stroke-linejoin="round"/>
<path d="M183.369 41.3699H197.521" stroke="white" stroke-width="4" stroke-miterlimit="10" stroke-linecap="round" stroke-linejoin="round"/>
<path d="M165.605 41.3701H178.928" stroke="#FF5757" stroke-width="4" stroke-miterlimit="10" stroke-linecap="round" stroke-linejoin="round"/>
<path d="M185.264 48.6533H188.165" stroke="white" stroke-width="4" stroke-miterlimit="10" stroke-linecap="round" stroke-linejoin="round"/>
<path d="M173.54 48.6533H180.112" stroke="#9169FF" stroke-width="4" stroke-miterlimit="10" stroke-linecap="round" stroke-linejoin="round"/>
<path d="M157.967 48.6533H168.566" stroke="#7BFFA0" stroke-width="4" stroke-miterlimit="10" stroke-linecap="round" stroke-linejoin="round"/>
<path d="M180.704 55.9954H199.593" stroke="#FFC47D" stroke-width="4" stroke-miterlimit="10" stroke-linecap="round" stroke-linejoin="round"/>
<path d="M157.967 55.9956H174.902" stroke="#FF5757" stroke-width="4" stroke-miterlimit="10" stroke-linecap="round" stroke-linejoin="round"/>
<path d="M202.554 63.2786H212.798" stroke="#9169FF" stroke-width="4" stroke-miterlimit="10" stroke-linecap="round" stroke-linejoin="round"/>
<path d="M180.704 63.2786H197.106" stroke="#FF5757" stroke-width="4" stroke-miterlimit="10" stroke-linecap="round" stroke-linejoin="round"/>
<path d="M165.605 63.2788H174.902" stroke="#7BFFA0" stroke-width="4" stroke-miterlimit="10" stroke-linecap="round" stroke-linejoin="round"/>
<path d="M188.165 70.5618H197.106" stroke="white" stroke-width="4" stroke-miterlimit="10" stroke-linecap="round" stroke-linejoin="round"/>
<path d="M165.605 70.562H182.007" stroke="#9169FF" stroke-width="4" stroke-miterlimit="10" stroke-linecap="round" stroke-linejoin="round"/>
<path d="M211.436 77.845H221.679" stroke="white" stroke-width="4" stroke-miterlimit="10" stroke-linecap="round" stroke-linejoin="round"/>
<path d="M180.112 77.845H205.87" stroke="#FFC47D" stroke-width="4" stroke-miterlimit="10" stroke-linecap="round" stroke-linejoin="round"/>
<path d="M157.967 77.8445H174.369" stroke="white" stroke-width="4" stroke-miterlimit="10" stroke-linecap="round" stroke-linejoin="round"/>
<path d="M32.4367 171.933H160.039" stroke="#1F3969" stroke-width="4" stroke-miterlimit="10" stroke-linecap="round" stroke-linejoin="round"/>
<path d="M32.4367 176.67H160.039" stroke="#1F3969" stroke-width="4" stroke-miterlimit="10" stroke-linecap="round" stroke-linejoin="round"/>
<path d="M161.224 167.848H30.9564C31.7262 169.742 32.1406 172.111 32.1406 174.598C32.1406 177.085 31.7262 179.394 30.9564 181.348H161.164C160.395 179.453 159.98 177.085 159.98 174.598C160.039 172.052 160.454 169.742 161.224 167.848Z" stroke="#1F3969" stroke-width="4" stroke-miterlimit="10" stroke-linecap="round" stroke-linejoin="round"/>
<path d="M336.462 119.572L330.699 120.249L335.711 162.945L341.475 162.268L336.462 119.572Z" fill="#FFA364"/>
<path d="M336.47 119.618L330.707 120.294L331.218 124.646L336.981 123.97L336.47 119.618Z" fill="#2AA1FF"/>
<path d="M336.47 119.618L330.707 120.294L331.218 124.646L336.981 123.97L336.47 119.618Z" stroke="#1F3969" stroke-width="4" stroke-miterlimit="10" stroke-linecap="round" stroke-linejoin="round"/>
<path d="M336.462 119.572L330.699 120.249L335.711 162.945L341.475 162.268L336.462 119.572Z" stroke="#1F3969" stroke-width="4" stroke-miterlimit="10" stroke-linecap="round" stroke-linejoin="round"/>
<path d="M352.266 128.318L346.497 127.691L341.85 170.425L347.619 171.053L352.266 128.318Z" fill="#FF5252"/>
<path d="M352.266 128.318L346.497 127.691L341.85 170.425L347.619 171.053L352.266 128.318Z" stroke="#1F3969" stroke-width="4" stroke-miterlimit="10" stroke-linecap="round" stroke-linejoin="round"/>
<path d="M352.308 128.328L346.54 127.701L346.066 132.057L351.835 132.684L352.308 128.328Z" fill="#2D425E"/>
<path d="M352.308 128.328L346.54 127.701L346.066 132.057L351.835 132.684L352.308 128.328Z" stroke="#1F3969" stroke-width="4" stroke-miterlimit="10" stroke-linecap="round" stroke-linejoin="round"/>
<path d="M355.855 185.019H332.584L328.795 149.373H359.644L355.855 185.019Z" fill="#6567C3"/>
<path d="M328.795 149.373L328.854 150.025H352.361L348.631 185.019H355.855L359.644 149.373H328.795Z" fill="#6567C3"/>
<path d="M355.855 185.019H332.584L328.795 149.373H359.644L355.855 185.019Z" stroke="#1F3969" stroke-width="4" stroke-miterlimit="10" stroke-linecap="round" stroke-linejoin="round"/>
</svg>
