<svg width="683" height="418" viewBox="0 0 683 418" fill="none" xmlns="http://www.w3.org/2000/svg">
<path opacity="0.1" d="M530.368 283.816C529.881 284.172 529.433 284.517 528.956 284.854C527.195 286.099 525.351 287.223 523.438 288.219C513.415 293.503 501.059 296.084 489.025 297.838C462.034 301.773 434.478 302.537 407.039 303.287C332.899 305.323 258.578 307.354 184.619 302.664C155.397 300.813 125.533 297.716 99.0531 288.219C95.2575 286.862 91.5366 285.365 87.8904 283.728C80.512 280.412 73.4258 276.374 67.5327 271.553C61.9953 267.033 57.5049 261.842 54.8214 255.939C49.2254 243.646 52.1865 229.839 58.5763 217.79C61.2301 212.916 64.223 208.233 67.5327 203.778C72.4663 196.994 77.9064 190.405 82.8692 183.625C100.529 159.527 112.052 129.039 95.751 104.323C91.0658 97.2218 84.2962 90.9879 80.4779 83.5753C75.6076 74.0929 75.9826 63.5634 77.5314 53.3359C77.7327 52.0371 77.9454 50.7514 78.1694 49.4786C80.8139 34.3126 85.7913 17.9729 101.138 8.50511C117.078 -1.33281 139.715 -0.836047 159.498 2.6608C190.263 8.15446 218.642 19.5898 247.323 29.9148C276.004 40.2397 306.01 49.6734 337.53 50.6865C365.364 51.5826 397.829 44.8762 416.302 27.4456C434.244 10.5165 467.97 9.22591 492.278 19.4535C508.963 26.4715 521.412 39.1147 526.662 53.3359C527.725 56.191 528.491 59.1483 528.946 62.1608C529.367 64.9139 529.504 67.703 529.355 70.4841C529.282 71.8575 529.141 73.2163 528.946 74.5605C524.884 102.623 495.648 124.758 477.877 149.826C469.193 162.069 463.061 176.778 469.032 189.981C478.14 210.1 509.811 217.254 528.936 232.225C532.536 234.95 535.704 238.201 538.336 241.869C547.614 255.194 544.19 273.189 530.368 283.816Z" fill="#6C63FF"/>
<path d="M125.567 158.222C125.567 158.222 103.164 118.52 69.4029 107.084C55.2353 102.282 42.8698 93.2526 34.415 80.9114C30.4123 75.052 26.9561 68.8374 24.09 62.3459" stroke="#535461" stroke-width="2" stroke-miterlimit="10"/>
<path d="M2.86055 54.9969C6.70806 58.713 24.6209 62.6092 24.6209 62.6092C24.6209 62.6092 20.2376 44.823 16.3804 41.0875C14.5262 39.3317 12.0549 38.3773 9.50189 38.4311C6.9489 38.4849 4.51995 39.5426 2.74143 41.375C0.9629 43.2073 -0.0219272 45.6667 0.000370544 48.2201C0.0226683 50.7736 1.05029 53.2154 2.86055 55.0164V54.9969Z" fill="#6C63FF"/>
<path d="M12.9956 87.1842C18.2506 88.2265 35.3988 81.7344 35.3988 81.7344C35.3988 81.7344 22.0299 69.1886 16.77 68.1464C14.2702 67.7062 11.6974 68.2628 9.60297 69.6968C7.50858 71.1308 6.05926 73.3282 5.56562 75.8181C5.07199 78.3079 5.57332 80.8921 6.96217 83.0167C8.35102 85.1413 10.5169 86.6374 12.9956 87.1842Z" fill="#6C63FF"/>
<path d="M49.8878 122.026C54.9529 120.273 66.4467 106.018 66.4467 106.018C66.4467 106.018 48.5826 101.931 43.5224 103.685C42.2807 104.07 41.1293 104.702 40.1363 105.541C39.1433 106.38 38.3291 107.41 37.7419 108.57C37.1547 109.73 36.8066 110.997 36.7181 112.294C36.6296 113.591 36.8026 114.892 37.2268 116.121C37.6511 117.35 38.3179 118.482 39.1877 119.448C40.0575 120.414 41.1126 121.196 42.2903 121.747C43.468 122.297 44.7444 122.606 46.0436 122.654C47.3429 122.702 48.6385 122.489 49.8537 122.026H49.8878Z" fill="#6C63FF"/>
<path d="M83.7361 142.087C89.0252 141.21 102.779 129.107 102.779 129.107C102.779 129.107 85.8644 122.06 80.5753 122.932C78.0352 123.351 75.7657 124.762 74.266 126.855C72.7662 128.947 72.1592 131.55 72.5783 134.09C72.9975 136.63 74.4085 138.899 76.501 140.399C78.5935 141.899 81.196 142.506 83.7361 142.087Z" fill="#6C63FF"/>
<path d="M50.3213 67.8348C50.3213 73.192 40.6294 88.7428 40.6294 88.7428C40.6294 88.7428 30.9181 73.2018 30.9133 67.8445C30.8843 66.5519 31.1139 65.2665 31.5885 64.0638C32.0632 62.8611 32.7734 61.7653 33.6773 60.8409C34.5813 59.9165 35.6609 59.1819 36.8526 58.6805C38.0444 58.179 39.3243 57.9207 40.6173 57.9207C41.9102 57.9207 43.1902 58.179 44.3819 58.6805C45.5737 59.1819 46.6532 59.9165 47.5572 60.8409C48.4611 61.7653 49.1713 62.8611 49.646 64.0638C50.1206 65.2665 50.3502 66.5519 50.3213 67.8445V67.8348Z" fill="#6C63FF"/>
<path d="M89.6145 91.8305C88.0122 96.9443 74.1076 108.876 74.1076 108.876C74.1076 108.876 69.4906 91.1243 71.0734 85.9862C71.9241 83.6337 73.6503 81.7004 75.8918 80.5897C78.1334 79.479 80.7172 79.2767 83.1043 80.0248C85.4915 80.773 87.4976 82.414 88.7042 84.6054C89.9107 86.7968 90.2247 89.3694 89.5804 91.7867L89.6145 91.8305Z" fill="#6C63FF"/>
<path d="M124.602 120.346C123.891 125.659 112.203 139.769 112.203 139.769C112.203 139.769 104.654 123.073 105.384 117.76C105.763 115.24 107.117 112.969 109.155 111.439C111.193 109.908 113.751 109.241 116.277 109.58C118.802 109.92 121.093 111.239 122.655 113.254C124.216 115.268 124.923 117.815 124.622 120.346H124.602Z" fill="#6C63FF"/>
<path opacity="0.25" d="M2.86055 54.9969C6.70806 58.713 24.6209 62.6092 24.6209 62.6092C24.6209 62.6092 20.2376 44.823 16.3804 41.0875C14.5262 39.3317 12.0549 38.3773 9.50189 38.4311C6.9489 38.4849 4.51995 39.5426 2.74143 41.375C0.9629 43.2073 -0.0219272 45.6667 0.000370544 48.2201C0.0226683 50.7736 1.05029 53.2154 2.86055 55.0164V54.9969Z" fill="black"/>
<path opacity="0.25" d="M12.9956 87.1842C18.2506 88.2265 35.3988 81.7344 35.3988 81.7344C35.3988 81.7344 22.0299 69.1886 16.77 68.1464C14.2702 67.7062 11.6974 68.2628 9.60297 69.6968C7.50858 71.1308 6.05926 73.3282 5.56562 75.8181C5.07199 78.3079 5.57332 80.8921 6.96217 83.0167C8.35102 85.1413 10.5169 86.6374 12.9956 87.1842Z" fill="black"/>
<path opacity="0.25" d="M49.8878 122.026C54.9529 120.273 66.4467 106.018 66.4467 106.018C66.4467 106.018 48.5826 101.931 43.5224 103.685C42.2807 104.07 41.1293 104.702 40.1363 105.541C39.1433 106.38 38.3291 107.41 37.7419 108.57C37.1547 109.73 36.8066 110.997 36.7181 112.294C36.6296 113.591 36.8026 114.892 37.2268 116.121C37.6511 117.35 38.3179 118.482 39.1877 119.448C40.0575 120.414 41.1126 121.196 42.2903 121.747C43.468 122.297 44.7444 122.606 46.0436 122.654C47.3429 122.702 48.6385 122.489 49.8537 122.026H49.8878Z" fill="black"/>
<path opacity="0.25" d="M83.7361 142.087C89.0252 141.21 102.779 129.107 102.779 129.107C102.779 129.107 85.8644 122.06 80.5753 122.932C78.0352 123.351 75.7657 124.762 74.266 126.855C72.7662 128.947 72.1592 131.55 72.5783 134.09C72.9975 136.63 74.4085 138.899 76.501 140.399C78.5935 141.899 81.196 142.506 83.7361 142.087Z" fill="black"/>
<path opacity="0.25" d="M50.3213 67.8348C50.3213 73.192 40.6294 88.7428 40.6294 88.7428C40.6294 88.7428 30.9181 73.2018 30.9133 67.8445C30.8843 66.5519 31.1139 65.2665 31.5885 64.0638C32.0632 62.8611 32.7734 61.7653 33.6773 60.8409C34.5813 59.9165 35.6609 59.1819 36.8526 58.6805C38.0444 58.179 39.3243 57.9207 40.6173 57.9207C41.9102 57.9207 43.1902 58.179 44.3819 58.6805C45.5737 59.1819 46.6532 59.9165 47.5572 60.8409C48.4611 61.7653 49.1713 62.8611 49.646 64.0638C50.1206 65.2665 50.3502 66.5519 50.3213 67.8445V67.8348Z" fill="black"/>
<path opacity="0.25" d="M89.6145 91.8305C88.0122 96.9443 74.1076 108.876 74.1076 108.876C74.1076 108.876 69.4906 91.1243 71.0734 85.9862C71.9241 83.6337 73.6503 81.7004 75.8918 80.5897C78.1334 79.479 80.7172 79.2767 83.1043 80.0248C85.4915 80.773 87.4976 82.414 88.7042 84.6054C89.9107 86.7968 90.2247 89.3694 89.5804 91.7867L89.6145 91.8305Z" fill="black"/>
<path opacity="0.25" d="M124.602 120.346C123.891 125.659 112.203 139.769 112.203 139.769C112.203 139.769 104.654 123.073 105.384 117.76C105.763 115.24 107.117 112.969 109.155 111.439C111.193 109.908 113.751 109.241 116.277 109.58C118.802 109.92 121.093 111.239 122.655 113.254C124.216 115.268 124.923 117.815 124.622 120.346H124.602Z" fill="black"/>
<path d="M124.276 157.433C124.276 157.433 119.893 112.052 93.652 87.9147C82.65 77.7845 75.0037 64.5374 72.2715 49.8097C70.989 42.8292 70.35 35.7458 70.3624 28.6484" stroke="#535461" stroke-width="2" stroke-miterlimit="10"/>
<path d="M53.9252 13.3415C55.9318 18.314 70.7422 29.1016 70.7422 29.1016C70.7422 29.1016 73.9323 11.0573 71.9306 6.08477C70.9683 3.69518 69.0961 1.78572 66.726 0.776472C64.3559 -0.232781 61.6819 -0.25916 59.2923 0.703136C56.9027 1.66543 54.9932 3.53758 53.984 5.90773C52.9747 8.27787 52.9483 10.9519 53.9106 13.3415H53.9252Z" fill="#6C63FF"/>
<path d="M50.1313 46.8732C54.5145 49.9561 72.8121 50.9642 72.8121 50.9642C72.8121 50.9642 65.7161 34.0839 61.3329 31.001C59.2281 29.5156 56.6195 28.9271 54.0808 29.3651C51.5421 29.803 49.2814 31.2315 47.796 33.3363C46.3106 35.4411 45.7221 38.0497 46.1601 40.5884C46.598 43.1271 48.0265 45.3878 50.1313 46.8732Z" fill="#6C63FF"/>
<path d="M69.7633 93.6666C75.1206 94.1195 91.4068 85.7475 91.4068 85.7475C91.4068 85.7475 76.7327 74.7748 71.39 74.3268C70.1045 74.1899 68.8046 74.3112 67.5666 74.6836C66.3286 75.0559 65.1775 75.6718 64.1808 76.4951C63.1841 77.3184 62.3619 78.3325 61.7625 79.4779C61.163 80.6233 60.7984 81.8769 60.6901 83.1651C60.5817 84.4533 60.7318 85.7502 61.1315 86.9796C61.5312 88.2091 62.1724 89.3463 63.0176 90.3245C63.8628 91.3027 64.8949 92.1022 66.0533 92.6761C67.2116 93.2501 68.473 93.5868 69.7633 93.6666Z" fill="#6C63FF"/>
<path d="M92.5756 125.733C97.7673 127.077 115.247 121.583 115.247 121.583C115.247 121.583 102.638 108.287 97.4508 106.943C94.9749 106.343 92.3624 106.741 90.177 108.05C87.9917 109.359 86.4086 111.475 85.7694 113.941C85.1302 116.407 85.4861 119.026 86.7603 121.232C88.0346 123.438 90.125 125.054 92.5805 125.733H92.5756Z" fill="#6C63FF"/>
<path d="M92.113 44.3114C89.9457 49.2109 74.7797 59.492 74.7797 59.492C74.7797 59.492 72.1985 41.3551 74.3657 36.4508C74.8677 35.2642 75.6008 34.1894 76.5224 33.2891C77.444 32.3888 78.5356 31.681 79.7335 31.2069C80.9315 30.7328 82.2118 30.502 83.4999 30.5278C84.788 30.5537 86.0581 30.8357 87.2361 31.3574C88.4141 31.8792 89.4764 32.6302 90.3611 33.5668C91.2459 34.5033 91.9353 35.6066 92.3892 36.8124C92.8432 38.0181 93.0525 39.3022 93.0051 40.5897C92.9577 41.8771 92.6544 43.1423 92.113 44.3114Z" fill="#6C63FF"/>
<path d="M118.315 82.1436C114.779 86.1713 97.2316 91.4458 97.2316 91.4458C97.2316 91.4458 100.193 73.3674 103.733 69.3397C104.574 68.3823 105.595 67.5998 106.738 67.037C107.881 66.4741 109.124 66.142 110.396 66.0594C111.667 65.9769 112.942 66.1456 114.149 66.5559C115.355 66.9663 116.469 67.6102 117.426 68.4509C118.384 69.2916 119.166 70.3127 119.729 71.4558C120.292 72.5989 120.624 73.8417 120.706 75.1132C120.789 76.3847 120.62 77.66 120.21 78.8663C119.8 80.0725 119.156 81.1862 118.315 82.1436Z" fill="#6C63FF"/>
<path d="M138.77 122.416C135.965 126.984 119.562 135.147 119.562 135.147C119.562 135.147 119.425 116.825 122.231 112.256C123.578 110.061 125.742 108.49 128.248 107.89C130.753 107.29 133.394 107.709 135.59 109.057C137.786 110.404 139.356 112.568 139.956 115.074C140.557 117.579 140.137 120.22 138.79 122.416H138.77Z" fill="#6C63FF"/>
<path opacity="0.1" d="M198.704 414.807C228.703 414.807 253.022 411.641 253.022 407.735C253.022 403.83 228.703 400.664 198.704 400.664C168.704 400.664 144.385 403.83 144.385 407.735C144.385 411.641 168.704 414.807 198.704 414.807Z" fill="#6C63FF"/>
<path opacity="0.1" d="M88.9862 410.014C98.0992 410.014 105.487 408.75 105.487 407.189C105.487 405.629 98.0992 404.365 88.9862 404.365C79.8733 404.365 72.4858 405.629 72.4858 407.189C72.4858 408.75 79.8733 410.014 88.9862 410.014Z" fill="#6C63FF"/>
<path d="M92.5708 375.738C92.5708 375.738 95.2445 379.239 91.3337 384.504C87.4229 389.769 84.1988 394.245 85.4894 397.542C85.4894 397.542 91.3873 387.728 96.204 387.592C101.021 387.455 97.8599 381.64 92.5708 375.738Z" fill="#6C63FF"/>
<path opacity="0.1" d="M92.5708 375.738C92.8043 376.076 92.988 376.447 93.1162 376.838C97.8014 382.342 100.3 387.48 95.7949 387.606C91.6016 387.728 86.5657 395.228 85.3628 397.123C85.4025 397.27 85.4496 397.414 85.504 397.556C85.504 397.556 91.4019 387.743 96.2186 387.606C101.035 387.47 97.8599 381.64 92.5708 375.738Z" fill="black"/>
<path d="M97.5433 380.199C97.5433 381.431 97.4069 382.429 97.2365 382.429C97.066 382.429 96.9248 381.455 96.9248 380.199C96.9248 378.942 97.1001 379.546 97.2705 379.546C97.441 379.546 97.5433 378.966 97.5433 380.199Z" fill="#FFD037"/>
<path d="M99.2528 381.669C98.1716 382.259 97.2267 382.614 97.1439 382.463C97.0611 382.312 97.8745 381.713 98.9557 381.124C100.037 380.535 99.6083 380.963 99.6911 381.124C99.7739 381.285 100.334 381.08 99.2528 381.669Z" fill="#FFD037"/>
<path d="M78.4373 375.738C78.4373 375.738 75.7635 379.239 79.6743 384.504C83.5852 389.769 86.8093 394.245 85.5186 397.542C85.5186 397.542 79.6208 387.728 74.8041 387.592C69.9874 387.455 73.1579 381.64 78.4373 375.738Z" fill="#6C63FF"/>
<path opacity="0.1" d="M78.4373 375.738C78.2037 376.076 78.02 376.447 77.8918 376.838C73.2066 382.342 70.7081 387.48 75.2131 387.606C79.4113 387.728 84.4423 395.228 85.6452 397.123C85.6077 397.27 85.5606 397.415 85.504 397.556C85.504 397.556 79.6061 387.743 74.7894 387.606C69.9727 387.47 73.1579 381.64 78.4373 375.738Z" fill="black"/>
<path d="M73.4647 380.199C73.4647 381.431 73.6011 382.429 73.7715 382.429C73.942 382.429 74.0832 381.455 74.0832 380.199C74.0832 378.942 73.9079 379.546 73.7375 379.546C73.567 379.546 73.4647 378.966 73.4647 380.199Z" fill="#FFD037"/>
<path d="M71.7601 381.669C72.8413 382.259 73.7813 382.614 73.8641 382.463C73.9469 382.312 73.1335 381.713 72.0523 381.124C70.9712 380.535 71.3997 380.963 71.3169 381.124C71.2341 381.285 70.6789 381.08 71.7601 381.669Z" fill="#FFD037"/>
<path d="M74.317 397.099C74.317 397.099 81.7977 396.865 84.0575 395.263C86.3173 393.66 95.5611 391.737 96.1212 394.313C96.6813 396.889 107.362 407.117 98.9167 407.185C90.4717 407.253 79.2944 405.87 77.0444 404.501C74.7943 403.133 74.317 397.099 74.317 397.099Z" fill="#A8A8A8"/>
<path opacity="0.2" d="M99.0628 406.289C90.6178 406.357 79.4405 404.974 77.1905 403.605C75.4761 402.558 74.7943 398.813 74.5654 397.089H74.317C74.317 397.089 74.804 403.118 77.0395 404.491C79.2749 405.865 90.4668 407.243 98.9118 407.175C101.347 407.175 102.194 406.289 102.146 405.003C101.81 405.792 100.879 406.274 99.0628 406.289Z" fill="black"/>
<path d="M324.132 396.811C324.132 396.811 303.541 395.57 305.971 410C305.971 410 305.484 412.547 307.797 413.706C307.797 413.706 307.836 412.64 309.911 413C310.649 413.125 311.4 413.16 312.146 413.107C313.158 413.041 314.12 412.644 314.884 411.977C314.884 411.977 320.669 409.591 322.919 400.128C322.919 400.128 324.585 398.063 324.522 397.532L321.044 398.993C321.044 398.993 322.233 401.501 321.298 403.586C321.298 403.586 321.186 399.086 320.518 399.203C320.382 399.203 318.712 400.07 318.712 400.07C318.712 400.07 320.757 404.453 319.199 407.609C319.199 407.609 319.783 402.252 318.059 400.386L315.624 401.813C315.624 401.813 318.01 406.323 316.393 410.005C316.393 410.005 316.807 404.36 315.112 402.159L312.896 403.888C312.896 403.888 315.137 408.334 313.768 411.388C313.768 411.388 313.593 404.818 312.414 404.321C312.414 404.321 310.466 406.031 310.179 406.757C310.179 406.757 311.713 409.981 310.763 411.685C310.763 411.685 310.179 407.302 309.697 407.302C309.697 407.302 307.749 410.224 307.564 412.172C307.564 412.172 307.651 409.216 309.229 407.005C308.115 407.217 307.088 407.75 306.273 408.539C306.273 408.539 306.575 406.489 309.682 406.308C309.682 406.308 311.28 404.107 311.708 403.976C311.708 403.976 308.591 403.713 306.702 404.55C306.702 404.55 308.362 402.602 312.278 403.493L314.465 401.711C314.465 401.711 310.364 401.146 308.62 401.769C308.62 401.769 310.627 400.055 315.054 401.282L317.44 399.86C317.44 399.86 313.939 399.105 311.854 399.373C311.854 399.373 314.056 398.185 318.137 399.471L319.841 398.706C319.841 398.706 317.275 398.219 316.525 398.126C315.775 398.034 315.736 397.839 315.736 397.839C317.36 397.568 319.028 397.754 320.553 398.375C320.553 398.375 324.195 397.04 324.132 396.811Z" fill="#6C63FF"/>
<path opacity="0.1" d="M309.95 417.427C317.998 417.427 324.522 416.323 324.522 414.962C324.522 413.601 317.998 412.498 309.95 412.498C301.902 412.498 295.378 413.601 295.378 414.962C295.378 416.323 301.902 417.427 309.95 417.427Z" fill="#6C63FF"/>
<path d="M288.058 397.581C288.058 397.581 276.447 396.879 277.831 405.017C277.761 405.43 277.823 405.854 278.008 406.229C278.194 406.605 278.493 406.912 278.863 407.107C278.863 407.107 278.863 406.503 280.056 406.707C280.472 406.775 280.893 406.796 281.313 406.771C281.883 406.729 282.424 406.505 282.857 406.133C282.857 406.133 286.12 404.784 287.391 399.451C287.391 399.451 288.326 398.287 288.292 397.99L286.344 398.823C286.344 398.823 287.011 400.24 286.485 401.413C286.485 401.413 286.422 398.876 286.047 398.935C285.969 398.935 285.029 399.422 285.029 399.422C285.029 399.422 286.178 401.857 285.311 403.673C285.311 403.673 285.638 400.639 284.668 399.597L283.29 400.405C283.29 400.405 284.634 402.948 283.724 405.022C283.724 405.022 283.957 401.837 282.998 400.6L281.751 401.574C281.751 401.574 283.013 404.082 282.238 405.802C282.238 405.802 282.136 402.095 281.474 401.818C280.999 402.218 280.576 402.674 280.212 403.177C280.212 403.177 281.079 404.998 280.543 405.957C280.543 405.957 280.212 403.488 279.944 403.478C279.944 403.478 278.853 405.115 278.741 406.235C278.791 405.196 279.113 404.188 279.676 403.313C279.049 403.432 278.47 403.731 278.011 404.175C278.011 404.175 278.181 403.016 279.959 402.918C279.959 402.918 280.855 401.676 281.099 401.603C281.099 401.603 279.34 401.452 278.274 401.925C278.274 401.925 279.214 400.834 281.42 401.331L282.652 400.323C282.652 400.323 280.339 400.006 279.36 400.357C279.36 400.357 280.49 399.383 282.988 400.094L284.328 399.295C283.295 399.066 282.238 398.975 281.181 399.022C281.181 399.022 282.423 398.355 284.722 399.076L285.696 398.647C285.696 398.647 284.235 398.36 283.831 398.316C283.427 398.272 283.383 398.155 283.383 398.155C284.299 398.003 285.24 398.107 286.1 398.457C286.1 398.457 288.092 397.712 288.058 397.581Z" fill="#6C63FF"/>
<path opacity="0.1" d="M280.061 409.206C284.599 409.206 288.277 408.585 288.277 407.818C288.277 407.051 284.599 406.43 280.061 406.43C275.524 406.43 271.845 407.051 271.845 407.818C271.845 408.585 275.524 409.206 280.061 409.206Z" fill="#6C63FF"/>
<path d="M310.155 380.335C310.155 380.335 296.143 379.488 297.794 389.311C297.709 389.81 297.784 390.322 298.008 390.775C298.232 391.228 298.593 391.599 299.041 391.834C299.041 391.834 299.041 391.108 300.477 391.347C300.98 391.427 301.489 391.452 301.997 391.42C302.685 391.371 303.339 391.101 303.862 390.651C303.862 390.651 307.802 389.024 309.332 382.581C309.332 382.581 310.466 381.178 310.422 380.818L308.056 381.826C308.056 381.826 308.864 383.535 308.231 384.952C308.231 384.952 308.153 381.889 307.695 381.962C307.607 381.962 306.468 382.551 306.468 382.551C306.468 382.551 307.861 385.527 306.809 387.685C306.809 387.685 307.208 384.022 306.034 382.766L304.369 383.74C304.369 383.74 305.995 386.808 304.895 389.316C304.895 389.316 305.177 385.474 304.018 383.959L302.508 385.133C302.508 385.133 304.038 388.157 303.107 390.237C303.107 390.237 302.986 385.766 302.182 385.425C302.182 385.425 300.862 386.589 300.662 387.066C300.662 387.066 301.71 389.263 301.057 390.422C301.057 390.422 300.662 387.446 300.336 387.431C300.336 387.431 299.021 389.38 298.875 390.758C298.938 389.507 299.327 388.295 300.005 387.242C299.247 387.386 298.548 387.748 297.994 388.284C297.994 388.284 298.198 386.886 300.331 386.764C300.331 386.764 301.417 385.269 301.71 385.177C301.71 385.177 299.586 385.001 298.3 385.571C298.3 385.571 299.43 384.251 302.099 384.85L303.589 383.638C303.589 383.638 300.794 383.253 299.61 383.676C299.61 383.676 300.974 382.513 303.994 383.36L305.616 382.386C305.616 382.386 303.234 381.899 301.817 382.06C301.817 382.06 303.312 381.251 306.093 382.123L307.252 381.607C307.252 381.607 305.503 381.261 304.992 381.207C304.481 381.154 304.456 381.012 304.456 381.012C305.562 380.829 306.696 380.955 307.734 381.378C307.734 381.378 310.203 380.491 310.155 380.335Z" fill="#6C63FF"/>
<path opacity="0.1" d="M300.507 394.366C305.986 394.366 310.427 393.616 310.427 392.691C310.427 391.766 305.986 391.016 300.507 391.016C295.028 391.016 290.586 391.766 290.586 392.691C290.586 393.616 295.028 394.366 300.507 394.366Z" fill="#6C63FF"/>
<path d="M529.852 284.756V46.5371H66.5197V271.09C72.4371 276.029 79.5525 280.183 86.9748 283.597C90.6308 285.282 94.3646 286.823 98.1764 288.219H524.324L529.852 284.756Z" fill="url(#paint0_linear)"/>
<path d="M528.956 284.854V53.3557H67.5327V271.592C73.4258 276.394 80.512 280.432 87.8904 283.768C91.5334 285.391 95.2543 286.888 99.0531 288.258H523.438L528.956 284.854Z" fill="white"/>
<path d="M528.956 47.2139H67.5376V59.4577H528.956V47.2139Z" fill="#5A5773"/>
<path d="M76.7522 56.5017C78.5005 56.5017 79.9178 55.0844 79.9178 53.3361C79.9178 51.5877 78.5005 50.1704 76.7522 50.1704C75.0038 50.1704 73.5865 51.5877 73.5865 53.3361C73.5865 55.0844 75.0038 56.5017 76.7522 56.5017Z" fill="white"/>
<path d="M85.2751 56.5017C87.0235 56.5017 88.4408 55.0844 88.4408 53.3361C88.4408 51.5877 87.0235 50.1704 85.2751 50.1704C83.5268 50.1704 82.1094 51.5877 82.1094 53.3361C82.1094 55.0844 83.5268 56.5017 85.2751 56.5017Z" fill="white"/>
<path d="M93.7981 56.5017C95.5464 56.5017 96.9637 55.0844 96.9637 53.3361C96.9637 51.5877 95.5464 50.1704 93.7981 50.1704C92.0497 50.1704 90.6324 51.5877 90.6324 53.3361C90.6324 55.0844 92.0497 56.5017 93.7981 56.5017Z" fill="white"/>
<path d="M261.671 86.366H185.452V134.26H261.671V86.366Z" fill="#6C63FF"/>
<path opacity="0.2" d="M156.138 86.366H79.9179V134.26H156.138V86.366Z" fill="#5A5773"/>
<path opacity="0.2" d="M367.205 86.366H290.985V134.26H367.205V86.366Z" fill="#5A5773"/>
<path opacity="0.2" d="M156.137 154.837H79.9178V202.731H156.137V154.837Z" fill="#5A5773"/>
<path opacity="0.2" d="M261.671 154.837H185.452V202.731H261.671V154.837Z" fill="#5A5773"/>
<path opacity="0.2" d="M367.205 154.837H290.985V202.731H367.205V154.837Z" fill="#5A5773"/>
<path opacity="0.2" d="M156.137 223.303H79.9178V271.197H156.137V223.303Z" fill="#5A5773"/>
<path opacity="0.2" d="M261.671 223.303H185.452V271.197H261.671V223.303Z" fill="#5A5773"/>
<path opacity="0.2" d="M367.205 223.303H290.985V271.197H367.205V223.303Z" fill="#5A5773"/>
<path d="M242.994 128.319L237.734 130.179L235.825 127.014C234.364 124.579 232.338 121.247 230.842 118.827C228.203 114.57 231.656 108.083 231.656 108.083C231.656 108.083 232.279 101.571 234.5 99.5649C236.721 97.5583 237.339 108.083 237.339 108.083C246.257 112.135 241.479 121.666 241.479 121.666L242.346 125.445L242.994 128.319Z" fill="#EFB7B9"/>
<path opacity="0.1" d="M242.994 128.319L237.734 130.179L235.825 127.013V126.736C235.825 126.736 238.839 124.666 242.356 125.445L242.994 128.319Z" fill="black"/>
<path d="M234.5 149.65L237.135 147.42L235.815 127.345C235.815 127.345 242.633 122.679 247.679 129.979C247.679 129.979 247.474 134.441 247.679 135.658C247.883 136.876 246.262 138.093 247.679 139.306C249.096 140.519 247.679 144.581 247.679 144.581C247.679 144.581 249.281 147.42 250.294 148.228C251.307 149.037 252.325 155.733 250.294 157.151C248.263 158.568 244.455 161.816 244.455 163.234C244.455 164.651 239.584 168.104 239.584 168.104L235.308 162.45L234.5 149.65Z" fill="#FF6484"/>
<path d="M177.518 271.514C167.69 267.345 169.872 257.161 171.722 252.033C172.092 250.994 172.526 249.979 173.023 248.994L178.536 245.648C178.536 245.648 179.661 248.517 180.864 252.364C183.654 261.316 186.864 275.483 177.518 271.514Z" fill="#EFB7B9"/>
<path d="M191.028 364.434C190.363 365.731 189.871 367.109 189.567 368.535C189.08 370.828 188.868 373.17 188.934 375.514C188.973 377.135 189.109 378.197 189.109 378.197L178.161 385.727C178.161 385.727 178.224 384.845 178.331 383.55C178.614 380.101 179.203 373.702 179.758 372.874C180.143 372.299 180.411 369.991 180.581 367.848C180.752 365.705 180.82 363.825 180.82 363.825C180.82 363.825 193.994 358.887 191.028 364.434Z" fill="#EFB7B9"/>
<path d="M216.884 369.835C216.884 369.835 216.884 371.929 216.806 374.364C216.728 376.799 216.582 379.673 216.275 381.012C215.993 382.239 215.973 384.494 216.027 386.574C216.1 389.009 216.275 391.201 216.275 391.201C216.275 391.201 205.098 380.632 206.238 379.795C206.545 379.571 206.847 378.67 207.124 377.471C207.465 376.01 207.772 374.062 208.001 372.406C208.274 370.434 208.444 368.846 208.444 368.846L216.884 369.835Z" fill="#EFB7B9"/>
<path opacity="0.1" d="M191.028 364.434C190.363 365.731 189.871 367.109 189.567 368.535C186.57 368.456 183.579 368.227 180.606 367.848C180.771 365.754 180.844 363.825 180.844 363.825C180.844 363.825 193.994 358.887 191.028 364.434Z" fill="black"/>
<path opacity="0.1" d="M216.884 369.835C216.884 369.835 216.884 371.929 216.806 374.364C213.319 375.255 209.735 373.473 208.001 372.416C208.274 370.444 208.444 368.856 208.444 368.856L216.884 369.835Z" fill="black"/>
<path d="M239.77 266.244C235.308 275.985 233.482 287.537 233.482 287.537L231.86 297.278C231.86 297.278 232.674 301.534 231.86 303.156C231.047 304.778 229.425 307.417 229.425 307.417C229.425 307.417 230.643 317.353 229.425 318.366C228.208 319.379 229.425 325.462 229.425 325.462L225.368 345.917L219.689 372.275C214.215 376.741 206.929 371.062 206.929 371.062L208.537 353.826C208.537 353.826 210.972 323.631 209.959 322.393C208.946 321.156 210.363 317.324 210.363 317.324C210.363 317.324 211.785 313.671 210.772 312.254C209.759 310.836 210.972 307.792 210.972 307.792C210.972 307.792 210.567 295.422 211.785 292.583C213.003 289.743 211.785 272.181 211.785 272.181L211.298 266.712L211.016 263.682L210.991 263.385C210.991 263.385 210.806 264.598 210.504 266.478C209.608 272.201 207.699 284.06 206.944 286.5C206.431 288.258 205.734 289.957 204.864 291.57C204.864 291.57 205.916 297.653 204.864 299.274C203.812 300.896 204.704 302.723 204.704 302.723C204.704 302.723 205.717 307.792 202.673 309.818C199.629 311.845 202.673 312.862 202.673 312.862C202.673 312.862 200.442 317.733 199.634 319.754C198.825 321.775 199.634 324.624 199.634 324.624L198.012 341.047C198.012 341.047 196.59 347.938 196.794 352.604C196.999 357.269 194.968 368.013 194.968 368.013C194.968 368.013 179.354 368.013 176.948 366.187C174.542 364.361 180.966 346.545 180.966 346.545C180.966 346.545 182.792 315.317 182.383 314.509C181.974 313.7 182.383 307.612 183.805 306.4C185.228 305.187 183.805 302.747 183.805 302.747C183.805 302.747 183.401 297.877 183.805 296.664C184.21 295.451 183.742 291.389 183.742 291.389C183.742 291.389 182.383 281.454 182.184 275.775C181.984 270.097 180.966 257.327 180.966 257.327C180.966 257.327 182.028 249.427 182.188 245.667C182.247 244.284 182.865 242.555 183.65 240.929C184.527 239.092 185.536 237.321 186.669 235.63C186.669 235.63 234.714 221.428 236.731 222.84C237.266 223.215 238.045 225.763 238.815 229.449C240.958 239.75 243.052 259.085 239.77 266.244Z" fill="#444053"/>
<path d="M210.168 142.311C217.896 142.311 224.16 136.046 224.16 128.318C224.16 120.591 217.896 114.326 210.168 114.326C202.44 114.326 196.176 120.591 196.176 128.318C196.176 136.046 202.44 142.311 210.168 142.311Z" fill="#A1616A"/>
<path opacity="0.1" d="M238.815 229.459C237.203 230.287 236.122 230.857 236.122 230.857C236.122 230.857 213.412 241.606 206.954 240.997C201.957 240.51 189.202 240.787 183.645 240.924C184.522 239.087 185.531 237.316 186.664 235.625C186.664 235.625 234.714 221.428 236.731 222.841C237.266 223.225 238.045 225.763 238.815 229.459Z" fill="black"/>
<path d="M200.432 150.663C200.432 150.663 187.473 152.709 184.414 154.715C181.356 156.722 175.297 160.599 175.297 168.912C175.297 177.226 173.88 185.744 173.066 188.174C172.253 190.604 185.841 210.275 185.841 210.275L180.971 240.086C180.971 240.086 200.452 239.477 206.939 240.086C213.426 240.695 236.127 229.946 236.127 229.946C236.127 229.946 249.51 222.85 252.349 222.641C255.189 222.432 246.671 207.027 246.671 207.027C246.671 207.027 233.487 182.091 235.718 178.034C237.948 173.977 239.584 168.099 239.584 168.099L237.149 147.42C237.149 147.42 233.502 146.202 230.458 148.433C227.414 150.663 217.074 149.446 217.074 149.446L200.432 150.663Z" fill="#FF6484"/>
<path opacity="0.1" d="M178.433 186.757L173.349 188.174L171.941 207.256C171.941 207.256 173.768 212.326 171.941 213.948C170.115 215.569 169.711 250.246 169.711 250.246C169.711 250.246 175.594 254.502 182.486 251.259C182.486 251.259 181.473 247.406 184.516 233.414C187.56 219.422 187.555 212.326 187.555 212.326C187.555 212.326 187.555 194.885 188.978 192.046C190.4 189.207 188.978 182.111 188.978 182.111C188.978 182.111 186.138 178.258 186.338 176.841C186.538 175.424 178.433 186.757 178.433 186.757Z" fill="black"/>
<path opacity="0.1" d="M180.864 252.379C177.878 253.384 174.628 253.266 171.722 252.048C172.092 251.008 172.526 249.993 173.023 249.008L178.536 245.663C178.536 245.663 179.68 248.531 180.864 252.379Z" fill="black"/>
<path d="M178.127 186.757L173.057 188.174L171.639 207.256C171.639 207.256 173.466 212.326 171.639 213.948C169.813 215.569 169.409 250.246 169.409 250.246C169.409 250.246 175.297 254.497 182.184 251.239C182.184 251.239 181.171 247.387 184.21 233.395C187.249 219.402 187.254 212.306 187.254 212.306C187.254 212.306 187.254 194.866 188.671 192.027C190.088 189.187 188.671 182.091 188.671 182.091C188.671 182.091 185.831 178.239 186.036 176.822C186.241 175.404 178.127 186.757 178.127 186.757Z" fill="#FF6484"/>
<path opacity="0.1" d="M230.039 189.796C230.039 189.796 227.404 212.506 219.694 216.767C219.694 216.767 236.93 211.902 230.039 189.796Z" fill="black"/>
<path opacity="0.1" d="M191.31 191.827C191.31 191.827 200.837 196.488 198.616 199.731C196.395 202.975 191.31 191.827 191.31 191.827Z" fill="black"/>
<path opacity="0.1" d="M191.31 201.154C191.31 201.154 197.393 207.441 196.181 209.672C194.968 211.902 191.31 201.154 191.31 201.154Z" fill="black"/>
<path opacity="0.1" d="M240.378 149.042C240.378 149.042 242.765 153.094 242.994 155.733C243.223 158.373 240.378 149.042 240.378 149.042Z" fill="black"/>
<path opacity="0.1" d="M240.378 143.568C240.378 143.568 241.576 142.55 244.635 143.568C247.693 144.586 240.378 143.568 240.378 143.568Z" fill="black"/>
<path opacity="0.1" d="M228.67 262.085C223.646 262.798 218.523 262.142 213.84 260.186L211.283 266.731L211.001 263.702C211.42 261.16 212.233 258.437 213.84 257.751C213.84 257.751 219.47 262.236 228.67 262.085Z" fill="black"/>
<path opacity="0.1" d="M187.073 270.604C187.073 270.604 199.546 273.19 203.043 272.732L187.073 270.604Z" fill="black"/>
<path opacity="0.1" d="M188.369 273.871C188.369 273.871 193.692 273.642 196.351 274.709L188.369 273.871Z" fill="black"/>
<path opacity="0.1" d="M188.978 276.077C191.406 276.593 193.872 276.919 196.351 277.051L188.978 276.077Z" fill="black"/>
<path opacity="0.1" d="M188.671 303.984C188.9 303.833 199.317 301.398 200.613 303.146L188.671 303.984Z" fill="black"/>
<path opacity="0.1" d="M188.671 307.179C188.671 307.179 197.72 306.113 197.949 307.179C198.178 308.246 188.671 307.179 188.671 307.179Z" fill="black"/>
<path opacity="0.1" d="M188.671 310.067C188.671 310.067 198.329 308.07 199.468 308.557C200.608 309.045 188.671 310.067 188.671 310.067Z" fill="black"/>
<path opacity="0.1" d="M189.129 378.202L178.18 385.731C178.18 385.731 178.244 384.85 178.351 383.554C180.786 377.564 183.956 374.403 183.956 374.403C186.426 373.76 187.984 374.354 188.953 375.518C188.992 377.135 189.129 378.202 189.129 378.202Z" fill="black"/>
<path d="M190.195 384.967C188.648 388.496 187.869 392.315 187.911 396.168C187.973 399.328 187.171 402.445 185.593 405.183C185.364 405.569 185.107 405.937 184.823 406.284C184.823 406.284 177.216 406.221 174.552 404.014C174.253 403.778 174.008 403.478 173.836 403.138C172.312 400.099 176.802 388.464 176.802 388.464C179.159 379.493 183.947 374.7 183.947 374.7C192.474 372.494 190.195 384.967 190.195 384.967Z" fill="#444053"/>
<path opacity="0.1" d="M185.593 405.159C185.364 405.545 185.107 405.913 184.823 406.26C184.823 406.26 177.216 406.196 174.552 403.99C175.862 399.656 180.041 386.54 181.999 388.771C183.839 390.865 185.12 400.941 185.593 405.159Z" fill="black"/>
<path d="M184.551 389.584L184.02 409.231H186.572C186.572 409.231 186.986 391.995 188.125 389.584C189.265 387.173 184.551 389.584 184.551 389.584Z" fill="#444053"/>
<path opacity="0.1" d="M216.275 391.201C216.275 391.201 205.098 380.633 206.238 379.795C206.545 379.571 206.847 378.67 207.124 377.472C209.272 377.097 212.969 377.993 216.027 386.574C216.1 389.009 216.275 391.201 216.275 391.201Z" fill="black"/>
<path d="M217.946 402.987C217.86 403.024 217.77 403.05 217.678 403.065C216.363 403.294 211.517 403.162 208.804 403.065C208.307 403.048 207.836 402.84 207.49 402.483C207.144 402.126 206.95 401.648 206.949 401.151C206.949 400.42 206.949 399.529 206.89 398.579C206.764 395.579 206.403 392.009 205.327 391.206C203.423 389.745 201.918 384.787 205.327 378.509C205.327 378.509 211.863 373.517 216.577 388.522C216.577 388.522 217.035 392.803 219.086 394.323C221.136 395.842 218.862 402.553 217.946 402.987Z" fill="#444053"/>
<path opacity="0.1" d="M217.668 403.065C216.353 403.294 211.507 403.162 208.795 403.065C208.298 403.048 207.826 402.84 207.48 402.483C207.134 402.126 206.94 401.648 206.939 401.151C206.939 400.42 206.939 399.529 206.881 398.579C207.704 394.946 208.887 391.206 210.412 390.353C210.421 390.349 215.034 389.827 217.668 403.065Z" fill="black"/>
<path d="M206.155 389.91L207.382 406.26H208.941V388.517L206.155 389.91Z" fill="#444053"/>
<path opacity="0.1" d="M209.964 106.023C205.546 106.351 201.269 107.725 197.486 110.031C196.512 110.62 195.538 111.336 195.134 112.393C194.783 113.309 194.929 114.341 194.944 115.315C195.075 123.702 185.724 130.048 186.016 138.429C186.133 141.756 187.804 144.853 188.111 148.17C188.622 153.702 185.349 158.792 182.213 163.375C185.444 163.571 188.627 162.516 191.101 160.428C194.411 171.46 194.838 183.155 192.343 194.398H196.828C197.271 194.366 197.716 194.421 198.139 194.559C198.532 194.746 198.885 195.009 199.176 195.333C203.369 199.507 206.179 205.678 204.577 211.376L214.123 207.796C216.407 206.939 218.725 206.068 220.712 204.655C222.699 203.243 224.365 201.192 224.784 198.786C225.042 197.325 224.959 195.582 226.162 194.734C226.755 194.419 227.387 194.185 228.042 194.038C230.662 193.113 231.821 190.083 232.357 187.356C233.009 184.01 233.214 180.592 232.966 177.192C232.542 171.494 230.857 165.708 232.245 160.146C233.029 157.024 234.773 154.116 234.914 150.892C235.143 145.579 230.988 141.001 230.37 135.717C229.937 132.035 231.266 128.309 230.833 124.627C230.592 122.727 229.897 120.912 228.805 119.338C227.714 117.763 226.26 116.475 224.565 115.583C223.391 114.979 222.129 114.575 220.97 113.908C218.326 112.373 216.636 109.612 214.235 107.713C211.834 105.813 207.835 105.097 206.028 107.566L209.964 106.023Z" fill="black"/>
<path d="M209.964 105.414C205.546 105.743 201.269 107.117 197.486 109.422C196.512 110.011 195.538 110.727 195.134 111.784C194.783 112.7 194.929 113.732 194.944 114.706C195.075 123.093 185.724 129.439 186.016 137.826C186.133 141.147 187.804 144.245 188.111 147.566C188.622 153.099 185.349 158.188 182.213 162.776C185.443 162.966 188.624 161.911 191.101 159.829C194.41 170.857 194.838 182.549 192.343 193.79H196.828C197.272 193.759 197.717 193.815 198.139 193.955C198.533 194.139 198.886 194.401 199.176 194.725C203.369 198.903 206.179 205.069 204.577 210.767L214.123 207.188C216.407 206.331 218.725 205.459 220.712 204.046C222.699 202.634 224.365 200.584 224.784 198.178C225.042 196.717 224.959 194.973 226.162 194.126C226.755 193.811 227.387 193.576 228.042 193.429C230.662 192.504 231.821 189.475 232.357 186.747C233.015 183.399 233.225 179.977 232.98 176.573C232.557 170.875 230.872 165.089 232.26 159.527C233.044 156.406 234.787 153.498 234.929 150.274C235.157 144.96 231.003 140.382 230.385 135.098C229.951 131.416 231.281 127.695 230.847 124.009C230.606 122.108 229.91 120.294 228.819 118.72C227.728 117.146 226.274 115.858 224.579 114.965C223.405 114.361 222.144 113.956 220.985 113.294C218.34 111.755 216.65 108.994 214.249 107.094C211.848 105.195 207.85 104.479 206.043 106.948L209.964 105.414Z" fill="#925978"/>
<g opacity="0.1">
<path opacity="0.1" d="M194.934 112.68C194.914 112.868 194.905 113.057 194.905 113.245C194.919 113.06 194.929 112.87 194.934 112.68Z" fill="black"/>
<path opacity="0.1" d="M230.331 132.176C230.506 129.595 231.081 127.004 230.867 124.432C230.706 127.014 230.131 129.605 230.331 132.176Z" fill="black"/>
<path opacity="0.1" d="M188.111 145.009C187.828 141.99 186.421 139.165 186.09 136.15C186.023 136.703 185.999 137.26 186.016 137.816C186.133 141.103 187.765 144.176 188.096 147.449C188.177 146.638 188.181 145.821 188.111 145.009Z" fill="black"/>
<path opacity="0.1" d="M232.279 157.005C231.823 158.987 231.659 161.024 231.792 163.054C231.841 161.87 232.004 160.694 232.279 159.542C233.063 156.42 234.807 153.513 234.948 150.289C234.971 149.716 234.945 149.143 234.87 148.574C234.49 151.472 232.976 154.17 232.279 157.005Z" fill="black"/>
<path opacity="0.1" d="M191.101 157.268C189.07 158.97 186.555 159.992 183.913 160.19C183.357 161.057 182.783 161.904 182.213 162.742C185.443 162.931 188.624 161.877 191.101 159.795C192.88 165.716 193.834 171.853 193.936 178.034C194.08 171.007 193.124 164 191.101 157.268Z" fill="black"/>
<path opacity="0.1" d="M232.372 184.195C231.836 186.923 230.677 189.952 228.057 190.872C227.401 191.019 226.768 191.255 226.177 191.574C224.974 192.421 225.057 194.174 224.798 195.626C224.38 198.032 222.719 200.077 220.727 201.47C218.735 202.863 216.422 203.759 214.137 204.616L205.03 208.025C204.983 208.94 204.836 209.846 204.592 210.728L214.137 207.149C216.422 206.292 218.74 205.42 220.727 204.007C222.714 202.595 224.38 200.545 224.798 198.139C225.057 196.678 224.974 194.934 226.177 194.087C226.769 193.771 227.402 193.537 228.057 193.39C230.677 192.465 231.836 189.436 232.372 186.708C232.926 183.87 233.157 180.978 233.058 178.088C232.994 180.139 232.764 182.181 232.372 184.195Z" fill="black"/>
<path opacity="0.1" d="M199.191 192.158C198.901 191.833 198.548 191.569 198.153 191.384C197.731 191.246 197.286 191.189 196.843 191.218H192.864C192.708 192.066 192.543 192.913 192.377 193.756H196.863C197.306 193.725 197.751 193.781 198.173 193.921C198.567 194.105 198.92 194.367 199.21 194.691C202.278 197.749 204.601 201.87 205.001 206.097C205.493 201.042 202.872 195.84 199.191 192.158Z" fill="black"/>
</g>
<path opacity="0.1" d="M176.938 208.756C176.938 208.756 180.562 207.236 181.37 208.756C182.179 210.275 176.938 208.756 176.938 208.756Z" fill="black"/>
<path opacity="0.1" d="M178.219 211.361C178.219 211.361 181.843 209.842 182.656 211.361C183.469 212.881 178.219 211.361 178.219 211.361Z" fill="black"/>
<path opacity="0.1" d="M402.792 14.7247C402.792 14.7247 384.26 13.6094 386.447 26.5935C386.447 26.5935 386.014 28.8874 388.093 29.9296C388.093 29.9296 388.127 28.9556 389.993 29.2916C390.657 29.4034 391.332 29.4361 392.004 29.389C392.911 29.3262 393.773 28.9688 394.459 28.3711C394.459 28.3711 399.665 26.2233 401.691 17.7101C401.691 17.7101 403.191 15.8497 403.152 15.3724L400.025 16.7117C400.025 16.7117 401.092 18.9667 400.249 20.8417C400.249 20.8417 400.152 16.7896 399.548 16.8871C399.426 16.8871 397.926 17.6663 397.926 17.6663C397.926 17.6663 399.762 21.5966 398.374 24.4554C398.374 24.4554 398.9 19.6144 397.352 17.9536L395.141 19.2637C395.141 19.2637 397.288 23.3207 395.832 26.6324C395.832 26.6324 396.207 21.5528 394.678 19.5754L392.681 21.129C392.681 21.129 394.702 25.1081 393.485 27.8549C393.485 27.8549 393.324 21.9375 392.262 21.4943C392.262 21.4943 390.519 23.0333 390.256 23.6665C390.256 23.6665 391.634 26.5886 390.777 28.0984C390.777 28.0984 390.251 24.1632 389.803 24.1437C389.803 24.1437 388.064 26.7542 387.884 28.527C387.968 26.8728 388.484 25.2694 389.379 23.8759C388.376 24.0657 387.451 24.5468 386.72 25.259C386.72 25.259 386.988 23.4132 389.808 23.2476C389.808 23.2476 391.244 21.2703 391.629 21.1485C391.629 21.1485 388.824 20.9148 387.124 21.6696C387.124 21.6696 388.619 19.9261 392.145 20.6956L394.093 19.0884C394.093 19.0884 390.402 18.6014 388.834 19.142C388.834 19.142 390.636 17.603 394.624 18.7231L396.767 17.4423C396.767 17.4423 393.621 16.7604 391.746 17.0088C391.746 17.0088 393.723 15.9422 397.396 17.0965L398.93 16.4098C398.93 16.4098 396.621 15.9568 395.949 15.8838C395.277 15.8107 395.238 15.6257 395.238 15.6257C396.698 15.3826 398.198 15.5512 399.568 16.1127C399.568 16.1127 402.845 14.9292 402.792 14.7247Z" fill="#6C63FF"/>
<path opacity="0.1" d="M376.38 4.19482C376.38 4.19482 360.795 14.2811 370.249 23.4421C370.249 23.4421 371.257 25.5461 373.551 25.1564C373.551 25.1564 373.005 24.3577 374.705 23.5152C375.308 23.2118 375.872 22.8373 376.385 22.3999C377.079 21.8114 377.563 21.0131 377.763 20.1255C377.763 20.1255 380.686 15.3039 377.276 7.24848C377.276 7.24848 377.384 4.86205 377.052 4.51139L375.328 7.43355C375.328 7.43355 377.525 8.61702 377.958 10.6236C377.958 10.6236 375.479 7.42381 375.036 7.85726C374.948 7.94493 374.189 9.44984 374.189 9.44984C374.189 9.44984 378.002 11.5246 378.572 14.6464C378.572 14.6464 376.137 10.4336 373.892 10.0197L372.879 12.3574C372.879 12.3574 377.018 14.3542 377.807 17.8851C377.807 17.8851 375.095 13.5701 372.694 12.8834L372.012 15.3185C372.012 15.3185 376.005 17.3445 376.643 20.2862C376.643 20.2862 373.01 15.6205 371.89 15.9029C371.89 15.9029 371.403 18.1725 371.559 18.8251C371.559 18.8251 374.393 20.3446 374.608 22.0882C374.608 22.0882 371.851 19.2293 371.495 19.468C371.495 19.468 371.642 22.5995 372.552 24.1483C371.642 22.7655 371.108 21.169 371.004 19.5167C370.308 20.2637 369.848 21.1985 369.679 22.2051C369.679 22.2051 368.802 20.5589 370.979 18.7569C370.979 18.7569 370.979 16.3218 371.198 15.9857C371.198 15.9857 368.802 17.4468 367.877 19.0735C367.877 19.0735 368.052 16.7845 371.359 15.3331L371.992 12.8736C371.992 12.8736 368.719 14.6561 367.789 16.0344C367.789 16.0344 368.33 13.7259 372.202 12.2648L373.176 9.96122C373.176 9.96122 370.254 11.2811 368.87 12.5912C368.87 12.5912 369.844 10.5554 373.478 9.31347L374.306 7.85239C374.306 7.85239 372.177 8.85567 371.593 9.19658C371.008 9.5375 370.867 9.41088 370.867 9.41088C371.899 8.34921 373.206 7.59546 374.642 7.23387C374.642 7.23387 376.546 4.33119 376.38 4.19482Z" fill="#6C63FF"/>
<path opacity="0.1" d="M352.662 15.9469C352.662 15.9469 343.345 32.0188 355.925 35.8809C355.925 35.8809 357.781 37.2981 359.646 35.8809C359.646 35.8809 358.804 35.4231 359.933 33.8987C360.326 33.3546 360.653 32.7661 360.907 32.1454C361.26 31.3055 361.33 30.3742 361.107 29.4911C361.107 29.4911 361.521 23.8708 354.825 18.2359C354.825 18.2359 353.85 16.0638 353.363 15.9031L353.154 19.3123C353.154 19.3123 355.648 19.3707 356.948 20.9633C356.948 20.9633 353.286 19.2343 353.1 19.8139C353.062 19.9308 353.066 21.6159 353.066 21.6159C353.066 21.6159 357.445 21.7474 359.393 24.2702C359.393 24.2702 355.302 21.6256 353.125 22.2685L353.281 24.8108C353.281 24.8108 357.873 24.7134 360.177 27.504C360.177 27.504 355.794 24.8887 353.359 25.366L353.846 27.845C353.846 27.845 358.326 27.845 360.226 30.1729C360.226 30.1729 354.868 27.6599 353.997 28.405C353.997 28.405 354.586 30.6551 355.034 31.1762C355.034 31.1762 358.248 31.2444 359.232 32.7006C359.232 32.7006 355.477 31.4002 355.268 31.7801C355.268 31.7801 356.821 34.5026 358.336 35.4669C356.899 34.6522 355.699 33.4772 354.854 32.0577C354.574 33.0385 354.587 34.0798 354.893 35.0529C354.893 35.0529 353.363 33.9864 354.484 31.3905C354.484 31.3905 353.363 29.2184 353.427 28.8239C353.427 28.8239 351.966 31.2249 351.868 33.0805C351.868 33.0805 350.982 30.9619 353.271 28.1713L352.721 25.6874C352.721 25.6874 350.612 28.7606 350.407 30.4116C350.407 30.4116 349.842 28.108 352.633 25.0543L352.448 22.5656C352.448 22.5656 350.432 25.0738 349.808 26.8612C349.808 26.8612 349.74 24.6111 352.424 21.8497L352.497 20.1694C352.497 20.1694 351.035 22.025 350.69 22.6046C350.344 23.1841 350.139 23.1013 350.139 23.1013C350.578 21.6859 351.401 20.4198 352.516 19.4438C352.516 19.4438 352.867 15.9907 352.662 15.9469Z" fill="#6C63FF"/>
<path d="M432.656 199.157C431.278 199.157 429.93 199.565 428.784 200.331C427.638 201.097 426.745 202.185 426.217 203.459C425.69 204.732 425.552 206.134 425.821 207.486C426.09 208.838 426.753 210.079 427.728 211.054C428.703 212.029 429.945 212.693 431.297 212.961C432.648 213.23 434.05 213.092 435.323 212.565C436.597 212.037 437.685 211.144 438.451 209.998C439.217 208.852 439.626 207.504 439.626 206.126C439.62 204.279 438.885 202.51 437.579 201.204C436.273 199.898 434.503 199.162 432.656 199.157ZM412.279 144.469V151.438H419.248L431.794 176.851L426.549 185.388C425.976 186.398 425.676 187.539 425.677 188.7C425.677 193.366 428.867 195.67 433.192 195.67H473.941V188.968H434.044C433.928 188.975 433.811 188.958 433.702 188.916C433.593 188.875 433.494 188.811 433.412 188.729C433.33 188.646 433.266 188.547 433.224 188.438C433.183 188.329 433.165 188.213 433.172 188.096C433.264 187.795 433.388 187.504 433.543 187.229L437.025 181.731H462.988C464.243 181.741 465.476 181.405 466.551 180.76C467.627 180.115 468.504 179.185 469.086 178.073L481.636 156.493C481.881 155.945 482.001 155.35 481.987 154.75C481.982 154.301 481.887 153.858 481.708 153.447C481.529 153.036 481.269 152.665 480.944 152.356C480.619 152.047 480.235 151.807 479.815 151.649C479.395 151.491 478.948 151.42 478.5 151.438H426.919L423.607 144.469H412.279ZM466.967 199.157C465.589 199.158 464.242 199.567 463.097 200.334C461.951 201.1 461.059 202.189 460.532 203.462C460.005 204.736 459.868 206.137 460.137 207.489C460.407 208.84 461.071 210.082 462.046 211.056C463.021 212.03 464.262 212.693 465.614 212.962C466.966 213.23 468.367 213.092 469.64 212.564C470.913 212.037 472.002 211.143 472.767 209.997C473.533 208.851 473.941 207.504 473.941 206.126C473.936 204.278 473.2 202.508 471.893 201.202C470.586 199.896 468.815 199.161 466.967 199.157Z" fill="#6C63FF"/>
<path d="M458.05 163.75H452.205V157.905H447.822V163.75H441.978V168.133H447.822V173.977H452.205V168.133H458.05V163.75Z" fill="white"/>
<path d="M680.744 147.799L654.318 139.81L652.692 175.947L680.503 184.33L680.744 147.799Z" fill="#F5F5F5"/>
<path d="M494.725 91.5608V128.332L652.693 175.947L654.318 139.81L494.725 91.5608Z" fill="#F5F5F5"/>
<path opacity="0.1" d="M680.744 147.799L654.318 139.81L652.692 175.947L680.503 184.33L680.744 147.799Z" fill="black"/>
<path d="M680.744 217.015L654.318 209.026L652.692 245.163L680.503 253.546L680.744 217.015Z" fill="#584EFF"/>
<path d="M494.725 160.777V197.548L652.693 245.163L654.318 209.026L494.725 160.777Z" fill="#6C63FF"/>
<path opacity="0.1" d="M680.744 217.015L654.318 209.026L652.692 245.163L680.503 253.546L680.744 217.015Z" fill="black"/>
<path d="M661.036 229.753L665.362 236.242L674.014 225.427" stroke="white" stroke-width="7" stroke-miterlimit="10" stroke-linecap="round"/>
<g opacity="0.4">
<path opacity="0.4" d="M661.277 154.048L669.929 169.189" stroke="white" stroke-width="7" stroke-miterlimit="10" stroke-linecap="round"/>
<path opacity="0.4" d="M672.092 156.21L661.277 167.025" stroke="white" stroke-width="7" stroke-miterlimit="10" stroke-linecap="round"/>
</g>
<path d="M680.744 281.906L654.318 273.917L652.692 310.054L680.503 318.437L680.744 281.906Z" fill="#F5F5F5"/>
<path d="M494.725 225.667V262.438L652.693 310.053L654.318 273.916L494.725 225.667Z" fill="#F5F5F5"/>
<path opacity="0.1" d="M680.744 281.906L654.318 273.917L652.692 310.054L680.503 318.437L680.744 281.906Z" fill="black"/>
<g opacity="0.4">
<path opacity="0.4" d="M661.277 288.154L669.929 303.295" stroke="white" stroke-width="7" stroke-miterlimit="10" stroke-linecap="round"/>
<path opacity="0.4" d="M672.092 290.317L661.277 301.132" stroke="white" stroke-width="7" stroke-miterlimit="10" stroke-linecap="round"/>
</g>
<path opacity="0.3" d="M603.957 221.101C606.943 221.101 609.364 216.259 609.364 210.286C609.364 204.313 606.943 199.471 603.957 199.471C600.97 199.471 598.549 204.313 598.549 210.286C598.549 216.259 600.97 221.101 603.957 221.101Z" fill="black"/>
<path opacity="0.1" d="M603.957 301.132C629.044 301.132 649.38 260.459 649.38 210.286C649.38 160.113 629.044 119.439 603.957 119.439C578.87 119.439 558.534 160.113 558.534 210.286C558.534 260.459 578.87 301.132 603.957 301.132Z" fill="#6C63FF"/>
<path opacity="0.1" d="M603.957 260.035C617.695 260.035 628.832 237.762 628.832 210.286C628.832 182.81 617.695 160.537 603.957 160.537C590.219 160.537 579.082 182.81 579.082 210.286C579.082 237.762 590.219 260.035 603.957 260.035Z" fill="white"/>
<g opacity="0.5">
<path opacity="0.5" d="M425.629 145.275H424.908V149.361H425.629V145.275Z" fill="#47E6B1"/>
<path opacity="0.5" d="M427.311 147.679V146.958H423.226V147.679H427.311Z" fill="#47E6B1"/>
</g>
<g opacity="0.5">
<path opacity="0.5" d="M681.318 344.469H680.597V348.555H681.318V344.469Z" fill="#47E6B1"/>
<path opacity="0.5" d="M683 346.872V346.151H678.914V346.872H683Z" fill="#47E6B1"/>
</g>
<g opacity="0.5">
<path opacity="0.5" d="M663.56 257.752H662.839V261.837H663.56V257.752Z" fill="#47E6B1"/>
<path opacity="0.5" d="M665.242 260.155V259.434H661.156V260.155H665.242Z" fill="#47E6B1"/>
</g>
<g opacity="0.5">
<path opacity="0.5" d="M632.797 340.908H632.076V344.993H632.797V340.908Z" fill="#47E6B1"/>
<path opacity="0.5" d="M634.479 343.311V342.59H630.394V343.311H634.479Z" fill="#47E6B1"/>
</g>
<g opacity="0.5">
<path opacity="0.5" d="M611.167 393.06H610.446V397.146H611.167V393.06Z" fill="#47E6B1"/>
<path opacity="0.5" d="M612.849 395.463V394.742H608.764V395.463H612.849Z" fill="#47E6B1"/>
</g>
<g opacity="0.5">
<path opacity="0.5" d="M456.392 208.483H455.671V212.569H456.392V208.483Z" fill="#47E6B1"/>
<path opacity="0.5" d="M458.074 210.887V210.166H453.988V210.887H458.074Z" fill="#47E6B1"/>
</g>
<defs>
<linearGradient id="paint0_linear" x1="298.183" y1="288.219" x2="298.183" y2="46.5371" gradientUnits="userSpaceOnUse">
<stop stop-color="#808080" stop-opacity="0.25"/>
<stop offset="0.54" stop-color="#808080" stop-opacity="0.12"/>
<stop offset="1" stop-color="#808080" stop-opacity="0.1"/>
</linearGradient>
</defs>
</svg>
